<svg style="width: 90px; top: 1px; position: relative;" viewBox="0 0 149 45" xmlns="http://www.w3.org/2000/svg"><g fill="currentColor" fill-rule="nonzero"><path d="M68.66 29.2c.129.001.256.025.377.071.137.055.261.138.364.244l2.11 2.216a8.79 8.79 0 0 1-3.477 2.729c-1.393.617-3.04.926-4.944.926-1.744 0-3.307-.296-4.69-.89a10.163 10.163 0 0 1-3.516-2.452 10.813 10.813 0 0 1-2.215-3.704 13.657 13.657 0 0 1-.774-4.66 12.268 12.268 0 0 1 .882-4.71 10.87 10.87 0 0 1 6.26-6.122 13.237 13.237 0 0 1 4.872-.866c.819-.01 1.636.061 2.441.211.73.143 1.445.354 2.136.628.641.257 1.254.58 1.83.96.537.357 1.034.77 1.48 1.235L70 17.426c-.12.15-.257.285-.41.4a1.069 1.069 0 0 1-.663.181 1.168 1.168 0 0 1-.535-.126 5.919 5.919 0 0 1-.537-.309l-.62-.394a4.864 4.864 0 0 0-.803-.393 6.67 6.67 0 0 0-1.083-.309 7.38 7.38 0 0 0-1.46-.126 6.707 6.707 0 0 0-2.648.51 5.81 5.81 0 0 0-2.057 1.464 6.776 6.776 0 0 0-1.34 2.302 9.014 9.014 0 0 0-.482 3.035 9.416 9.416 0 0 0 .481 3.128 6.845 6.845 0 0 0 1.31 2.303 5.537 5.537 0 0 0 1.93 1.423 5.781 5.781 0 0 0 2.365.488 11.2 11.2 0 0 0 1.325-.071 5.183 5.183 0 0 0 2.09-.691c.331-.201.645-.43.937-.684.125-.105.263-.192.41-.26.141-.064.294-.097.45-.097ZM97.212 35.128h-4.13a1.911 1.911 0 0 1-1.143-.322 1.667 1.667 0 0 1-.62-.826l-1.355-3.993h-8.74L79.87 33.98a1.823 1.823 0 0 1-1.734 1.148h-4.163l8.893-22.907h5.455l8.892 22.907Zm-14.757-8.757h6.275l-2.113-6.272-.48-1.408a32.09 32.09 0 0 1-.541-1.753 31.507 31.507 0 0 1-.52 1.776 24.981 24.981 0 0 1-.505 1.415l-2.116 6.242ZM95.418 12.221h4.288c.402-.019.8.09 1.136.309.292.206.512.497.63.833l4.447 12.262c.198.534.4 1.116.607 1.746.206.63.398 1.29.576 1.98.145-.691.316-1.351.512-1.98s.39-1.208.58-1.74l4.416-12.262a1.823 1.823 0 0 1 1.734-1.148h4.314l-9.208 22.907h-4.825l-9.207-22.907ZM140.166 35.128h-4.13a1.911 1.911 0 0 1-1.143-.322 1.667 1.667 0 0 1-.62-.826l-1.355-3.993h-8.74l-1.355 3.993a1.823 1.823 0 0 1-1.735 1.148h-4.162l8.892-22.907h5.456l8.892 22.907Zm-14.758-8.757h6.276l-2.112-6.272c-.138-.399-.298-.868-.482-1.408a37.168 37.168 0 0 1-.545-1.753 29.875 29.875 0 0 1-1.024 3.191l-2.113 6.242ZM148.998 35.128h-5.358V12.221H149zM11.902 20.722a9.083 9.083 0 0 1 2.51-2.375l9.442-6.242c1.204-.796 2.353-1.264 3.405-1.43l-3.312-1.78c-3.168-1.698-6.14-1.935-8.388-.671l-.709.463c-1.893 1.455-2.931 4.033-2.931 7.365l-.017 4.67ZM32.08 31.566l3.918-2.587c2.75-1.816 4.334-4.068 4.534-6.413V21.56c-.209-2.539-2.035-4.854-5.174-6.54l-3.317-1.782c.436.965.678 2.178.674 3.618l-.021 11.302a9.047 9.047 0 0 1-.613 3.408ZM27.088 34.86c-1.163-.036-2.446-.395-3.794-1.12l-8.39-4.501c-1.343-.723-2.35-1.59-3.02-2.533l-.009 4.716c0 3.385.993 5.892 2.822 7.142l.91.489c2.053.833 4.703.284 7.53-1.585l3.95-2.608Z"/><path d="m10.879 31.42.029-15.368c0-2.152.418-4.025 1.192-5.54l-5.501 3.629C2.167 17.067-.17 20.836.009 24.751c.18 3.917 2.855 7.459 7.532 9.976l4.627 2.485c-.847-1.507-1.294-3.467-1.29-5.791ZM24.424 8.014l11.41 6.125c2.167 1.161 3.755 2.613 4.706 4.245l.014-6.552c.009-5.306-1.75-9.175-4.953-10.896-3.204-1.721-7.415-1.053-11.85 1.876l-5.486 3.623c1.894-.107 3.993.417 6.159 1.579ZM36.553 29.813 23.705 38.3c-1.942 1.283-3.829 1.991-5.549 2.112l4.62 2.478c2.63 1.414 5.19 2.12 7.523 2.109a9.69 9.69 0 0 0 4.966-1.328c3.379-2.006 5.244-6.03 5.262-11.327l.013-6.564c-.856 1.476-2.193 2.846-3.987 4.032Z"/></g></svg>
