<?xml version="1.0" encoding="UTF-8"?>
<svg id="SVGRoot" width="500" height="137.36" version="1.1" viewBox="0 0 500 137.35721" xmlns="http://www.w3.org/2000/svg" xmlns:cc="http://creativecommons.org/ns#" xmlns:dc="http://purl.org/dc/elements/1.1/" xmlns:rdf="http://www.w3.org/1999/02/22-rdf-syntax-ns#"><metadata><rdf:RDF><cc:Work rdf:about=""><dc:format>image/svg+xml</dc:format><dc:type rdf:resource="http://purl.org/dc/dcmitype/StillImage"/><dc:title/></cc:Work></rdf:RDF></metadata><g transform="translate(-173.44 -168.82)"><g><path d="m226.46 172.16 0.4175 47.177h-12.942v15.447h-37.575v-62.625" fill="#ffc72c"/><path d="m188.05 192.62-5.4275-5.01-0.83499-1.2525-0.4175 1.67 5.845 7.9325-5.01-2.0875-0.83499-0.835v1.2525l5.845 5.01h-6.68l-0.835-0.835 0.4175 1.67 7.0975 1.2525-5.845 4.175h-1.2525l1.2525 0.83499 9.185-4.175-8.35 13.777-2.0875 0.4175 2.505 0.835 10.437-13.777-8.7675 20.875-2.9225 3.7575 5.01-2.9225 9.185-20.875 5.845 8.35 5.4275-8.35 9.6025 20.875 4.5925 2.9225-2.505-3.7575-9.185-20.875 10.437 13.777 2.505-0.835-1.67-0.4175-8.7675-13.777 9.185 4.175 1.2525-0.83499h-1.2525l-5.845-4.175 7.0975-1.2525 0.4175-1.67-0.835 0.835h-6.68l5.845-5.01v-1.2525l-0.4175 0.835-5.01 2.505 5.4275-8.35-0.4175-1.67-0.83499 1.2525-5.4275 5.01 5.4275-12.107-1.2525-2.0875v1.67l-7.515 12.525-2.0875-3.34-2.0875 3.7575-2.9225-3.34 2.0875-3.7575-2.0875-2.0875-5.4275 2.505-1.2525 0.83499 1.2525 2.505-2.9225 3.34-2.0875-3.7575-1.67 3.34-7.515-12.525-0.4175-1.67-1.2525 2.0875" fill="#20201e"/><path d="m198.07 184.69h-0.4175l-0.4175 0.835-1.2525 0.4175-0.4175 0.4175-0.4175 0.4175-0.835 0.41749h-2.505v-0.41749h-0.41749v-0.4175l-0.4175-0.4175v-0.4175 0.4175l0.4175 0.4175v0.4175l0.41749 0.41749v0.4175l0.4175 0.4175h0.835l0.4175 0.4175h0.835l0.4175-0.4175h0.835l0.4175-0.4175h0.41749l0.4175-0.4175 0.835-0.41749 0.4175-0.4175 0.4175-0.4175 0.835-0.4175v-0.835" fill="#c8102e"/></g><path d="m198.07 184.69h-0.4175l-0.4175 0.835-1.2525 0.4175-0.4175 0.4175-0.4175 0.4175-0.835 0.41749h-2.505v-0.41749h-0.41749v-0.4175l-0.4175-0.4175v-0.4175 0.4175l0.4175 0.4175v0.4175l0.41749 0.41749v0.4175l0.4175 0.4175h0.835l0.4175 0.4175h0.835l0.4175-0.4175h0.835l0.4175-0.4175h0.41749l0.4175-0.4175 0.835-0.41749 0.4175-0.4175 0.4175-0.4175 0.835-0.4175v-0.835z" fill="none" stroke="#c8102e" stroke-linecap="round" stroke-miterlimit="10" stroke-width=".30423"/><g><path d="m201.41 193.87-3.7575 4.175-2.505-3.7575-1.2525 1.67 7.515 11.69 7.0975-11.69-1.2525-1.67-2.505 3.7575" fill="#c8102e"/><path d="m201.41 193.87-3.7575 4.175-2.505-3.7575-1.2525 1.67 7.515 11.69 7.0975-11.69-1.2525-1.67-2.505 3.7575-3.34-4.175" fill="#c8102e"/><path d="m196.82 182.6l-0.4175 0.4175h-0.41749l-0.4175 0.4175-0.4175 0.835-0.4175 0.4175h-0.4175v0.4175l-0.4175 0.4175v0.4175l0.4175-0.4175h0.4175l0.4175-0.4175h0.835l0.41749-0.4175h1.67" fill="#20201e"/></g><path d="m196.82 182.6v0l-0.4175 0.4175h-0.41749l-0.4175 0.4175-0.4175 0.835-0.4175 0.4175h-0.4175v0.4175l-0.4175 0.4175v0.4175l0.4175-0.4175h0.4175l0.4175-0.4175h0.835l0.41749-0.4175h1.67" fill="none" stroke="#000" stroke-linecap="round" stroke-miterlimit="10" stroke-width=".6085"/><g fill="#20201e"><path d="m196.4 187.61h2.0875l0.835 2.505 1.67-2.505 1.2525 3.7575 1.67-5.845 2.505 4.175 0.4175-0.4175v-0.835l0.4175-0.835v-2.505l-0.4175-0.4175-0.4175-0.4175h0.4175l0.4175 0.4175h0.4175l0.4175 0.4175h0.4175-0.4175v-0.835l-0.4175-0.4175v-0.4175l-0.4175-0.4175h0.4175l1.67 0.4175h2.0875l0.4175 0.4175-0.835-0.4175-0.83499-0.4175-0.835-0.83499-1.67-0.4175-0.4175-0.4175h-0.835l-0.83499-0.4175h-2.0875v-1.2525h-0.4175l-0.4175-0.4175h-3.7575 2.0875l0.41749 0.4175h0.4175v0.835l-0.4175 0.4175h-0.83499l-1.67 0.4175-1.2525 0.835h-0.835v0.41749l0.4175 0.4175 0.4175 0.4175v0.4175l0.4175 0.4175v0.4175l-0.4175 0.835v0.4175l-0.4175 0.4175-0.4175 0.83499-0.4175 0.4175"/><path d="m198.07 182.6h2.9225l-1.67 0.835"/><path d="m205.58 205.98v6.68l2.0875-0.835v1.67l0.835-0.4175-2.9225 10.855-0.4175 0.4175v0.4175l-0.4175 0.4175h-0.4175v0.41749h-0.4175l-0.4175 0.4175h-0.835 0.4175l0.4175-0.4175v-0.41749h0.4175l0.4175-0.4175-0.835-0.835 0.835-0.4175 1.67-8.7675-0.83499 0.4175-1.2525 7.515h-0.4175v0.4175l-0.4175 0.4175h-0.4175l-0.4175 0.4175h-0.4175l0.4175-0.4175 0.4175-0.4175 0.4175-0.4175v-0.4175l-0.835-0.4175 0.835-0.4175 1.2525-5.4275-0.4175 0.4175v0.4175l-0.4175 0.4175-0.4175 0.4175h-0.835 0.4175v-0.4175l0.4175-0.835 0.4175-0.4175v-0.41749l0.4175-0.4175v-0.835l-0.4175-0.4175h0.4175v0.4175h0.4175l-0.835-5.4275"/><path d="m197.23 205.98v6.68l-2.0875-0.835-0.4175 1.67-0.4175-0.4175 2.9225 10.855v0.4175l0.4175 0.4175v0.4175h0.4175l0.4175 0.41749h0.4175l0.4175 0.4175h0.4175l-0.4175-0.4175-0.4175-0.41749h-0.4175v-0.4175h-0.4175l0.835-0.835-0.4175-0.4175-1.67-8.7675 0.835 0.4175 1.2525 7.515 0.4175 0.4175v0.4175h0.835l0.4175 0.4175h0.4175-0.4175l-0.4175-0.4175v-0.4175h-0.4175v-0.835l0.4175-0.4175-0.4175-0.4175-1.2525-5.4275v0.4175l0.4175 0.4175 0.4175 0.4175v0.4175h1.2525-0.4175l-0.4175-0.4175-0.4175-0.835-0.4175-0.4175v-2.0875l-0.4175 0.4175 0.835-5.01"/></g><g><path d="m226.46 251.07h12.942v-16.282h37.575v41.75l-12.525 20.875h-12.525l-25.467-5.4275" fill="#ffc72c"/><path d="m226.46 302.42 25.467-5.4275-25.467-5.4275" fill="#002855"/><path d="m226.88 302.42-25.467-5.4275 25.467-5.4275" fill="#ffc72c"/><path d="m226.88 172.16-0.4175 47.177h12.942v15.447h37.575v-62.625" fill="#002855"/><path d="m226.88 251.07h-12.942v-16.282h-37.575v41.75l12.525 20.875h12.525l25.467-5.4275" fill="#002855"/><path d="m279.06 169.66v108.13l-13.36 22.127h-13.36l-25.467 5.4275-25.885-5.4275h-13.36l-13.36-22.127v-108.13zm1.2525-0.835h-106.88v109.38l13.36 22.545h13.777l26.302 5.4275 25.885-5.4275h13.777l13.777-22.545v-109.38" fill="#20201e"/><path d="m276.14 173v103.12l-12.107 20.457h-12.107l-25.05 5.4275-25.05-5.4275h-12.525l-12.107-20.457v-103.12zm0.835-0.83499h-100.62v104.37l12.525 20.875h12.525l25.467 5.4275 25.05-5.4275h12.525l12.525-20.875v-104.37" fill="#20201e"/></g><g fill="none" stroke="#20201e" stroke-linecap="round" stroke-miterlimit="10"><path d="m226.88 289.48v12.942" stroke-width=".81133"/><g stroke-width="2.8397"><path d="m226.88 291.15v-40.497"/><path d="m226.88 220.17v-46.76"/><path d="m275.31 234.79h-35.905"/><path d="m213.93 234.79h-35.905"/></g></g><g><g><path d="m177.61 231.03 10.02 3.7575-10.02 3.7575" fill="#ffc72c"/><path d="m178.03 231.45 8.35 3.34-8.35 3.34v-3.34zm-0.835-1.2525v9.185l1.2525-0.4175 8.35-3.34 1.67-0.83499-1.67-0.835-8.35-3.34-1.2525-0.4175" fill="#20201e"/><path d="m266.12 234.79 9.6025-3.7575v7.515" fill="#002855"/><path d="m275.31 231.45v6.68l-8.35-3.34zm0.835-1.2525-0.835 0.4175-8.7675 3.34-1.67 0.835 1.67 0.83499 8.7675 3.34 0.835 0.4175v-9.185" fill="#20201e"/><path d="m238.98 232.7 7.9325 2.0875-7.9325 2.505" fill="#ffc72c"/><path d="m239.4 233.12 6.2625 1.67-6.2625 1.67v-1.67zm-0.83499-1.2525v5.845l0.83499-0.4175 6.2625-1.67 2.9225-0.83499-2.9225-0.835-6.2625-1.67-0.83499-0.4175" fill="#20201e"/><path d="m206.84 234.79 7.9325-2.0875v4.5925" fill="#002855"/><path d="m214.35 233.12v3.34l-6.2625-1.67zm0.835-1.2525-0.835 0.4175-6.2625 1.67-2.9225 0.835 2.9225 0.83499 6.2625 1.67 0.835 0.4175v-5.845" fill="#20201e"/><path d="m222.7 173.41h7.9325l-3.7575 9.6025" fill="#002855"/><path d="m230.22 173.83-3.34 8.35-3.34-8.35h3.34zm0.835-0.835h-8.7675l0.4175 1.2525 3.34 8.35 0.835 1.67 0.4175-1.67 3.34-8.35 0.4175-1.2525" fill="#20201e"/><path d="m275.72 173.83v102.29l-12.107 19.622h-11.69l-25.05-5.4275h-0.4175l-25.05 5.4275h-11.69l-11.69-19.622v-102.29zm1.2525-1.67h-100.62v104.37l12.525 20.875h12.525l25.467-5.4275 25.05 5.4275h12.525l12.525-20.875v-104.37" fill="#20201e"/></g><path d="m215.19 249.82h23.38v-29.225h-23.38z" fill="#c8102e" fill-rule="evenodd"/><path d="m237.73 221.43v27.555h-21.71v-27.555zm1.67-2.0875h-25.467v31.73h25.467v-31.73" fill="#20201e"/><path d="m219.78 244.39 2.9225-6.68v-0.4175h-0.4175l-4.5925 9.185 8.35-6.68-0.835-0.41749" fill="#20201e"/></g><path d="m219.78 244.39 2.9225-6.68v-0.4175h-0.4175v0l-4.5925 9.185 8.35-6.68v0l-0.835-0.41749z" fill="none" stroke="#20201e" stroke-linecap="round" stroke-miterlimit="10" stroke-width=".050684"/><path d="m233.97 226.44-3.34 6.2625l0.4175 0.4175 5.01-9.185-8.35 6.68 0.835 0.4175" fill="#20201e"/><path d="m233.97 226.44-3.34 6.2625v0l0.4175 0.4175v0l5.01-9.185-8.35 6.68v0l0.835 0.4175z" fill="none" stroke="#20201e" stroke-linecap="round" stroke-miterlimit="10" stroke-width=".050684"/><path d="m226.88 231.45h1.2525l0.4175 0.4175 0.835 0.4175 0.4175 0.4175 0.41749 0.4175 0.4175 0.4175v2.9225l-0.4175 0.4175v0.4175l-0.41749 0.4175h-0.4175v0.4175l-0.4175 0.4175h-0.4175l-0.4175 0.4175h-2.505l-0.83499-0.4175-0.4175-0.4175-0.4175-0.4175-0.4175-0.4175v-0.4175h-0.4175v-3.34h0.4175v-0.835l0.4175-0.4175h0.4175l0.4175-0.4175 0.41749-0.4175h1.2525zm0-1.2525h-1.2525l-0.4175 0.4175h-0.41749l-0.4175 0.4175-0.4175 0.4175-0.4175 0.4175-0.4175 0.4175-0.4175 0.4175-0.4175 0.4175v0.4175l-0.4175 0.4175v2.0875l0.4175 0.4175v0.4175l0.4175 0.835 0.4175 0.4175 0.4175 0.4175v0.4175l0.4175 0.4175h0.4175l0.4175 0.41749h1.2525l0.4175 0.4175h0.4175l0.4175-0.4175h1.2525l0.4175-0.41749h0.4175l0.4175-0.4175 0.41749-0.4175 0.4175-0.4175 0.4175-0.4175v-0.4175l0.4175-0.4175v-0.835l0.4175-0.4175v-0.83499l-0.4175-0.4175v-1.2525l-0.4175-0.4175v-0.4175l-0.4175-0.4175-0.4175-0.4175h-0.41749l-0.4175-0.4175h-0.4175v-0.4175h-0.835l-0.4175-0.4175h-0.835" fill="#20201e"/><path d="m225.62 234.37l-0.4175 0.4175v0.83499l0.4175 0.4175 0.4175 0.4175h0.4175l0.4175 0.4175 0.4175-0.4175h0.4175l0.4175-0.4175v-0.4175l0.4175-0.4175v-0.41749h-0.4175v-0.4175l-0.4175-0.4175-0.4175-0.4175h-0.835l-0.4175 0.4175h-0.4175v0.4175" fill="#20201e"/><path d="m225.62 234.37v0l-0.4175 0.4175v0.83499l0.4175 0.4175v0l0.4175 0.4175h0.4175l0.4175 0.4175v0l0.4175-0.4175h0.4175v0l0.4175-0.4175v-0.4175l0.4175-0.4175v-0.41749h-0.4175v-0.4175l-0.4175-0.4175v0l-0.4175-0.4175h-0.835v0l-0.4175 0.4175h-0.4175z" fill="none" stroke="#20201e" stroke-linecap="round" stroke-miterlimit="10" stroke-width=".10141"/><path d="m250.26 282.38h-7.0975l-0.835 1.67-0.835-1.67-1.2525 1.2525v-1.67h-0.835l-0.41749 0.4175-0.4175 0.4175-0.4175 0.83499-0.835 0.835-0.4175 0.4175v0.4175-1.67l0.4175-0.83499v-0.4175l0.4175-0.4175 0.4175-1.2525 0.835-0.835 0.41749-0.835 0.4175-0.4175h-0.83499l-0.4175 0.4175h-0.835l-0.835 0.4175-0.4175 0.4175v-0.4175l0.4175-0.4175 0.4175-0.835 0.4175-0.41749 0.4175-0.4175 0.4175-0.4175 0.4175-0.4175 0.83499-0.4175 0.835-0.4175 0.835-0.835 1.2525-0.4175-0.835 2.0875 1.2525 1.2525 2.9225 0.41749 0.835-0.41749-2.505-4.5925 11.272-5.01 1.2525 1.2525-7.515 5.01 1.67 1.67-0.4175 3.34" fill="#c8102e"/><path d="m250.26 282.38h-7.0975l-0.835 1.67-0.835-1.67-1.2525 1.2525v-1.67h-0.835l-0.41749 0.4175-0.4175 0.4175-0.4175 0.83499-0.835 0.835-0.4175 0.4175v0.4175-1.67l0.4175-0.83499v-0.4175l0.4175-0.4175 0.4175-1.2525 0.835-0.835 0.41749-0.835 0.4175-0.4175h-0.83499l-0.4175 0.4175h-0.835l-0.835 0.4175-0.4175 0.4175v-0.4175l0.4175-0.4175 0.4175-0.835 0.4175-0.41749 0.4175-0.4175 0.4175-0.4175 0.4175-0.4175 0.83499-0.4175 0.835-0.4175 0.835-0.835 1.2525-0.4175-0.835 2.0875 1.2525 1.2525 2.9225 0.41749 0.835-0.41749-2.505-4.5925 11.272-5.01v0l1.2525 1.2525-7.515 5.01 1.67 1.67-0.4175 3.34z" fill="none" stroke="#20201e" stroke-linecap="round" stroke-miterlimit="10" stroke-width=".81133"/><path d="m250.67 248.56v0.4175l-0.4175 0.41749-0.835 0.4175-0.4175 0.4175-0.83499 0.4175h-1.2525v-0.4175h-0.4175l-0.4175-0.4175-0.4175-0.4175-0.4175-0.41749h-0.4175l-0.4175-0.4175h-0.83499l-0.4175 0.4175h-0.4175v0.83499h0.4175v-0.4175h0.4175v0.4175h0.83499l0.4175 0.4175 0.4175 0.4175 0.4175 0.4175h0.4175v0.4175h3.34l0.835-0.4175 0.835-0.4175 0.835-0.4175 0.4175-0.4175 0.4175-0.4175v-0.41749h-0.4175" fill="#c8102e"/><path d="m250.67 248.56v0.4175l-0.4175 0.41749-0.835 0.4175-0.4175 0.4175v0l-0.83499 0.4175h-1.2525v-0.4175h-0.4175v0l-0.4175-0.4175-0.4175-0.4175-0.4175-0.41749h-0.4175l-0.4175-0.4175h-0.83499l-0.4175 0.4175h-0.4175v0.83499h0.4175v-0.4175h0.4175v0.4175h0.83499l0.4175 0.4175 0.4175 0.4175 0.4175 0.4175h0.4175v0.4175h3.34v0l0.835-0.4175 0.835-0.4175 0.835-0.4175 0.4175-0.4175v0l0.4175-0.4175v-0.41749h-0.4175v0z" fill="none" stroke="#c8102e" stroke-linecap="round" stroke-miterlimit="10" stroke-width=".81133"/><path d="m251.93 284.47l-0.4175-0.4175h-0.4175v-0.4175h-0.4175l-0.4175 0.4175-2.0875 1.2525-0.835 0.835-1.2525 0.835-0.835 0.4175v0.41749l-0.4175 0.4175 0.4175-0.4175 0.4175-0.41749h0.4175l0.835-0.4175 0.4175-0.4175h1.67" fill="#c8102e"/><path d="m251.93 284.47v0l-0.4175-0.4175h-0.4175v-0.4175h-0.4175v0l-0.4175 0.4175-2.0875 1.2525-0.835 0.835-1.2525 0.835-0.835 0.4175v0.41749l-0.4175 0.4175v0l0.4175-0.4175 0.4175-0.41749h0.4175l0.835-0.4175 0.4175-0.4175h1.67" fill="none" stroke="#20201e" stroke-linecap="round" stroke-miterlimit="10" stroke-width=".81133"/><path d="m251.51 286.97-0.4175-0.4175h-0.4175l-1.2525 0.4175-0.4175 0.4175h-0.41749l-0.4175 0.41749h-0.4175l0.4175-0.41749 1.2525-1.2525 0.835-0.4175 0.835-0.835 1.2525-0.4175 0.835-0.4175 1.2525 0.4175" fill="#c8102e"/><path d="m251.51 286.97-0.4175-0.4175h-0.4175l-1.2525 0.4175-0.4175 0.4175h-0.41749l-0.4175 0.41749h-0.4175v0l0.4175-0.41749 1.2525-1.2525 0.835-0.4175 0.835-0.835 1.2525-0.4175 0.835-0.4175 1.2525 0.4175" fill="none" stroke="#20201e" stroke-linecap="round" stroke-miterlimit="10" stroke-width=".81133"/><path d="m263.62 288.23h-9.6025l-0.41749-1.67-0.4175 0.4175-0.835 0.4175h-0.4175l-0.4175 0.41749-0.4175 0.4175h-0.4175l0.4175-0.4175v-0.41749l0.4175-0.4175 0.835-0.835 0.4175-0.4175 0.4175-0.4175 0.83499-0.4175 0.4175-0.4175 0.4175-0.4175 1.67 0.835 4.5925-1.2525 0.4175-1.2525 0.4175 0.83499 0.4175-2.0875 0.835 1.2525 0.41749-2.505 0.4175 0.835" fill="#c8102e"/><path d="m263.62 288.23h-9.6025l-0.41749-1.67v0l-0.4175 0.4175-0.835 0.4175h-0.4175l-0.4175 0.41749-0.4175 0.4175h-0.4175v0l0.4175-0.4175v-0.41749l0.4175-0.4175 0.835-0.835v0l0.4175-0.4175 0.4175-0.4175 0.83499-0.4175 0.4175-0.4175 0.4175-0.4175 1.67 0.835 4.5925-1.2525 0.4175-1.2525 0.4175 0.83499 0.4175-2.0875 0.835 1.2525 0.41749-2.505 0.4175 0.835z" fill="none" stroke="#20201e" stroke-linecap="round" stroke-miterlimit="10" stroke-width=".81133"/><path d="m253.18 263.18 2.9225-0.4175-2.9225 0.4175" fill="#fff"/><path d="m253.18 263.18 2.9225-0.4175z" fill="none" stroke="#20201e" stroke-linecap="round" stroke-miterlimit="10" stroke-width=".81133"/><path d="m267.79 266.93-1.2525-4.175h0.4175l0.4175-0.4175h2.0875v-0.4175l-0.4175-0.4175-0.4175-0.4175h-0.83499l-0.835-0.4175 0.835-3.34-3.7575 4.5925 2.505 8.7675-2.0875 2.0875-2.505-4.5925-0.4175 1.2525 1.2525 3.7575-0.4175 0.83499 2.505 1.67 0.835-1.67 3.34-2.0875-0.835-2.9225" fill="#c8102e"/><path d="m267.79 266.93-1.2525-4.175h0.4175l0.4175-0.4175h2.0875v-0.4175l-0.4175-0.4175-0.4175-0.4175h-0.83499l-0.835-0.4175v0l0.835-3.34-3.7575 4.5925 2.505 8.7675-2.0875 2.0875-2.505-4.5925-0.4175 1.2525 1.2525 3.7575-0.4175 0.83499 2.505 1.67 0.835-1.67 3.34-2.0875-0.835-2.9225z" fill="none" stroke="#20201e" stroke-linecap="round" stroke-miterlimit="10" stroke-width=".81133"/><path d="m241.07 264.85-1.2525-1.67h-0.83499l-0.4175 0.4175-0.4175 0.41749-0.4175 0.4175-0.4175 0.4175-0.4175 0.4175v0.835-0.4175l0.835-0.4175h1.2525l-0.835 0.835v0.4175l-0.4175 0.4175-0.4175 0.4175v0.4175l0.4175-0.4175 0.4175-0.4175 0.4175-0.4175h0.83499l-0.41749 0.4175-0.4175 0.4175v0.835l-0.4175 0.41749v0.835-0.4175l0.4175-0.4175 0.4175-0.41749 0.41749-0.4175h0.4175l0.4175 0.83499 0.4175 0.835v0.4175l0.4175 0.4175 0.4175-1.67 1.67 2.0875 0.4175-1.67 2.0875-0.4175 6.68-1.2525-2.9225-2.0875v-0.835l3.7575-1.2525-7.0975 1.2525" fill="#c8102e"/><path d="m241.07 264.85-1.2525-1.67h-0.83499l-0.4175 0.4175-0.4175 0.41749-0.4175 0.4175-0.4175 0.4175-0.4175 0.4175v0.835-0.4175l0.835-0.4175h1.2525v0l-0.835 0.835v0.4175l-0.4175 0.4175-0.4175 0.4175v0.4175l0.4175-0.4175 0.4175-0.4175v0l0.4175-0.4175h0.83499v0l-0.41749 0.4175-0.4175 0.4175v0.835l-0.4175 0.41749v0.835-0.4175l0.4175-0.4175 0.4175-0.41749 0.41749-0.4175h0.4175v0l0.4175 0.83499 0.4175 0.835v0.4175l0.4175 0.4175 0.4175-1.67 1.67 2.0875 0.4175-1.67 2.0875-0.4175 6.68-1.2525-2.9225-2.0875v-0.835l3.7575-1.2525v0l-7.0975 1.2525z" fill="none" stroke="#20201e" stroke-linecap="round" stroke-miterlimit="10" stroke-width=".81133"/><path d="m261.95 276.12 0.4175-2.0875 0.4175-0.83499-1.2525-3.7575 0.4175-1.2525-1.2525-4.5925-0.4175 0.83499-0.835-5.01-1.67 0.835-0.4175 1.2525-0.4175 0.4175-0.835 0.835-2.9225 0.4175-3.7575 1.2525v0.835l2.9225 2.0875 2.0875 1.2525 0.835 0.835 0.4175 0.835-6.68 4.175 1.67 1.67 7.0975 5.845v2.505h3.7575l1.67-1.2525 0.83499-2.0875v-1.67l0.835-0.835h-2.0875" fill="#c8102e"/><path d="m261.95 276.12 0.4175-2.0875 0.4175-0.83499-1.2525-3.7575 0.4175-1.2525-1.2525-4.5925-0.4175 0.83499-0.835-5.01-1.67 0.835-0.4175 1.2525-0.4175 0.4175-0.835 0.835-2.9225 0.4175-3.7575 1.2525v0.835l2.9225 2.0875 2.0875 1.2525 0.835 0.835 0.4175 0.835-6.68 4.175 1.67 1.67 7.0975 5.845v2.505h3.7575l1.67-1.2525 0.83499-2.0875v-1.67l0.835-0.835h-2.0875z" fill="none" stroke="#20201e" stroke-linecap="round" stroke-miterlimit="10" stroke-width=".81133"/><path d="m262.36 249.82-0.835-1.67v-0.835l0.4175-0.835 1.2525-0.4175-0.4175-0.4175-3.7575 1.2525 2.0875 2.9225-6.68 2.0875-2.0875-2.0875-0.835 0.4175-1.2525 0.835h-0.4175l-0.4175 0.4175 0.4175 0.4175 0.4175 0.4175 0.4175 0.4175h0.4175l-0.4175 0.4175v0.4175h-0.4175l-0.4175 0.4175h-0.835 0.4175l0.4175 0.41749h0.4175l0.4175-0.41749h0.835l0.4175-0.4175v1.2525l-0.4175 0.4175v0.835l-0.4175 0.4175h1.2525l0.4175-0.4175h0.4175l0.4175-0.4175h0.41749v1.67l-7.0975 2.0875-0.835-3.34v-0.835l-0.4175-0.835v-0.41749l-0.4175-0.4175h-0.4175l-0.4175-0.4175-0.41749-0.4175v-0.4175h-0.835l-0.835-0.4175h-2.0875 0.4175l0.4175 0.4175 0.4175 0.4175 0.4175 0.4175 0.4175 0.4175 0.4175 0.4175h-2.0875l-1.2525 0.41749h-0.41749l-0.4175 0.4175h-0.4175l-0.4175 0.4175h-0.4175l-0.4175 0.4175h4.5925l-0.4175 0.4175h-1.2525l-0.4175 0.4175h-0.41749l-0.4175 0.4175-0.4175 0.4175v0.4175h-0.4175 1.2525l0.41749-0.4175h2.505l-0.4175 0.4175-0.835 0.4175-0.835 0.4175v0.41749h-0.4175l-0.41749 0.4175-0.4175 0.4175-0.4175 0.4175-0.4175 0.835v1.2525l0.4175-0.835 0.4175-0.4175 0.83499-0.835 0.4175-0.4175h0.835l0.4175-0.4175h0.4175l0.4175-0.4175h1.2525l0.4175 0.4175 1.67 6.2625 10.855-2.9225 0.835 2.9225 2.0875-5.845 1.2525 4.5925 2.9225-8.35 1.67 1.67v-4.5925l3.7575 1.2525" fill="#c8102e"/><path d="m262.36 249.82-0.835-1.67v-0.835l0.4175-0.835 1.2525-0.4175-0.4175-0.4175-3.7575 1.2525 2.0875 2.9225-6.68 2.0875-2.0875-2.0875v0l-0.835 0.4175-1.2525 0.835h-0.4175l-0.4175 0.4175v0l0.4175 0.4175 0.4175 0.4175 0.4175 0.4175h0.4175v0l-0.4175 0.4175v0.4175h-0.4175l-0.4175 0.4175h-0.835 0.4175l0.4175 0.41749h0.4175l0.4175-0.41749h0.835l0.4175-0.4175v1.2525l-0.4175 0.4175v0.835l-0.4175 0.4175h1.2525l0.4175-0.4175h0.4175l0.4175-0.4175h0.41749v1.67l-7.0975 2.0875-0.835-3.34v-0.835l-0.4175-0.835v-0.41749l-0.4175-0.4175h-0.4175l-0.4175-0.4175-0.41749-0.4175v-0.4175h-0.835l-0.835-0.4175h-2.0875 0.4175l0.4175 0.4175 0.4175 0.4175 0.4175 0.4175 0.4175 0.4175 0.4175 0.4175h-2.0875l-1.2525 0.41749h-0.41749l-0.4175 0.4175h-0.4175l-0.4175 0.4175h-0.4175l-0.4175 0.4175h4.5925v0l-0.4175 0.4175h-1.2525l-0.4175 0.4175h-0.41749l-0.4175 0.4175-0.4175 0.4175v0.4175h-0.4175 1.2525l0.41749-0.4175h2.505v0l-0.4175 0.4175-0.835 0.4175-0.835 0.4175v0.41749h-0.4175l-0.41749 0.4175-0.4175 0.4175-0.4175 0.4175-0.4175 0.835v1.2525l0.4175-0.835 0.4175-0.4175 0.83499-0.835 0.4175-0.4175h0.835l0.4175-0.4175h0.4175l0.4175-0.4175h1.2525l0.4175 0.4175 1.67 6.2625 10.855-2.9225 0.835 2.9225 2.0875-5.845 1.2525 4.5925 2.9225-8.35 1.67 1.67v-4.5925l3.7575 1.2525z" fill="none" stroke="#20201e" stroke-linecap="round" stroke-miterlimit="10" stroke-width=".81133"/><path d="m262.36 249.82 4.5925-1.2525-5.01-2.0875 4.175-1.2525-7.9325-0.83499 0.41749-0.835h-3.34l-0.4175 0.4175h-1.2525l-0.835 0.4175-0.835 0.41749-0.835 0.4175-3.34 1.2525-0.4175-0.4175-0.835 2.0875 0.835 0.835v0.41749l0.4175 0.4175h0.4175v-0.83499l1.2525-0.4175h1.67l1.2525 0.4175v0.83499l2.9225 6.2625 0.835-2.0875 1.67 3.7575 0.83499-5.4275 2.9225 3.34-0.4175-3.7575 2.505 0.835" fill="#c8102e"/><path d="m262.36 249.82 4.5925-1.2525-5.01-2.0875 4.175-1.2525-7.9325-0.83499 0.41749-0.835h-3.34l-0.4175 0.4175h-1.2525l-0.835 0.4175-0.835 0.41749-0.835 0.4175v0l-3.34 1.2525-0.4175-0.4175-0.835 2.0875 0.835 0.835v0.41749l0.4175 0.4175h0.4175v-0.83499l1.2525-0.4175h1.67l1.2525 0.4175v0.83499l2.9225 6.2625 0.835-2.0875 1.67 3.7575 0.83499-5.4275 2.9225 3.34-0.4175-3.7575 2.505 0.835z" fill="none" stroke="#20201e" stroke-linecap="round" stroke-miterlimit="10" stroke-width=".81133"/><path d="m251.51 245.22h0.4175l0.4175 0.4175 0.4175 0.4175 0.4175-0.4175h0.83499l0.4175-0.4175" fill="#262425"/><path d="m258.61 244.39-1.2525 0.83499h-5.845 0.4175l0.4175 0.4175 0.4175 0.4175v0l0.4175-0.4175h0.83499l0.4175-0.4175" fill="none" stroke="#20201e" stroke-linecap="round" stroke-miterlimit="10" stroke-width=".81133"/><path d="m252.76 215.16h-0.4175l-1.2525 2.505v5.01l1.2525-3.34 1.67 3.34v-5.01" fill="#ffc72c"/><path d="m252.76 215.16h-0.4175v0l-1.2525 2.505v5.01l1.2525-3.34 1.67 3.34v-5.01z" fill="none" stroke="#ffc72c" stroke-linecap="round" stroke-miterlimit="10" stroke-width=".050684"/><path d="m254.01 188.86-1.67-7.9325-1.2525 7.9325" fill="#ffc72c"/><path d="m254.01 188.86-1.67-7.9325-1.2525 7.9325z" fill="none" stroke="#ffc72c" stroke-linecap="round" stroke-miterlimit="10" stroke-width=".050684"/><path d="m246.08 213.49l-2.505 1.67-2.0875 4.175 2.9225-2.0875-0.41749 3.7575 2.0875-4.175 0.4175-3.34" fill="#ffc72c"/><path d="m246.08 213.49v0l-2.505 1.67-2.0875 4.175 2.9225-2.0875-0.41749 3.7575 2.0875-4.175 0.4175-3.34z" fill="none" stroke="#ffc72c" stroke-linecap="round" stroke-miterlimit="10" stroke-width=".050684"/><path d="m259.86 190.95 2.505-7.515-5.01 6.2625" fill="#ffc72c"/><path d="m259.86 190.95 2.505-7.515-5.01 6.2625z" fill="none" stroke="#ffc72c" stroke-linecap="round" stroke-miterlimit="10" stroke-width=".050684"/><path d="m241.49 209.32-0.4175-0.4175-2.9225 0.835-3.7575 2.505 3.34-0.835-2.0875 3.34 4.175-2.9225 1.67-2.505" fill="#ffc72c"/><path d="m241.49 209.32-0.4175-0.4175-2.9225 0.835-3.7575 2.505 3.34-0.835-2.0875 3.34 4.175-2.9225z" fill="none" stroke="#ffc72c" stroke-linecap="round" stroke-miterlimit="10" stroke-width=".050684"/><path d="m270.71 212.24-4.175-2.505-2.9225-0.835v0.4175h-0.41749l1.67 2.505 4.175 2.9225-2.0875-3.34" fill="#ffc72c"/><path d="m270.71 212.24-4.175-2.505-2.9225-0.835v0.4175h-0.41749l1.67 2.505 4.175 2.9225-2.0875-3.34z" fill="none" stroke="#ffc72c" stroke-linecap="round" stroke-miterlimit="10" stroke-width=".050684"/><path d="m242.32 193.45-7.515-3.34 5.845 5.4275" fill="#ffc72c"/><path d="m242.32 193.45-7.515-3.34 5.845 5.4275z" fill="none" stroke="#ffc72c" stroke-linecap="round" stroke-miterlimit="10" stroke-width=".050684"/><path d="m263.62 219.34-2.0875-4.175-2.505-1.67h-0.4175v3.34l2.505 4.175-0.4175-3.7575" fill="#ffc72c"/><path d="m263.62 219.34-2.0875-4.175-2.505-1.67h-0.4175v3.34l2.505 4.175-0.4175-3.7575z" fill="none" stroke="#ffc72c" stroke-linecap="round" stroke-miterlimit="10" stroke-width=".050684"/><path d="m247.75 189.7-5.01-6.2625 2.505 7.515" fill="#ffc72c"/><path d="m247.75 189.7-5.01-6.2625 2.505 7.515z" fill="none" stroke="#ffc72c" stroke-linecap="round" stroke-miterlimit="10" stroke-width=".050684"/><path d="m264.03 195.54 5.845-5.4275-7.515 3.34" fill="#ffc72c"/><path d="m264.03 195.54 5.845-5.4275-7.515 3.34z" fill="none" stroke="#ffc72c" stroke-linecap="round" stroke-miterlimit="10" stroke-width=".050684"/><path d="m252.34 205.98v9.185h0.4175v-9.185h-0.4175" fill="#ffc72c"/><path d="m252.34 205.98v9.185h0.4175v-9.185z" fill="none" stroke="#ffc72c" stroke-linecap="round" stroke-miterlimit="10" stroke-width=".6085"/><path d="m252.76 197.63v-10.437h-0.4175v10.437h0.4175" fill="#ffc72c"/><path d="m252.76 197.63v-10.437h-0.4175v10.437z" fill="none" stroke="#ffc72c" stroke-linecap="round" stroke-miterlimit="10" stroke-width=".6085"/><path d="m259.44 189.28-0.4175-0.4175-5.01 9.185l0.4175 0.4175" fill="#ffc72c"/><path d="m259.44 189.28-0.4175-0.4175-5.01 9.185v0l0.4175 0.4175z" fill="none" stroke="#ffc72c" stroke-linecap="round" stroke-miterlimit="10" stroke-width=".6085"/><path d="m246.08 213.49h0.4175l4.175-7.9325-0.4175-0.4175" fill="#ffc72c"/><path d="m246.08 213.49h0.4175l4.175-7.9325v0l-0.4175-0.4175z" fill="none" stroke="#ffc72c" stroke-linecap="round" stroke-miterlimit="10" stroke-width=".6085"/><path d="m241.07 208.9 0.4175 0.4175 7.515-5.01v-0.4175" fill="#ffc72c"/><path d="m241.07 208.9 0.4175 0.4175 7.515-5.01v-0.4175z" fill="none" stroke="#ffc72c" stroke-linecap="round" stroke-miterlimit="10" stroke-width=".6085"/><path d="m264.45 193.87v-0.4175l-8.7675 5.845 0.4175 0.4175" fill="#ffc72c"/><path d="m264.45 193.87v-0.4175l-8.7675 5.845v0l0.4175 0.4175z" fill="none" stroke="#ffc72c" stroke-linecap="round" stroke-miterlimit="10" stroke-width=".6085"/><path d="m249 199.3l-8.35-5.845-0.4175 0.4175 8.7675 5.845v-0.4175" fill="#ffc72c"/><path d="m249 199.3v0l-8.35-5.845-0.4175 0.4175 8.7675 5.845z" fill="none" stroke="#ffc72c" stroke-linecap="round" stroke-miterlimit="10" stroke-width=".6085"/><path d="m255.68 204.31 7.515 5.01 0.41749-0.4175-7.515-5.01v0.4175h-0.4175" fill="#ffc72c"/><path d="m255.68 204.31 7.515 5.01 0.41749-0.4175-7.515-5.01v0.4175z" fill="none" stroke="#ffc72c" stroke-linecap="round" stroke-miterlimit="10" stroke-width=".6085"/><path d="m245.66 188.86-0.4175 0.4175 5.01 9.185l0.4175-0.4175" fill="#ffc72c"/><path d="m245.66 188.86-0.4175 0.4175 5.01 9.185v0l0.4175-0.4175z" fill="none" stroke="#ffc72c" stroke-linecap="round" stroke-miterlimit="10" stroke-width=".6085"/><path d="m254.43 205.56h-0.4175l4.5925 7.9325h0.4175l-4.5925-8.35v0.4175" fill="#ffc72c"/><path d="m254.43 205.56h-0.4175v0l4.5925 7.9325h0.4175l-4.5925-8.35z" fill="none" stroke="#ffc72c" stroke-linecap="round" stroke-miterlimit="10" stroke-width=".6085"/><path d="m248.59 200.55v-0.835l-8.7675 2.0875 8.7675 2.0875v-0.835" fill="#ffc72c"/><path d="m248.59 200.55v-0.835l-8.7675 2.0875 8.7675 2.0875v-0.835" fill="none" stroke="#ffc72c" stroke-linecap="round" stroke-miterlimit="10" stroke-width=".20282"/><path d="m256.1 203.06v0.835l8.7675-2.0875-8.7675-1.67v0.4175" fill="#ffc72c"/><path d="m256.1 203.06v0.835l8.7675-2.0875-8.7675-1.67v0.4175" fill="none" stroke="#ffc72c" stroke-linecap="round" stroke-miterlimit="10" stroke-width=".20282"/><path d="m252.34 198.46h1.2525v0.4175h0.83499v0.4175h0.4175v0.4175l0.4175 0.4175 0.4175 0.4175v2.505l-0.4175 0.4175v0.4175h-0.4175v0.4175h-0.4175v0.4175h-0.83499v0.4175h-2.0875l-0.4175-0.4175h-0.4175l-0.4175-0.4175-0.4175-0.4175-0.4175-0.4175v-0.835h-0.4175v-1.67h0.4175v-0.835h0.4175v-0.4175l0.4175-0.4175 0.4175-0.4175h0.4175l0.4175-0.4175h0.4175zm0-0.835h-0.835l-0.4175 0.4175h-0.4175l-0.4175 0.4175h-0.4175l-0.4175 0.4175v0.4175h-0.4175v0.4175l-0.41749 0.4175v0.835l-0.4175 0.4175v0.83499l0.4175 0.4175v0.835l0.41749 0.4175v0.4175h0.4175v0.4175l0.4175 0.4175h0.4175l0.4175 0.4175 0.4175 0.4175h2.505l0.41749-0.4175h0.4175l0.4175-0.4175h0.4175v-0.4175l0.4175-0.4175h0.4175v-0.835l0.4175-0.4175v-2.505l-0.4175-0.4175v-0.835h-0.4175l-0.4175-0.4175v-0.4175h-0.4175l-0.4175-0.4175h-0.83499l-0.4175-0.4175h-0.835" fill="#ffc72c"/><path d="m252.34 200.13h-0.4175l-0.4175 0.4175h-0.4175v0.4175h-0.4175v1.67h0.4175v0.4175h0.4175l0.4175 0.4175h1.2525l0.4175-0.4175 0.41749-0.4175v-1.67l-0.41749-0.4175-0.4175-0.4175h-0.835" fill="#ffc72c"/><path d="m252.34 200.13h-0.4175v0l-0.4175 0.4175h-0.4175v0.4175h-0.4175v1.67h0.4175v0.4175h0.4175l0.4175 0.4175h1.2525l0.4175-0.4175v0l0.41749-0.4175v-1.67l-0.41749-0.4175v0l-0.4175-0.4175z" fill="none" stroke="#ffc72c" stroke-linecap="round" stroke-miterlimit="10" stroke-width=".10141"/><path d="m198.07 184.69 2.0875-0.4175-2.0875-1.2525-1.2525-0.4175" fill="#20201e"/><path d="m201.41 277.79h-0.41749l-1.2525 2.9225v5.01l1.67-3.7575 1.2525 3.7575v-5.01" fill="#ffc72c"/><path d="m201.41 277.79h-0.41749l-1.2525 2.9225v5.01l1.67-3.7575 1.2525 3.7575v-5.01z" fill="none" stroke="#ffc72c" stroke-linecap="round" stroke-miterlimit="10" stroke-width=".050684"/><path d="m202.66 251.49-1.2525-7.9325-1.67 7.9325" fill="#ffc72c"/><path d="m202.66 251.49-1.2525-7.9325-1.67 7.9325z" fill="none" stroke="#ffc72c" stroke-linecap="round" stroke-miterlimit="10" stroke-width=".050684"/><path d="m195.15 276.54-0.4175-0.4175-2.505 2.0875-2.0875 4.175 2.9225-2.505-0.4175 3.7575 2.0875-4.175 0.4175-2.9225" fill="#ffc72c"/><path d="m195.15 276.54-0.4175-0.4175-2.505 2.0875-2.0875 4.175 2.9225-2.505-0.4175 3.7575 2.0875-4.175z" fill="none" stroke="#ffc72c" stroke-linecap="round" stroke-miterlimit="10" stroke-width=".050684"/><path d="m208.51 253.57 2.505-7.515-5.01 6.2625" fill="#ffc72c"/><path d="m208.51 253.57 2.505-7.515-5.01 6.2625z" fill="none" stroke="#ffc72c" stroke-linecap="round" stroke-miterlimit="10" stroke-width=".050684"/><path d="m190.14 271.94l-3.34 0.4175-3.7575 2.9225 3.7575-0.835-2.0875 2.9225 3.7575-2.505 1.67-2.505" fill="#ffc72c"/><path d="m190.14 271.94v0l-3.34 0.4175-3.7575 2.9225 3.7575-0.835-2.0875 2.9225 3.7575-2.505 1.67-2.505z" fill="none" stroke="#ffc72c" stroke-linecap="round" stroke-miterlimit="10" stroke-width=".050684"/><path d="m219.36 275.28-3.7575-2.9225-2.9225-0.4175h-0.4175v0.4175l1.67 2.505 3.7575 2.505-2.0875-2.9225" fill="#ffc72c"/><path d="m219.36 275.28-3.7575-2.9225-2.9225-0.4175h-0.4175v0.4175l1.67 2.505 3.7575 2.505-2.0875-2.9225z" fill="none" stroke="#ffc72c" stroke-linecap="round" stroke-miterlimit="10" stroke-width=".050684"/><path d="m191.39 256.08-7.515-3.34 5.845 5.845" fill="#ffc72c"/><path d="m191.39 256.08-7.515-3.34 5.845 5.845z" fill="none" stroke="#ffc72c" stroke-linecap="round" stroke-miterlimit="10" stroke-width=".050684"/><path d="m212.26 282.38-2.0875-4.175-2.505-2.0875v0.4175h-0.4175l0.4175 2.9225 2.0875 4.175-0.4175-3.7575" fill="#ffc72c"/><path d="m212.26 282.38-2.0875-4.175-2.505-2.0875v0.4175h-0.4175l0.4175 2.9225 2.0875 4.175-0.4175-3.7575z" fill="none" stroke="#ffc72c" stroke-linecap="round" stroke-miterlimit="10" stroke-width=".050684"/><path d="m196.4 252.32-5.01-6.2625 2.505 7.515" fill="#ffc72c"/><path d="m196.4 252.32-5.01-6.2625 2.505 7.515z" fill="none" stroke="#ffc72c" stroke-linecap="round" stroke-miterlimit="10" stroke-width=".050684"/><path d="m213.1 258.58 5.4275-5.845-7.0975 3.34" fill="#ffc72c"/><path d="m213.1 258.58 5.4275-5.845-7.0975 3.34z" fill="none" stroke="#ffc72c" stroke-linecap="round" stroke-miterlimit="10" stroke-width=".050684"/><path d="m200.99 268.6v9.185h0.41749v-9.185h-0.41749" fill="#ffc72c"/><path d="m200.99 268.6v9.185h0.41749v-9.185z" fill="none" stroke="#ffc72c" stroke-linecap="round" stroke-miterlimit="10" stroke-width=".6085"/><path d="m201.41 260.67v-10.437h-0.41749v10.437h0.41749" fill="#ffc72c"/><path d="m201.41 260.67v-10.437h-0.41749v10.437z" fill="none" stroke="#ffc72c" stroke-linecap="round" stroke-miterlimit="10" stroke-width=".6085"/><path d="m208.09 251.9h-0.4175l-4.5925 9.185h0.4175" fill="#ffc72c"/><path d="m208.09 251.9h-0.4175l-4.5925 9.185h0.4175z" fill="none" stroke="#ffc72c" stroke-linecap="round" stroke-miterlimit="10" stroke-width=".6085"/><path d="m194.73 276.12 0.4175 0.4175 4.175-7.9325l-0.4175-0.41749" fill="#ffc72c"/><path d="m194.73 276.12 0.4175 0.4175 4.175-7.9325v0l-0.4175-0.41749z" fill="none" stroke="#ffc72c" stroke-linecap="round" stroke-miterlimit="10" stroke-width=".6085"/><path d="m190.14 271.94v0.4175l7.9325-5.01-0.4175-0.835" fill="#ffc72c"/><path d="m190.14 271.94v0.4175l7.9325-5.01v0l-0.4175-0.835z" fill="none" stroke="#ffc72c" stroke-linecap="round" stroke-miterlimit="10" stroke-width=".6085"/><path d="m213.52 256.91-0.4175-0.4175-8.7675 5.4275l0.4175 0.4175" fill="#ffc72c"/><path d="m213.52 256.91-0.4175-0.4175-8.7675 5.4275v0l0.4175 0.4175z" fill="none" stroke="#ffc72c" stroke-linecap="round" stroke-miterlimit="10" stroke-width=".6085"/><path d="m197.65 262.34l0.4175-0.4175-8.7675-5.4275-0.4175 0.4175 8.7675 5.4275" fill="#ffc72c"/><path d="m197.65 262.34v0l0.4175-0.4175-8.7675-5.4275-0.4175 0.4175z" fill="none" stroke="#ffc72c" stroke-linecap="round" stroke-miterlimit="10" stroke-width=".6085"/><path d="m204.75 267.35 7.515 5.01 0.4175-0.4175-7.9325-5.4275v0.835" fill="#ffc72c"/><path d="m204.75 267.35 7.515 5.01 0.4175-0.4175-7.9325-5.4275z" fill="none" stroke="#ffc72c" stroke-linecap="round" stroke-miterlimit="10" stroke-width=".6085"/><path d="m194.73 251.9h-0.4175l4.5925 9.185h0.4175" fill="#ffc72c"/><path d="m194.73 251.9h-0.4175l4.5925 9.185h0.4175z" fill="none" stroke="#ffc72c" stroke-linecap="round" stroke-miterlimit="10" stroke-width=".6085"/><path d="m203.08 268.19v0.41749l4.175 7.9325 0.4175-0.4175-4.175-7.9325h-0.4175" fill="#ffc72c"/><path d="m203.08 268.19v0.41749l4.175 7.9325 0.4175-0.4175-4.175-7.9325z" fill="none" stroke="#ffc72c" stroke-linecap="round" stroke-miterlimit="10" stroke-width=".6085"/><path d="m197.23 263.59v-0.4175h0.4175v-0.4175l-8.7675 2.0875 8.7675 1.67-0.4175-0.4175" fill="#ffc72c"/><path d="m197.23 263.59v-0.4175h0.4175v-0.4175l-8.7675 2.0875 8.7675 1.67v0l-0.4175-0.4175" fill="none" stroke="#ffc72c" stroke-linecap="round" stroke-miterlimit="10" stroke-width=".20282"/><path d="m204.75 266.1v0.4175l8.7675-1.67-8.7675-2.0875v0.835" fill="#ffc72c"/><path d="m204.75 266.1v0.4175l8.7675-1.67-8.7675-2.0875v0.835" fill="none" stroke="#ffc72c" stroke-linecap="round" stroke-miterlimit="10" stroke-width=".20282"/><path d="m201.41 261.51h1.2525v0.4175h0.835v0.4175l0.4175 0.4175 0.4175 0.4175v0.83499l0.4175 0.4175v0.4175l-0.4175 0.4175v0.835l-0.4175 0.4175v0.4175h-0.4175v0.4175h-0.4175l-0.4175 0.4175h-1.2525v0.4175l-0.41749-0.4175h-1.2525l-0.4175-0.4175h-0.4175v-0.4175h-0.4175v-0.835h-0.4175v-2.9225h0.4175v-0.4175l0.4175-0.4175v-0.4175h0.835v-0.4175h1.2525zm0-0.835h-1.67l-0.4175 0.4175h-0.4175l-0.4175 0.4175v0.4175h-0.4175l-0.4175 0.4175v0.4175l-0.4175 0.4175v2.9225l0.4175 0.4175v0.4175l0.4175 0.4175 0.4175 0.4175 0.4175 0.4175h0.4175l0.4175 0.41749h2.9225l0.4175-0.41749h0.4175l0.4175-0.4175h0.4175v-0.4175l0.4175-0.4175v-0.4175l0.4175-0.4175v-0.4175l0.4175-0.4175v-0.835l-0.4175-0.4175v-0.83499l-0.4175-0.4175v-0.4175l-0.4175-0.4175-0.4175-0.4175-0.4175-0.4175h-0.4175l-0.4175-0.4175h-1.2525" fill="#ffc72c"/><path d="m201.41 262.76l-0.41749 0.4175h-0.835v0.4175h-0.4175v0.83499l-0.4175 0.4175h0.4175v0.835h0.4175v0.4175h0.835l0.41749 0.4175v-0.4175h0.835v-0.4175h0.4175v-0.4175l0.4175-0.4175v-0.4175l-0.4175-0.4175v-0.41749h-0.4175v-0.4175h-0.835v-0.4175" fill="#ffc72c"/><path d="m201.41 262.76v0l-0.41749 0.4175h-0.835v0.4175h-0.4175v0.83499l-0.4175 0.4175h0.4175v0.835h0.4175v0.4175h0.835l0.41749 0.4175v-0.4175h0.835v-0.4175h0.4175v-0.4175l0.4175-0.4175v-0.4175l-0.4175-0.4175v-0.41749h-0.4175v-0.4175h-0.835z" fill="none" stroke="#ffc72c" stroke-linecap="round" stroke-miterlimit="10" stroke-width=".10141"/><path d="m308.29 271.53 4.175-0.4175v-22.962l-4.175-0.835v-1.2525h17.117l0.83499 0.4175 0.835 0.4175h0.4175l0.835 0.4175 0.835 0.4175h0.4175l0.4175 0.4175 0.83499 0.4175 0.4175 0.4175 0.4175 0.41749 0.835 0.4175 0.4175 0.4175 0.4175 0.835 0.4175 0.4175v0.4175l0.4175 0.835 0.4175 0.4175 0.4175 0.4175v0.83499l0.41749 0.4175v0.835l0.4175 0.4175v1.67l0.4175 0.4175v2.9225l-0.4175 0.4175v1.2525l-0.4175 0.835v0.83499l-0.41749 0.4175v0.4175l-0.4175 0.835-0.4175 0.4175-0.4175 0.835v0.4175l-0.4175 0.4175-0.4175 0.41749-0.4175 0.835-0.835 0.4175-0.4175 0.4175-0.4175 0.4175-0.83499 0.4175h-0.4175l-0.4175 0.4175-0.835 0.4175-0.835 0.4175h-0.4175l-0.835 0.4175h-0.83499l-0.835 0.4175h-16.282zm12.525-0.4175h2.505l1.2525-0.4175h0.835l0.83499-0.4175 0.4175-0.4175h0.4175l0.4175-0.4175v-0.4175h0.4175l0.4175-0.4175 0.4175-0.41749v-0.4175l0.4175-0.835 0.4175-0.835 0.4175-1.2525v-0.835l0.41749-1.67v-5.845l-0.41749-1.2525v-1.2525l-0.4175-0.835-0.4175-1.2525-0.4175-0.4175v-0.4175h-0.4175v-0.4175l-0.4175-0.4175-0.4175-0.4175h-0.4175v-0.4175l-0.835-0.41749-0.83499-0.4175h-1.2525l-0.835-0.4175h-5.845v22.962" fill="#002855"/><path d="m308.29 271.53 4.175-0.4175v-22.962l-4.175-0.835v-1.2525h17.117l0.83499 0.4175 0.835 0.4175h0.4175l0.835 0.4175 0.835 0.4175h0.4175l0.4175 0.4175 0.83499 0.4175 0.4175 0.4175 0.4175 0.41749 0.835 0.4175 0.4175 0.4175 0.4175 0.835 0.4175 0.4175v0.4175l0.4175 0.835 0.4175 0.4175 0.4175 0.4175v0.83499l0.41749 0.4175v0.835l0.4175 0.4175v1.67l0.4175 0.4175v2.9225l-0.4175 0.4175v1.2525l-0.4175 0.835v0.83499l-0.41749 0.4175v0.4175l-0.4175 0.835-0.4175 0.4175-0.4175 0.835v0.4175l-0.4175 0.4175-0.4175 0.41749-0.4175 0.835-0.835 0.4175-0.4175 0.4175-0.4175 0.4175-0.83499 0.4175h-0.4175l-0.4175 0.4175-0.835 0.4175-0.835 0.4175h-0.4175l-0.835 0.4175h-0.83499l-0.835 0.4175h-16.282z" fill="none" stroke="#002855" stroke-linecap="round" stroke-miterlimit="10" stroke-width=".50709"/><path d="m320.81 271.11h2.505l1.2525-0.4175h0.835l0.83499-0.4175 0.4175-0.4175h0.4175l0.4175-0.4175v-0.4175h0.4175l0.4175-0.4175 0.4175-0.41749v-0.4175l0.4175-0.835 0.4175-0.835 0.4175-1.2525v-0.835l0.41749-1.67v-5.845l-0.41749-1.2525v-1.2525l-0.4175-0.835-0.4175-1.2525-0.4175-0.4175v-0.4175h-0.4175v-0.4175l-0.4175-0.4175-0.4175-0.4175h-0.4175v-0.4175l-0.835-0.41749-0.83499-0.4175h-1.2525l-0.835-0.4175h-5.845v22.962z" fill="none" stroke="#002855" stroke-linecap="round" stroke-miterlimit="10" stroke-width=".50709"/><path d="m339.6 271.53 4.175-0.4175v-22.962l-4.175-0.835v-1.2525h23.38l1.2525 8.35-1.2525 0.4175-4.175-6.68-9.6025-0.4175v10.437h5.4275l1.67-4.175h1.67v10.437h-1.67l-1.67-3.7575-5.4275-0.4175v11.272l10.855-0.4175 4.5925-8.35 1.2525 0.4175-1.2525 10.02h-25.05" fill="#002855"/><path d="m339.6 271.53 4.175-0.4175v-22.962l-4.175-0.835v-1.2525h23.38l1.2525 8.35-1.2525 0.4175-4.175-6.68-9.6025-0.4175v10.437h5.4275l1.67-4.175h1.67v10.437h-1.67l-1.67-3.7575-5.4275-0.4175v11.272l10.855-0.4175 4.5925-8.35 1.2525 0.4175-1.2525 10.02h-25.05z" fill="none" stroke="#002855" stroke-linecap="round" stroke-miterlimit="10" stroke-width=".50709"/><path d="m403.9 271.94l-1.2525-3.7575-1.2525-3.34-0.835-1.2525-0.4175-1.2525-0.4175-0.835-0.4175-0.835-0.4175-0.4175-0.41749-0.4175-0.4175-0.4175-0.835-0.4175-0.4175-0.41749h-5.4275v12.107l4.5925 1.2525v1.2525h-14.612v-1.2525l4.5925-1.2525v-27.972l-4.5925-0.835v-1.67h16.282l1.2525 0.4175h1.2525l1.2525 0.4175h0.835l1.2525 0.4175 0.83499 0.4175 0.835 0.835 0.835 0.4175 0.835 0.835 0.4175 0.4175 0.4175 0.41749v0.4175l0.4175 0.835v0.4175l0.41749 0.4175v0.835l0.4175 0.4175v2.0875l-0.4175 0.835v0.835l-0.41749 0.835-0.4175 0.835-0.4175 0.4175-0.835 0.41749-0.4175 0.835-0.835 0.4175-0.835 0.4175-0.83499 0.4175-0.835 0.4175h-0.835l-0.835 0.4175h-1.2525l-0.835 0.4175 0.835 0.4175h1.2525l0.4175 0.4175h0.4175l0.4175 0.41749 0.4175 0.4175h0.4175l0.83499 0.4175 0.4175 0.4175 0.4175 0.4175v0.835l0.4175 0.4175 0.4175 0.835 0.4175 0.835 4.175 7.0975 3.34 1.2525v1.2525h-8.7675l-0.4175-0.4175v-0.4175zm-12.525-15.447h4.5925l1.2525-0.4175h2.505l0.4175-0.4175 0.835-0.4175 0.4175-0.4175 0.4175-0.4175 0.4175-0.41749 0.4175-0.4175v-1.67l0.4175-0.835v-3.7575l-0.4175-0.835v-1.2525l-0.4175-0.4175-0.4175-0.83499-0.4175-0.4175h-0.4175l-0.4175-0.4175-0.4175-0.4175h-8.7675" fill="#002855"/><path d="m403.9 271.94v0l-1.2525-3.7575-1.2525-3.34-0.835-1.2525-0.4175-1.2525-0.4175-0.835-0.4175-0.835-0.4175-0.4175-0.41749-0.4175-0.4175-0.4175-0.835-0.4175-0.4175-0.41749h-5.4275v12.107l4.5925 1.2525v1.2525h-14.612v-1.2525l4.5925-1.2525v-27.972l-4.5925-0.835v-1.67h16.282l1.2525 0.4175h1.2525l1.2525 0.4175h0.835l1.2525 0.4175 0.83499 0.4175 0.835 0.835 0.835 0.4175 0.835 0.835 0.4175 0.4175 0.4175 0.41749v0.4175l0.4175 0.835v0.4175l0.41749 0.4175v0.835l0.4175 0.4175v2.0875l-0.4175 0.835v0.835l-0.41749 0.835-0.4175 0.835-0.4175 0.4175-0.835 0.41749-0.4175 0.835-0.835 0.4175-0.835 0.4175-0.83499 0.4175-0.835 0.4175h-0.835l-0.835 0.4175h-1.2525l-0.835 0.4175v0l0.835 0.4175h1.2525l0.4175 0.4175h0.4175l0.4175 0.41749 0.4175 0.4175h0.4175l0.83499 0.4175 0.4175 0.4175 0.4175 0.4175v0.835l0.4175 0.4175 0.4175 0.835 0.4175 0.835 4.175 7.0975 3.34 1.2525v1.2525h-8.7675l-0.4175-0.4175v-0.4175z" fill="none" stroke="#002855" stroke-linecap="round" stroke-miterlimit="10" stroke-width=".50709"/><path d="m391.37 256.5h4.5925l1.2525-0.4175h2.505l0.4175-0.4175 0.835-0.4175 0.4175-0.4175 0.4175-0.4175 0.4175-0.41749 0.4175-0.4175v-1.67l0.4175-0.835v-3.7575l-0.4175-0.835v-1.2525l-0.4175-0.4175-0.4175-0.83499-0.4175-0.4175h-0.4175l-0.4175-0.4175-0.4175-0.4175h-8.7675z" fill="none" stroke="#002855" stroke-linecap="round" stroke-miterlimit="10" stroke-width=".50709"/><path d="m414.75 259.84v-2.9225l0.4175-0.4175v-1.67l0.4175-0.4175 0.4175-0.83499v-0.4175l0.4175-0.4175 0.4175-0.835 0.4175-0.4175 0.4175-0.4175 0.41749-0.835 0.4175-0.4175 0.4175-0.4175 0.4175-0.41749 0.835-0.4175 0.4175-0.4175 0.4175-0.4175 0.835-0.4175 0.4175-0.4175 0.4175-0.4175h0.83499l0.835-0.4175h0.4175l0.835-0.4175h1.2525l0.83499-0.4175h1.67l0.4175 0.4175h1.67l0.4175 0.4175h0.83499l0.4175 0.4175h0.835l0.4175 0.4175 0.835 0.4175 0.4175 0.4175 0.835 0.4175 0.4175 0.4175 0.41749 0.4175 0.4175 0.41749 0.835 0.4175 0.4175 0.4175 0.4175 0.835 0.4175 0.4175 0.4175 0.4175v0.835l0.4175 0.4175 0.4175 0.4175 0.4175 0.83499v0.4175l0.4175 0.835v1.2525l0.41749 0.835v4.5925l-0.41749 0.835v0.4175l-0.4175 0.83499v0.4175l-0.4175 0.835-0.4175 0.4175-0.4175 0.835v0.4175l-0.4175 0.4175-0.4175 0.83499-0.4175 0.4175-0.4175 0.4175-0.4175 0.4175-0.835 0.4175-0.41749 0.4175-0.4175 0.4175-0.835 0.4175-0.4175 0.4175-0.4175 0.4175-0.835 0.4175h-0.4175l-0.835 0.4175h-0.83499l-0.4175 0.41749h-5.845l-0.835-0.41749h-0.4175l-0.835-0.4175h-0.83499l-0.4175-0.4175-0.835-0.4175-0.4175-0.4175-0.4175-0.4175-0.835-0.4175-0.4175-0.4175-0.4175-0.4175-0.4175-0.4175-0.4175-0.4175-0.41749-0.4175-0.4175-0.83499-0.4175-0.4175-0.4175-0.4175-0.4175-0.835v-0.4175l-0.4175-0.835-0.4175-0.4175v-1.2525l-0.4175-0.835zm21.71 0v-3.34l-0.4175-1.2525v-1.2525l-0.4175-1.2525-0.4175-0.835-0.4175-0.835-0.4175-0.835-0.4175-0.835-0.835-0.41749-0.4175-0.4175-0.83499-0.4175-0.835-0.4175h-0.835l-0.835-0.4175h-2.0875l-0.835 0.4175h-0.835l-0.835 0.4175-0.4175 0.4175-0.835 0.4175-0.4175 0.41749-0.83499 0.835-0.4175 0.835-0.4175 0.835-0.4175 0.835v1.2525l-0.4175 1.2525v8.7675l0.4175 1.2525v0.835l0.4175 1.2525 0.4175 0.835 0.835 0.83499 0.41749 0.4175 0.4175 0.835 0.835 0.4175 0.835 0.4175h0.4175l0.835 0.4175h3.7575l0.835-0.4175h0.835l0.83499-0.4175 0.4175-0.4175 0.835-0.835 0.4175-0.4175 0.4175-0.83499 0.4175-0.835 0.4175-1.2525 0.4175-0.835v-1.2525l0.4175-1.2525v-2.9225" fill="#002855"/><path d="m414.75 259.84v-2.9225l0.4175-0.4175v-1.67l0.4175-0.4175 0.4175-0.83499v-0.4175l0.4175-0.4175 0.4175-0.835 0.4175-0.4175 0.4175-0.4175 0.41749-0.835 0.4175-0.4175 0.4175-0.4175 0.4175-0.41749 0.835-0.4175 0.4175-0.4175 0.4175-0.4175 0.835-0.4175 0.4175-0.4175 0.4175-0.4175h0.83499l0.835-0.4175h0.4175l0.835-0.4175h1.2525l0.83499-0.4175h1.67l0.4175 0.4175h1.67l0.4175 0.4175h0.83499l0.4175 0.4175h0.835l0.4175 0.4175 0.835 0.4175 0.4175 0.4175 0.835 0.4175 0.4175 0.4175 0.41749 0.4175 0.4175 0.41749 0.835 0.4175 0.4175 0.4175 0.4175 0.835 0.4175 0.4175 0.4175 0.4175v0.835l0.4175 0.4175 0.4175 0.4175 0.4175 0.83499v0.4175l0.4175 0.835v1.2525l0.41749 0.835v4.5925l-0.41749 0.835v0.4175l-0.4175 0.83499v0.4175l-0.4175 0.835-0.4175 0.4175-0.4175 0.835v0.4175l-0.4175 0.4175-0.4175 0.83499-0.4175 0.4175-0.4175 0.4175-0.4175 0.4175-0.835 0.4175-0.41749 0.4175-0.4175 0.4175-0.835 0.4175-0.4175 0.4175-0.4175 0.4175-0.835 0.4175h-0.4175l-0.835 0.4175h-0.83499l-0.4175 0.41749h-5.845l-0.835-0.41749h-0.4175l-0.835-0.4175h-0.83499l-0.4175-0.4175-0.835-0.4175-0.4175-0.4175-0.4175-0.4175-0.835-0.4175-0.4175-0.4175-0.4175-0.4175-0.4175-0.4175-0.4175-0.4175-0.41749-0.4175-0.4175-0.83499-0.4175-0.4175-0.4175-0.4175-0.4175-0.835v-0.4175l-0.4175-0.835-0.4175-0.4175v-1.2525l-0.4175-0.835z" fill="none" stroke="#002855" stroke-linecap="round" stroke-miterlimit="10" stroke-width=".50709"/><path d="m436.46 259.84v-3.34l-0.4175-1.2525v-1.2525l-0.4175-1.2525-0.4175-0.835-0.4175-0.835-0.4175-0.835-0.4175-0.835-0.835-0.41749-0.4175-0.4175-0.83499-0.4175-0.835-0.4175h-0.835l-0.835-0.4175h-2.0875l-0.835 0.4175h-0.835l-0.835 0.4175-0.4175 0.4175-0.835 0.4175-0.4175 0.41749-0.83499 0.835-0.4175 0.835-0.4175 0.835-0.4175 0.835v1.2525l-0.4175 1.2525v8.7675l0.4175 1.2525v0.835l0.4175 1.2525 0.4175 0.835 0.835 0.83499 0.41749 0.4175 0.4175 0.835 0.835 0.4175 0.835 0.4175h0.4175l0.835 0.4175h3.7575l0.835-0.4175h0.835l0.83499-0.4175 0.4175-0.4175 0.835-0.835 0.4175-0.4175 0.4175-0.83499 0.4175-0.835 0.4175-1.2525 0.4175-0.835v-1.2525l0.4175-1.2525z" fill="none" stroke="#002855" stroke-linecap="round" stroke-miterlimit="10" stroke-width=".50709"/><path d="m451.49 271.53 5.01-0.835v-22.962l-5.01 0.4175-4.175 8.7675-1.2525-0.4175 0.83499-10.437h24.215l0.835 10.437-1.2525 0.4175-4.175-8.7675-5.01-0.4175v22.962l5.01 0.835v1.67h-15.03" fill="#002855"/><path d="m451.49 271.53 5.01-0.835v-22.962l-5.01 0.4175-4.175 8.7675-1.2525-0.4175 0.83499-10.437h24.215l0.835 10.437-1.2525 0.4175-4.175-8.7675-5.01-0.4175v22.962l5.01 0.835v1.67h-15.03z" fill="none" stroke="#002855" stroke-linecap="round" stroke-miterlimit="10" stroke-width=".50709"/><path d="m475.71 271.53 4.175-0.835v-22.545l-4.175-0.835v-1.2525h13.36v1.2525l-3.7575 0.835v10.437h12.525v-10.437l-3.7575-0.835v-1.2525h12.942v1.2525l-4.175 0.835v22.545l4.175 0.835v1.67h-12.942v-1.67l3.7575-0.835v-10.02h-12.525v10.02l3.7575 0.835v1.67h-13.36" fill="#002855"/><path d="m475.71 271.53 4.175-0.835v-22.545l-4.175-0.835v-1.2525h13.36v1.2525l-3.7575 0.835v10.437h12.525v-10.437l-3.7575-0.835v-1.2525h12.942v1.2525l-4.175 0.835v22.545l4.175 0.835v1.67h-12.942v-1.67l3.7575-0.835v-10.02h-12.525v10.02l3.7575 0.835v1.67h-13.36z" fill="none" stroke="#002855" stroke-linecap="round" stroke-miterlimit="10" stroke-width=".50709"/><path d="m514.95 271.11-0.835 2.0875h-1.67l-1.2525-10.02 1.67-0.4175 0.4175 1.2525 0.4175 1.2525 0.83499 0.835 0.4175 0.835 0.835 0.835 0.4175 0.83499 0.4175 0.4175 0.835 0.835 0.4175 0.4175 0.83499 0.4175 0.4175 0.4175h0.835l0.4175 0.4175h4.5925l0.4175-0.4175h0.4175l0.4175-0.4175h0.4175l0.4175-0.4175 0.4175-0.4175v-0.4175l0.4175-0.4175v-0.83499l0.41749-0.4175v-1.2525l-0.41749-0.4175v-0.835l-0.4175-0.4175-0.4175-0.4175-0.4175-0.4175-0.4175-0.41749h-0.4175l-0.4175-0.4175-0.835-0.4175-1.67-0.835-1.67-0.4175-1.2525-0.4175-1.2525-0.4175-0.83499-0.4175-0.835-0.4175-0.835-0.4175-0.835-0.4175-0.4175-0.83499-0.835-0.4175-0.41749-0.4175-0.4175-0.4175-0.4175-0.835-0.4175-0.4175v-0.835l-0.4175-0.4175v-3.34l0.4175-0.4175 0.4175-0.835v-0.4175l0.4175-0.83499 0.4175-0.4175 0.83499-0.835 0.4175-0.4175 0.835-0.4175 0.4175-0.4175h0.835l0.835-0.4175h0.83499l0.835-0.4175h2.0875l0.835 0.4175h1.2525l0.835 0.4175 0.835 0.4175h0.4175l0.835 0.4175 0.4175 0.4175 0.835-1.2525h1.67l0.835 8.35-1.2525 0.4175-0.835-2.0875-0.83499-0.835-0.4175-0.835-0.4175-0.4175-0.4175-0.835-0.835-0.4175-0.4175-0.41749-0.4175-0.4175-0.4175-0.4175h-0.83499l-0.4175-0.4175h-1.2525l-0.4175-0.4175h-1.2525l-0.4175 0.4175h-1.2525l-0.4175 0.4175h-0.4175l-0.4175 0.4175v0.4175h-0.4175l-0.4175 0.41749v0.835l-0.4175 0.4175v1.2525l0.4175 0.4175v0.835l0.4175 0.4175 0.4175 0.4175 0.4175 0.41749h0.4175l0.4175 0.4175 0.83499 0.4175 1.67 0.4175 2.0875 0.835 1.67 0.835h0.835l0.835 0.4175 0.835 0.4175 0.835 0.83499 0.83499 0.4175 0.835 0.4175 0.4175 0.4175 0.4175 0.835 0.835 0.4175 0.4175 0.835v0.835l0.4175 0.83499v3.34l-0.4175 0.835v0.83499l-0.4175 0.4175-0.4175 0.835-0.4175 0.4175-0.835 0.835-0.4175 0.4175-0.835 0.4175-0.83499 0.4175-0.835 0.4175h-0.835l-0.835 0.41749h-4.5925l-1.2525-0.41749-0.83499-0.4175h-1.2525l-0.835-0.4175-0.4175-0.835-0.835-0.4175" fill="#002855"/><path d="m514.95 271.11-0.835 2.0875h-1.67l-1.2525-10.02 1.67-0.4175v0l0.4175 1.2525 0.4175 1.2525 0.83499 0.835 0.4175 0.835 0.835 0.835 0.4175 0.83499 0.4175 0.4175 0.835 0.835 0.4175 0.4175 0.83499 0.4175 0.4175 0.4175h0.835l0.4175 0.4175h4.5925l0.4175-0.4175h0.4175l0.4175-0.4175h0.4175l0.4175-0.4175 0.4175-0.4175v-0.4175l0.4175-0.4175v-0.83499l0.41749-0.4175v-1.2525l-0.41749-0.4175v-0.835l-0.4175-0.4175-0.4175-0.4175-0.4175-0.4175-0.4175-0.41749h-0.4175l-0.4175-0.4175-0.835-0.4175-1.67-0.835-1.67-0.4175v0l-1.2525-0.4175-1.2525-0.4175-0.83499-0.4175-0.835-0.4175-0.835-0.4175-0.835-0.4175-0.4175-0.83499-0.835-0.4175-0.41749-0.4175-0.4175-0.4175-0.4175-0.835-0.4175-0.4175v-0.835l-0.4175-0.4175v-3.34l0.4175-0.4175 0.4175-0.835v-0.4175l0.4175-0.83499 0.4175-0.4175 0.83499-0.835 0.4175-0.4175 0.835-0.4175 0.4175-0.4175h0.835l0.835-0.4175h0.83499l0.835-0.4175h2.0875l0.835 0.4175h1.2525l0.835 0.4175 0.835 0.4175h0.4175l0.835 0.4175 0.4175 0.4175 0.835-1.2525h1.67l0.835 8.35-1.2525 0.4175v0l-0.835-2.0875-0.83499-0.835-0.4175-0.835-0.4175-0.4175-0.4175-0.835-0.835-0.4175-0.4175-0.41749-0.4175-0.4175-0.4175-0.4175h-0.83499l-0.4175-0.4175h-1.2525l-0.4175-0.4175h-1.2525l-0.4175 0.4175h-1.2525l-0.4175 0.4175h-0.4175l-0.4175 0.4175v0.4175h-0.4175l-0.4175 0.41749v0.835l-0.4175 0.4175v1.2525l0.4175 0.4175v0.835l0.4175 0.4175v0l0.4175 0.4175 0.4175 0.41749h0.4175l0.4175 0.4175 0.83499 0.4175 1.67 0.4175 2.0875 0.835v0l1.67 0.835h0.835l0.835 0.4175 0.835 0.4175 0.835 0.83499 0.83499 0.4175 0.835 0.4175 0.4175 0.4175 0.4175 0.835 0.835 0.4175 0.4175 0.835v0.835l0.4175 0.83499v3.34l-0.4175 0.835v0.83499l-0.4175 0.4175-0.4175 0.835-0.4175 0.4175-0.835 0.835-0.4175 0.4175-0.835 0.4175-0.83499 0.4175-0.835 0.4175h-0.835l-0.835 0.41749h-4.5925l-1.2525-0.41749-0.83499-0.4175h-1.2525l-0.835-0.4175-0.4175-0.835z" fill="none" stroke="#002855" stroke-linecap="round" stroke-miterlimit="10" stroke-width=".50709"/><path d="m535.41 259.42v-2.505l0.4175-0.835v-0.4175l0.4175-0.835v-0.4175l0.4175-0.83499 0.4175-0.4175v-0.835l0.4175-0.4175 0.41749-0.4175 0.4175-0.835 0.4175-0.4175 0.4175-0.4175 0.4175-0.4175 0.4175-0.41749 0.835-0.4175 0.4175-0.4175 0.4175-0.4175 0.4175-0.4175 0.83499-0.4175 0.4175-0.4175h0.835l0.4175-0.4175h1.2525l0.835-0.4175h4.175l1.2525 0.4175h0.835l0.835 0.4175 0.4175 0.4175 0.835 0.4175 0.4175 0.4175 0.835-1.67h1.67l0.835 10.02-0.835 0.4175-1.2525-2.505-0.835-0.835-0.4175-0.835-0.4175-0.835-0.835-0.835-0.4175-0.835-0.4175-0.4175-0.4175-0.41749-0.835-0.4175-0.41749-0.4175h-0.4175l-0.835-0.4175h-4.175l-0.835 0.4175-0.4175 0.4175-0.835 0.4175-0.4175 0.41749-0.4175 0.835-0.4175 0.835-0.4175 0.835-0.41749 0.835-0.4175 1.2525v1.2525l-0.4175 1.67v4.5925l0.4175 1.2525v2.505l0.4175 1.2525 0.41749 0.835 0.4175 0.835 0.4175 0.83499 0.835 0.4175 0.4175 0.835 0.835 0.4175h0.4175l0.835 0.4175h0.83499l0.835 0.4175h2.505l0.835-0.4175h1.2525l0.4175-0.4175 0.4175-0.4175 0.835-0.4175h0.4175l0.4175-0.4175 0.4175-0.4175 0.4175-0.4175 0.4175-0.41749 0.41749-0.4175 0.835-1.2525 1.67 0.835-0.4175 0.835-0.4175 0.41749-0.835 0.835-0.4175 0.4175-0.4175 0.835-0.41749 0.4175-0.835 0.4175-0.835 0.4175-0.4175 0.4175-0.835 0.4175h-0.835l-0.4175 0.4175h-0.83499l-0.835 0.41749h-4.175l-0.4175-0.41749h-1.67l-0.4175-0.4175-0.835-0.4175h-0.4175l-0.4175-0.4175-0.83499-0.4175-0.4175-0.4175-0.4175-0.4175-0.835-0.4175-0.4175-0.4175-0.4175-0.4175-0.4175-0.4175-0.4175-0.4175-0.4175-0.41749-0.41749-0.835-0.4175-0.4175v-0.835l-0.4175-0.4175-0.4175-0.4175v-0.835l-0.4175-0.83499v-0.4175l-0.4175-0.835v-2.9225" fill="#002855"/><path d="m535.41 259.42v-2.505l0.4175-0.835v-0.4175l0.4175-0.835v-0.4175l0.4175-0.83499 0.4175-0.4175v-0.835l0.4175-0.4175 0.41749-0.4175 0.4175-0.835 0.4175-0.4175 0.4175-0.4175 0.4175-0.4175 0.4175-0.41749 0.835-0.4175 0.4175-0.4175 0.4175-0.4175 0.4175-0.4175 0.83499-0.4175 0.4175-0.4175h0.835l0.4175-0.4175h1.2525l0.835-0.4175h4.175l1.2525 0.4175h0.835l0.835 0.4175 0.4175 0.4175 0.835 0.4175 0.4175 0.4175 0.835-1.67h1.67l0.835 10.02-0.835 0.4175v0l-1.2525-2.505-0.835-0.835-0.4175-0.835-0.4175-0.835-0.835-0.835-0.4175-0.835-0.4175-0.4175-0.4175-0.41749-0.835-0.4175-0.41749-0.4175h-0.4175l-0.835-0.4175h-4.175l-0.835 0.4175-0.4175 0.4175-0.835 0.4175-0.4175 0.41749-0.4175 0.835-0.4175 0.835-0.4175 0.835-0.41749 0.835-0.4175 1.2525v1.2525l-0.4175 1.67v4.5925l0.4175 1.2525v2.505l0.4175 1.2525 0.41749 0.835 0.4175 0.835 0.4175 0.83499 0.835 0.4175 0.4175 0.835 0.835 0.4175h0.4175l0.835 0.4175h0.83499l0.835 0.4175h2.505l0.835-0.4175h1.2525l0.4175-0.4175 0.4175-0.4175 0.835-0.4175h0.4175l0.4175-0.4175 0.4175-0.4175 0.4175-0.4175 0.4175-0.41749 0.41749-0.4175 0.835-1.2525 1.67 0.835v0l-0.4175 0.835-0.4175 0.41749-0.835 0.835-0.4175 0.4175-0.4175 0.835-0.41749 0.4175-0.835 0.4175-0.835 0.4175-0.4175 0.4175-0.835 0.4175h-0.835l-0.4175 0.4175h-0.83499l-0.835 0.41749h-4.175l-0.4175-0.41749h-1.67l-0.4175-0.4175-0.835-0.4175h-0.4175l-0.4175-0.4175-0.83499-0.4175-0.4175-0.4175-0.4175-0.4175-0.835-0.4175-0.4175-0.4175-0.4175-0.4175-0.4175-0.4175-0.4175-0.4175-0.4175-0.41749-0.41749-0.835-0.4175-0.4175v-0.835l-0.4175-0.4175-0.4175-0.4175v-0.835l-0.4175-0.83499v-0.4175l-0.4175-0.835z" fill="none" stroke="#002855" stroke-linecap="round" stroke-miterlimit="10" stroke-width=".50709"/><path d="m562.96 271.53 4.5925-0.835v-22.545l-4.5925-0.835v-1.2525h13.36v1.2525l-3.7575 0.835v10.437h12.525v-10.437l-3.7575-0.835v-1.2525h13.36v1.2525l-4.175 0.835v22.545l4.175 0.835v1.67h-13.36v-1.67l3.7575-0.835v-10.02h-12.525v10.02l3.7575 0.835v1.67h-13.36" fill="#002855"/><path d="m562.96 271.53 4.5925-0.835v-22.545l-4.5925-0.835v-1.2525h13.36v1.2525l-3.7575 0.835v10.437h12.525v-10.437l-3.7575-0.835v-1.2525h13.36v1.2525l-4.175 0.835v22.545l4.175 0.835v1.67h-13.36v-1.67l3.7575-0.835v-10.02h-12.525v10.02l3.7575 0.835v1.67h-13.36z" fill="none" stroke="#002855" stroke-linecap="round" stroke-miterlimit="10" stroke-width=".50709"/><path d="m598.87 271.53 4.5925-0.835v-22.545l-4.5925-0.835v-1.2525h14.195v1.2525l-4.175 0.835v22.545l4.175 0.835v1.67h-14.195" fill="#002855"/><path d="m598.87 271.53 4.5925-0.835v-22.545l-4.5925-0.835v-1.2525h14.195v1.2525l-4.175 0.835v22.545l4.175 0.835v1.67h-14.195z" fill="none" stroke="#002855" stroke-linecap="round" stroke-miterlimit="10" stroke-width=".50709"/><path d="m617.66 271.53 4.175-0.835v-22.545l-4.175-0.835v-1.2525h13.777v1.2525l-4.175 0.835v23.38l8.7675-0.835 4.5925-8.35 1.2525 0.4175-1.67 10.437h-22.545" fill="#002855"/><path d="m617.66 271.53 4.175-0.835v-22.545l-4.175-0.835v-1.2525h13.777v1.2525l-4.175 0.835v23.38l8.7675-0.835 4.5925-8.35 1.2525 0.4175-1.67 10.437h-22.545z" fill="none" stroke="#002855" stroke-linecap="round" stroke-miterlimit="10" stroke-width=".50709"/><path d="m645.21 271.53 4.175-0.4175v-22.962l-4.175-0.835v-1.2525h17.535l0.835 0.4175 0.4175 0.4175h0.835l0.835 0.4175 0.4175 0.4175h0.4175l0.83499 0.4175 0.4175 0.4175 0.835 0.4175 0.4175 0.41749 0.4175 0.4175 0.4175 0.4175 0.4175 0.835 0.4175 0.4175 0.4175 0.4175 0.4175 0.835v0.4175l0.41749 0.4175 0.4175 0.83499v0.4175l0.4175 0.835v0.4175l0.4175 0.835v5.4275l-0.4175 0.4175v0.835l-0.4175 0.83499v0.4175l-0.4175 0.4175-0.41749 0.835v0.4175l-0.4175 0.835-0.4175 0.4175-0.4175 0.4175-0.4175 0.41749-0.4175 0.835-0.4175 0.4175-0.4175 0.4175-0.835 0.4175-0.4175 0.4175h-0.83499l-0.4175 0.4175-0.4175 0.4175-0.835 0.4175h-0.835l-0.4175 0.4175h-0.835l-0.83499 0.4175h-16.7zm12.942-0.4175h2.505l0.835-0.4175h0.83499l0.835-0.4175 0.4175-0.4175h0.4175l0.4175-0.4175 0.4175-0.4175h0.4175v-0.4175l0.4175-0.41749 0.4175-0.4175 0.4175-0.835v-0.835l0.4175-1.2525 0.41749-0.835v-8.7675l-0.41749-1.2525-0.4175-0.835-0.4175-1.2525v-0.4175l-0.4175-0.4175-0.4175-0.4175-0.4175-0.4175v-0.4175h-0.4175l-0.4175-0.4175-0.835-0.41749-0.835-0.4175h-0.83499l-1.2525-0.4175h-5.4275v22.962" fill="#002855"/><path d="m645.21 271.53 4.175-0.4175v-22.962l-4.175-0.835v-1.2525h17.535l0.835 0.4175 0.4175 0.4175h0.835l0.835 0.4175 0.4175 0.4175h0.4175l0.83499 0.4175 0.4175 0.4175 0.835 0.4175 0.4175 0.41749 0.4175 0.4175 0.4175 0.4175 0.4175 0.835 0.4175 0.4175 0.4175 0.4175 0.4175 0.835v0.4175l0.41749 0.4175 0.4175 0.83499v0.4175l0.4175 0.835v0.4175l0.4175 0.835v5.4275l-0.4175 0.4175v0.835l-0.4175 0.83499v0.4175l-0.4175 0.4175-0.41749 0.835v0.4175l-0.4175 0.835-0.4175 0.4175-0.4175 0.4175-0.4175 0.41749-0.4175 0.835-0.4175 0.4175-0.4175 0.4175-0.835 0.4175-0.4175 0.4175h-0.83499l-0.4175 0.4175-0.4175 0.4175-0.835 0.4175h-0.835l-0.4175 0.4175h-0.835l-0.83499 0.4175h-16.7z" fill="none" stroke="#002855" stroke-linecap="round" stroke-miterlimit="10" stroke-width=".50709"/><path d="m658.15 271.11h2.505l0.835-0.4175h0.83499l0.835-0.4175 0.4175-0.4175h0.4175l0.4175-0.4175 0.4175-0.4175h0.4175v-0.4175l0.4175-0.41749 0.4175-0.4175 0.4175-0.835v-0.835l0.4175-1.2525 0.41749-0.835v-8.7675l-0.41749-1.2525-0.4175-0.835-0.4175-1.2525v-0.4175l-0.4175-0.4175v0l-0.4175-0.4175-0.4175-0.4175v-0.4175h-0.4175l-0.4175-0.4175-0.835-0.41749-0.835-0.4175h-0.83499l-1.2525-0.4175h-5.4275v22.962z" fill="none" stroke="#002855" stroke-linecap="round" stroke-miterlimit="10" stroke-width=".50709"/><path d="m307.87 222.26 4.5925-0.835v-28.39l-4.5925-0.835v-1.2525h26.302l0.835 9.185h-0.835l-4.5925-7.0975-11.272-0.835v13.777l5.845-0.4175 2.0875-4.5925h1.2525v11.69h-1.2525l-2.0875-4.5925-5.845-0.4175v14.612l12.942-0.835 5.01-8.7675 1.2525 0.4175-1.67 10.855h-27.972" fill="#002855"/><path d="m307.87 222.26 4.5925-0.835v-28.39l-4.5925-0.835v-1.2525h26.302l0.835 9.185h-0.835l-4.5925-7.0975-11.272-0.835v13.777l5.845-0.4175 2.0875-4.5925h1.2525v11.69h-1.2525l-2.0875-4.5925-5.845-0.4175v14.612l12.942-0.835 5.01-8.7675 1.2525 0.4175-1.67 10.855h-27.972z" fill="none" stroke="#002855" stroke-linecap="round" stroke-miterlimit="10" stroke-width=".50709"/><path d="m340.44 222.26 4.175-0.835v-22.545l-4.175-0.835v-1.67h16.282l0.835 0.41749h0.835l0.835 0.4175h0.4175l0.835 0.4175 0.83499 0.4175 0.4175 0.4175h0.835l0.4175 0.4175 0.4175 0.4175 0.4175 0.4175 0.835 0.835 0.4175 0.4175 0.41749 0.4175 0.4175 0.41749 0.4175 0.4175v0.835l0.4175 0.4175 0.4175 0.835v0.4175l0.4175 0.835v0.4175l0.4175 0.83499v1.2525l0.4175 0.4175v2.9225l-0.4175 0.835v1.2525l-0.4175 0.4175v0.835l-0.4175 0.4175v0.83499l-0.4175 0.4175-0.4175 0.4175v0.835l-0.4175 0.4175-0.4175 0.4175-0.41749 0.835-0.4175 0.4175-0.835 0.4175-0.4175 0.4175-0.4175 0.41749-0.4175 0.4175-0.835 0.4175-0.4175 0.4175h-0.83499l-0.835 0.4175h-0.4175l-0.835 0.4175h-0.835l-0.835 0.4175h-1.2525l-0.835 0.4175h-14.195zm12.525-0.835h2.505l1.2525-0.4175h0.835l0.835-0.41749 0.4175-0.4175h0.4175l0.4175-0.4175 0.4175-0.4175 0.4175-0.4175 0.41749-0.4175v-0.4175l0.4175-0.835 0.4175-0.835 0.4175-0.83499v-1.2525l0.4175-1.2525v-6.2625l-0.4175-1.2525v-1.2525l-0.4175-0.835-0.4175-0.835v-0.4175l-0.4175-0.4175-0.41749-0.41749v-0.4175l-0.4175-0.4175-0.4175-0.4175h-0.4175v-0.4175l-0.835-0.4175-0.835-0.4175h-1.2525l-0.83499-0.4175h-5.845v22.962" fill="#002855"/><path d="m340.44 222.26 4.175-0.835v-22.545l-4.175-0.835v-1.67h16.282l0.835 0.41749h0.835l0.835 0.4175h0.4175l0.835 0.4175 0.83499 0.4175 0.4175 0.4175h0.835l0.4175 0.4175 0.4175 0.4175 0.4175 0.4175 0.835 0.835 0.4175 0.4175 0.41749 0.4175 0.4175 0.41749 0.4175 0.4175v0.835l0.4175 0.4175 0.4175 0.835v0.4175l0.4175 0.835v0.4175l0.4175 0.83499v1.2525l0.4175 0.4175v2.9225l-0.4175 0.835v1.2525l-0.4175 0.4175v0.835l-0.4175 0.4175v0.83499l-0.4175 0.4175-0.4175 0.4175v0.835l-0.4175 0.4175-0.4175 0.4175-0.41749 0.835-0.4175 0.4175-0.835 0.4175-0.4175 0.4175-0.4175 0.41749-0.4175 0.4175-0.835 0.4175-0.4175 0.4175h-0.83499l-0.835 0.4175h-0.4175l-0.835 0.4175h-0.835l-0.835 0.4175h-1.2525l-0.835 0.4175h-14.195z" fill="none" stroke="#002855" stroke-linecap="round" stroke-miterlimit="10" stroke-width=".50709"/><path d="m352.96 221.43h2.505l1.2525-0.4175h0.835l0.835-0.41749 0.4175-0.4175h0.4175l0.4175-0.4175v0l0.4175-0.4175 0.4175-0.4175 0.41749-0.4175v-0.4175l0.4175-0.835 0.4175-0.835 0.4175-0.83499v-1.2525l0.4175-1.2525v-6.2625l-0.4175-1.2525v-1.2525l-0.4175-0.835-0.4175-0.835v-0.4175l-0.4175-0.4175-0.41749-0.41749v-0.4175l-0.4175-0.4175-0.4175-0.4175h-0.4175v-0.4175l-0.835-0.4175-0.835-0.4175h-1.2525l-0.83499-0.4175h-5.845v22.962z" fill="none" stroke="#002855" stroke-linecap="round" stroke-miterlimit="10" stroke-width=".50709"/><path d="m371.75 222.26 4.175-0.835v-22.545l-4.175-0.835v-1.67h10.437l7.515 18.787 7.515-18.787h10.855v1.67l-4.175 0.835v22.545l4.175 0.835v1.67h-12.942v-1.67l3.34-0.835v-21.71l-9.185 22.962h-1.67l-9.6025-22.962 0.835 21.71 3.7575 0.835v1.67h-10.855" fill="#002855"/><path d="m371.75 222.26 4.175-0.835v-22.545l-4.175-0.835v-1.67h10.437l7.515 18.787 7.515-18.787h10.855v1.67l-4.175 0.835v22.545l4.175 0.835v1.67h-12.942v-1.67l3.34-0.835v-21.71l-9.185 22.962h-1.67l-9.6025-22.962 0.835 21.71 3.7575 0.835v1.67h-10.855z" fill="none" stroke="#002855" stroke-linecap="round" stroke-miterlimit="10" stroke-width=".50709"/><path d="m411.83 210.15v-2.9225l0.4175-0.4175v-0.83499l0.4175-0.4175v-0.835l0.4175-0.4175 0.41749-0.835v-0.4175l0.4175-0.835 0.4175-0.4175 0.4175-0.41749 0.4175-0.4175 0.4175-0.835 0.4175-0.4175 0.4175-0.4175 0.835-0.4175 0.4175-0.4175 0.41749-0.4175 0.835-0.4175 0.4175-0.4175h0.835l0.4175-0.4175 0.835-0.41749h0.4175l0.835-0.4175h5.845l0.4175 0.4175h0.835l0.4175 0.41749 0.835 0.4175h0.4175l0.835 0.4175 0.41749 0.4175 0.835 0.4175 0.4175 0.4175 0.4175 0.4175 0.4175 0.4175 0.4175 0.4175 0.835 0.835 0.4175 0.4175 0.4175 0.41749v0.4175l0.41749 0.835 0.4175 0.4175 0.4175 0.835 0.4175 0.4175v0.835l0.4175 0.4175v1.2525l0.4175 0.835v4.175l-0.4175 0.4175v1.67l-0.4175 0.4175v0.835l-0.4175 0.41749-0.4175 0.4175-0.4175 0.835v0.4175l-0.41749 0.835-0.4175 0.4175-0.4175 0.4175-0.4175 0.4175-0.4175 0.4175-0.835 0.83499h-0.4175l-0.4175 0.4175-0.4175 0.4175-0.83499 0.4175-0.4175 0.4175-0.835 0.4175h-0.4175l-0.835 0.4175h-0.835l-0.4175 0.4175h-1.67l-0.4175 0.4175h-1.67l-0.835-0.4175h-1.2525l-0.835-0.4175h-0.835l-0.4175-0.4175h-0.835l-0.4175-0.4175-0.4175-0.4175-0.835-0.4175-0.41749-0.4175-0.4175-0.4175h-0.835l-0.4175-0.83499-0.4175-0.4175-0.4175-0.4175-0.4175-0.4175-0.4175-0.4175-0.4175-0.835-0.4175-0.4175-0.41749-0.835v-0.4175l-0.4175-0.41749v-0.835l-0.4175-0.4175v-0.835l-0.4175-0.835zm21.71 0v-2.9225l-0.4175-1.67v-1.2525l-0.4175-0.835-0.41749-1.2525-0.4175-0.83499-0.4175-0.835-0.4175-0.4175-0.835-0.835-0.4175-0.4175-0.835-0.4175-0.835-0.4175h-5.4275l-0.835 0.4175-0.4175 0.4175-0.835 0.4175-0.4175 0.835-0.835 0.4175-0.4175 0.835-0.4175 0.83499-0.4175 1.2525v0.835l-0.41749 1.2525v2.9225l-0.4175 1.67 0.4175 1.67v2.505l0.41749 1.2525v1.2525l0.4175 0.835 0.4175 0.835 0.835 0.835 0.4175 0.835 0.4175 0.4175 0.835 0.41749 0.835 0.4175 0.4175 0.4175h0.83499l0.835 0.4175h2.0875l0.835-0.4175h0.83499l0.835-0.4175 0.835-0.4175 0.4175-0.41749 0.835-0.4175 0.4175-0.835 0.4175-0.835 0.4175-0.835 0.41749-0.835 0.4175-1.2525v-1.2525l0.4175-1.2525v-2.9225" fill="#002855"/><path d="m411.83 210.15v-2.9225l0.4175-0.4175v-0.83499l0.4175-0.4175v-0.835l0.4175-0.4175 0.41749-0.835v-0.4175l0.4175-0.835 0.4175-0.4175 0.4175-0.41749 0.4175-0.4175 0.4175-0.835 0.4175-0.4175 0.4175-0.4175 0.835-0.4175 0.4175-0.4175 0.41749-0.4175 0.835-0.4175 0.4175-0.4175h0.835l0.4175-0.4175 0.835-0.41749h0.4175l0.835-0.4175h5.845l0.4175 0.4175h0.835l0.4175 0.41749 0.835 0.4175h0.4175l0.835 0.4175 0.41749 0.4175 0.835 0.4175 0.4175 0.4175 0.4175 0.4175 0.4175 0.4175 0.4175 0.4175 0.835 0.835 0.4175 0.4175 0.4175 0.41749v0.4175l0.41749 0.835 0.4175 0.4175 0.4175 0.835 0.4175 0.4175v0.835l0.4175 0.4175v1.2525l0.4175 0.835v4.175l-0.4175 0.4175v1.67l-0.4175 0.4175v0.835l-0.4175 0.41749-0.4175 0.4175-0.4175 0.835v0.4175l-0.41749 0.835-0.4175 0.4175-0.4175 0.4175-0.4175 0.4175-0.4175 0.4175-0.835 0.83499h-0.4175l-0.4175 0.4175-0.4175 0.4175-0.83499 0.4175-0.4175 0.4175-0.835 0.4175h-0.4175l-0.835 0.4175h-0.835l-0.4175 0.4175h-1.67l-0.4175 0.4175h-1.67l-0.835-0.4175h-1.2525l-0.835-0.4175h-0.835l-0.4175-0.4175h-0.835l-0.4175-0.4175-0.4175-0.4175-0.835-0.4175-0.41749-0.4175-0.4175-0.4175h-0.835l-0.4175-0.83499-0.4175-0.4175-0.4175-0.4175-0.4175-0.4175-0.4175-0.4175-0.4175-0.835-0.4175-0.4175-0.41749-0.835v-0.4175l-0.4175-0.41749v-0.835l-0.4175-0.4175v-0.835l-0.4175-0.835z" fill="none" stroke="#002855" stroke-linecap="round" stroke-miterlimit="10" stroke-width=".50709"/><path d="m433.54 210.15v-2.9225l-0.4175-1.67v-1.2525l-0.4175-0.835-0.41749-1.2525-0.4175-0.83499-0.4175-0.835-0.4175-0.4175-0.835-0.835-0.4175-0.4175-0.835-0.4175-0.835-0.4175h-5.4275l-0.835 0.4175-0.4175 0.4175-0.835 0.4175-0.4175 0.835-0.835 0.4175-0.4175 0.835-0.4175 0.83499-0.4175 1.2525v0.835l-0.41749 1.2525v2.9225l-0.4175 1.67v0l0.4175 1.67v2.505l0.41749 1.2525v1.2525l0.4175 0.835 0.4175 0.835 0.835 0.835 0.4175 0.835 0.4175 0.4175 0.835 0.41749 0.835 0.4175 0.4175 0.4175h0.83499l0.835 0.4175h2.0875l0.835-0.4175h0.83499l0.835-0.4175 0.835-0.4175 0.4175-0.41749 0.835-0.4175 0.4175-0.835 0.4175-0.835 0.4175-0.835 0.41749-0.835 0.4175-1.2525v-1.2525l0.4175-1.2525z" fill="none" stroke="#002855" stroke-linecap="round" stroke-miterlimit="10" stroke-width=".50709"/><path d="m448.99 199.72 1.2525 21.71 4.5925 0.835v1.67h-12.107v-1.67l4.5925-0.835v-22.545l-4.5925-0.835v-1.67h10.437l14.195 18.787-0.835-16.282-4.5925-0.835v-1.67h11.69v1.67l-4.175 0.835v25.05h-1.2525" fill="#002855"/><path d="m448.99 199.72 1.2525 21.71 4.5925 0.835v1.67h-12.107v-1.67l4.5925-0.835v-22.545l-4.5925-0.835v-1.67h10.437l14.195 18.787-0.835-16.282-4.5925-0.835v-1.67h11.69v1.67l-4.175 0.835v25.05h-1.2525z" fill="none" stroke="#002855" stroke-linecap="round" stroke-miterlimit="10" stroke-width=".50709"/><path d="m477.79 222.26 4.175-0.835v-22.545l-4.175-0.835v-1.67h16.282l0.83499 0.41749h0.835l0.835 0.4175h0.835l0.4175 0.4175 0.835 0.4175 0.4175 0.4175h0.41749l0.835 0.4175 0.4175 0.4175 0.4175 0.4175 0.835 0.835 0.4175 0.4175 0.4175 0.4175 0.4175 0.41749v0.4175l0.4175 0.835 0.4175 0.4175 0.41749 0.835v0.4175l0.4175 0.835v0.4175l0.4175 0.83499v1.2525l0.4175 0.4175v2.9225l-0.4175 0.835v1.2525l-0.4175 0.4175v0.835l-0.4175 0.4175v0.83499l-0.41749 0.4175-0.4175 0.4175-0.4175 0.835v0.4175l-0.4175 0.4175-0.4175 0.835-0.4175 0.4175-0.835 0.4175-0.4175 0.4175-0.4175 0.41749-0.835 0.4175-0.41749 0.4175-0.4175 0.4175h-0.835l-0.4175 0.4175h-0.835l-0.835 0.4175h-0.835l-0.83499 0.4175h-1.2525l-0.835 0.4175h-14.195zm12.525-0.835h2.505l1.2525-0.4175h0.83499l0.835-0.41749 0.4175-0.4175h0.4175l0.4175-0.4175h0.4175v-0.4175l0.4175-0.4175 0.4175-0.4175v-0.4175l0.4175-0.835 0.4175-0.835 0.41749-0.83499v-1.2525l0.4175-1.2525v-6.2625l-0.4175-1.2525v-1.2525l-0.41749-0.835-0.4175-0.835-0.4175-0.4175v-0.4175l-0.4175-0.41749v-0.4175l-0.4175-0.4175-0.4175-0.4175h-0.4175v-0.4175l-0.835-0.4175-0.835-0.4175h-1.2525l-0.835-0.4175h-5.845v22.962" fill="#002855"/><path d="m477.79 222.26 4.175-0.835v-22.545l-4.175-0.835v-1.67h16.282l0.83499 0.41749h0.835l0.835 0.4175h0.835l0.4175 0.4175 0.835 0.4175 0.4175 0.4175h0.41749l0.835 0.4175 0.4175 0.4175 0.4175 0.4175 0.835 0.835 0.4175 0.4175 0.4175 0.4175 0.4175 0.41749v0.4175l0.4175 0.835 0.4175 0.4175 0.41749 0.835v0.4175l0.4175 0.835v0.4175l0.4175 0.83499v1.2525l0.4175 0.4175v2.9225l-0.4175 0.835v1.2525l-0.4175 0.4175v0.835l-0.4175 0.4175v0.83499l-0.41749 0.4175-0.4175 0.4175-0.4175 0.835v0.4175l-0.4175 0.4175-0.4175 0.835-0.4175 0.4175-0.835 0.4175-0.4175 0.4175-0.4175 0.41749-0.835 0.4175-0.41749 0.4175-0.4175 0.4175h-0.835l-0.4175 0.4175h-0.835l-0.835 0.4175h-0.835l-0.83499 0.4175h-1.2525l-0.835 0.4175h-14.195z" fill="none" stroke="#002855" stroke-linecap="round" stroke-miterlimit="10" stroke-width=".50709"/><path d="m490.32 221.43h2.505l1.2525-0.4175h0.83499l0.835-0.41749 0.4175-0.4175h0.4175l0.4175-0.4175h0.4175v-0.4175l0.4175-0.4175 0.4175-0.4175v-0.4175l0.4175-0.835 0.4175-0.835 0.41749-0.83499v-1.2525l0.4175-1.2525v-6.2625l-0.4175-1.2525v-1.2525l-0.41749-0.835-0.4175-0.835-0.4175-0.4175v-0.4175l-0.4175-0.41749v-0.4175l-0.4175-0.4175-0.4175-0.4175h-0.4175v-0.4175l-0.835-0.4175-0.835-0.4175h-1.2525l-0.835-0.4175h-5.845v22.962z" fill="none" stroke="#002855" stroke-linecap="round" stroke-miterlimit="10" stroke-width=".50709"/></g></svg>
