<svg width="205" height="34" viewBox="0 0 205 34" fill="none" xmlns="http://www.w3.org/2000/svg"><path d="M74.7605 31.6691V25.2367H56.1804V19.0508H74.1106V12.6183H56.1804V7.35135H74.5812V0.918919H48.6498V31.6691H74.7605Z" fill="#3F53FF"></path><path d="M77.3604 16.294C77.3604 19.4318 78.1 22.2558 79.5792 24.7212C81.0585 27.209 83.098 29.1365 85.7427 30.526C88.3874 31.9156 91.3683 32.588 94.7078 32.588C97.5766 32.588 100.266 32.0501 102.754 30.9743L105.13 34H113.624L108.155 27.0297C110.8 24.116 112.122 20.53 112.122 16.294C112.122 13.1562 111.383 10.3546 109.904 7.86684C108.424 5.40145 106.34 3.47396 103.695 2.08438C101.051 0.694792 98.0473 0 94.7078 0C91.3683 0 88.3874 0.694792 85.7427 2.08438C83.098 3.47396 81.0585 5.40145 79.5792 7.86684C78.1 10.3546 77.3604 13.1562 77.3604 16.294ZM85.0703 16.294C85.0703 13.3579 85.9444 11.0046 87.6926 9.25643C89.4408 7.50824 91.7717 6.61173 94.7078 6.61173C97.6662 6.61173 100.02 7.48583 101.768 9.23402C103.516 10.9822 104.39 13.3355 104.39 16.294C104.39 18.1318 104.054 19.6783 103.426 20.9782L98.2042 14.3217L92.7803 18.2663L98.3835 25.416C97.218 25.797 96.0077 25.9763 94.7078 25.9763C91.7717 25.9763 89.4408 25.1022 87.6926 23.354C85.9444 21.6058 85.0703 19.2525 85.0703 16.294Z" fill="#3F53FF"></path><path d="M119.003 31.6691H130.478L136.082 7.88926L141.685 31.6691H153.16L159.727 0.918919H151.95L147.602 25.416H146.952L141.08 0.918919H131.084L125.189 25.416H124.561L120.191 0.918919H112.436L119.003 31.6691Z" fill="#3F53FF"></path><path d="M169.14 31.6691V0.918919H161.61V31.6691H169.14Z" fill="#3F53FF"></path><path d="M180.122 31.6691V7.23929H180.75L191.598 31.6691H204.306V0.918919H196.82V25.3263H196.17L185.345 0.918919H172.637V31.6691H180.122Z" fill="#3F53FF"></path><path fill-rule="evenodd" clip-rule="evenodd" d="M7.88766 15.5855C7.88766 10.9506 11.645 7.19333 16.2799 7.19333C20.9148 7.19333 24.6721 10.9506 24.6721 15.5855V31.1711H31.8654V15.5855C31.8654 6.97788 24.8875 0 16.2799 0C7.67222 0 0.694336 6.97788 0.694336 15.5855V31.1711H19.4647V23.9778H7.88766V15.5855ZM25.393 7.7409C25.0418 8.09204 24.4725 8.09204 24.1213 7.7409C22.7449 6.3644 21.0303 5.3745 19.15 4.87067C18.6703 4.74214 18.3856 4.24909 18.5142 3.76942C18.6427 3.28974 19.1357 3.00508 19.6154 3.13361C21.8006 3.71914 23.7933 4.86958 25.393 6.46928C25.7441 6.82043 25.7441 7.38975 25.393 7.7409ZM27.3615 10.9203C26.9194 11.1466 26.3777 10.9716 26.1514 10.5296C26.1381 10.5037 26.1248 10.4778 26.1113 10.452C25.8815 10.0117 26.0522 9.46856 26.4924 9.23882C26.9327 9.00907 27.4758 9.17973 27.7056 9.61998C27.7212 9.64999 27.7368 9.68006 27.7522 9.71019C27.9785 10.1522 27.8035 10.694 27.3615 10.9203Z" fill="#3F53FF"></path></svg>
