<svg xmlns="http://www.w3.org/2000/svg" viewBox="0 0 704.86 388.75">
          <path d="M693.6,365.21c-4.85,0-8.84,4.27-8.84,9.49s4,9.47,8.84,9.47,8.77-4.22,8.77-9.47S698.45,365.21,693.6,365.21Zm11.26,9.49a11.26,11.26,0,1,1-11.26-11.49A11.36,11.36,0,0,1,704.86,374.7Z" style="fill: #e50043;fill-rule: evenodd"/>
          <path d="M694.7,374.18l-3.42.07h0v-3.74h2.5l1,.05.9.22.35.23.3.27.18.45.07.85-.15.53-.2.39-.52.41-.2.1-.23.07Zm.6,1.65.7-.1c3.92-.73,3.64-7.57-2-7h-4.82v12.71h2.07V376h2l3.3,5.45h2.37Z" style="fill: #e50043;fill-rule: evenodd"/>
          <polygon points="143.56 222.75 207.47 384.45 229.63 384.45 293.84 222.75 265.71 222.75 220.03 341.15 177.3 222.75 143.56 222.75" style="fill: #e50043;fill-rule: evenodd"/>
          <path d="M111.49,287.28l-79.22,0c3.2-25.94,17.88-40.76,41.36-40.76C95.31,246.5,109.84,262.9,111.49,287.28Zm-80.25,23,112.17-.1.05-.33c0-57.31-30.69-87.3-69.76-87.3C30.1,222.59-.07,256.82,0,303.8c0,47.87,23.18,84.95,75.88,84.95,26.77,0,44.85-8.22,63.86-20.64V338.35C122.26,352,100.18,364.51,81.2,364.51,51,364.51,31.24,344.9,31.24,310.32Z" style="fill: #e50043;fill-rule: evenodd"/>
          <polygon points="339.72 384.62 339.75 222.87 311.55 222.87 311.42 384.62 339.72 384.62" style="fill: #e50043;fill-rule: evenodd"/>
          <polygon points="339.72 207.45 339.75 179.34 311.55 179.34 311.42 207.45 339.72 207.45" style="fill: #e50043;fill-rule: evenodd"/>
          <path d="M665.63,384.62l0-97.09c0-20-5.4-37.25-15.71-49.5s-25.58-19.43-44.61-19.43a57.27,57.27,0,0,0-42.21,17.79v-13.8H535V384.67h29V286c.07-22.62,15.88-39.36,37.78-39.43,23,.15,35,16.44,35.14,40v98h-.05Z" style="fill: #e50043;fill-rule: evenodd"/>
          <path d="M395.27,345.8a19.32,19.32,0,0,1-2-6.55v-.17l-.07-.3-.15-2.5c.22-12.27,6.07-23.19,38.86-25.56,15.51-1.13,31.22-2.77,42.13-9.44l1.5-1L476,300v20.66a44.86,44.86,0,0,1-1.23,9.5c-.35,1.3-.8,2.57-1.25,3.79l-.12.43a33.61,33.61,0,0,1-8.67,12.44l-.75.75-.72.55c-9.27,7.55-22.58,11-36.57,11C412,359.11,399.94,354.87,395.27,345.8Zm112.86,35c-2.1-5.55-4.12-16.54-4.27-24.21V268.47c0-15.15-5.37-28-16-36.85s-26.37-13.87-46.95-13.87h-.15l-.07-.05c-32.92.05-56.52,14.86-64.39,38.92l-.28,1-.45,1.25H407.2l.53-.7c7.19-10.14,21.15-13.11,32.74-13.11h.1c25.4.17,35.44,9.16,35.47,20.46v.07c-.08,5.53-2.58,9.7-9.84,13.1s-19.36,5.64-37.77,6.52c-39.36,2-63.54,17.41-63.54,50.84l0,.2h0v.15c.1,35.23,29.35,50.42,60.95,50.42H426c21.78,0,38.81-6.79,50.2-18.76l.48-.5.07.65a47.47,47.47,0,0,0,3.57,13.92l.2.4.25.57h28.35Z" style="fill: #e50043;fill-rule: evenodd"/>
          <polygon points="402.96 126.45 387.45 108.39 386.7 89.59 360.11 50.55 354.19 31.75 332.01 10.06 332.01 0 309.23 12.87 294.33 37.54 279.53 36.8 264.03 56.34 241.15 81.19 232.52 93.31 272.13 88.85 316.18 103.7 331.29 132.22 365.53 154.55 410.76 154.22 442.14 162.64 403.68 138.04 402.96 126.45" style="fill: #54565a;fill-rule: evenodd"/>
          <polygon points="234.76 137.84 216.49 102.78 221.61 91.96 216.16 76.01 220.5 62.03 219.28 32.89 182.8 59.09 167.17 84.33 149.64 89.02 123.5 109.95 94.25 147.15 70.57 165.29 106.64 166.9 147.03 148.24 172.42 163.25 217.54 162.38 232.22 169.7 244.74 163.91 236.94 160.03 234.76 137.84" style="fill: #54565a;fill-rule: evenodd"/>
          <path d="M541.18,145.59l-9-43.24L510.4,70l-9-23.5L479.67,59.05,461.11,77.88l-31.49,4.51L406.14,94.26l9.23,12.93,38.06,21.54,25.51,24.16,22.48,2.24,36,19.8h49.47s-24.84-20.36-26.24-21.3S541.18,145.59,541.18,145.59Z" style="fill: #54565a;fill-rule: evenodd"/>
</svg>