<?xml version="1.0" encoding="utf-8"?>
<!-- Generator: $$$/GeneralStr/196=Adobe Illustrator 27.6.0, SVG Export Plug-In . SVG Version: 6.00 Build 0)  -->
<svg version="1.1" id="logo" xmlns="http://www.w3.org/2000/svg" xmlns:xlink="http://www.w3.org/1999/xlink" x="0px" y="0px"
	 viewBox="0 0 117 46" style="enable-background:new 0 0 117 46;" xml:space="preserve">
<style type="text/css">
	.st0{fill:#283276;}
	.st1{fill:#F29FC5;}
	.st2{fill:#008ECF;}
	.st3{fill:#E1000F;}
	.st4{fill:#FFE000;}
</style>
<path class="st0" d="M40.9,32.6c0,2.1-1.7,3.9-3.9,3.9c-2.1,0-3.9-1.7-3.9-3.9c0-2.1,1.7-3.9,3.9-3.9C39.2,28.8,40.9,30.5,40.9,32.6
	"/>
<path class="st1" d="M15.5,18.2c0,2.1-1.7,3.9-3.9,3.9s-3.9-1.7-3.9-3.9c0-2.1,1.7-3.9,3.9-3.9S15.5,16.1,15.5,18.2"/>
<path class="st2" d="M33.7,28.4c0,2.1-1.7,3.9-3.9,3.9S26,30.5,26,28.4c0-2.1,1.7-3.9,3.9-3.9S33.7,26.3,33.7,28.4"/>
<path class="st1" d="M24.3,33.1c0,2.1-1.7,3.9-3.9,3.9s-3.9-1.7-3.9-3.9c0-2.1,1.7-3.9,3.9-3.9S24.3,30.9,24.3,33.1"/>
<path class="st0" d="M24.3,42.1c0,2.1-1.7,3.9-3.9,3.9c-2.1,0-3.9-1.7-3.9-3.9c0-2.1,1.7-3.9,3.9-3.9C22.6,38.3,24.3,40,24.3,42.1"
	/>
<path class="st0" d="M40.9,13.4c0,2.1-1.7,3.9-3.9,3.9c-2.1,0-3.9-1.7-3.9-3.9c0-2.1,1.7-3.9,3.9-3.9C39.2,9.6,40.9,11.3,40.9,13.4"
	/>
<path class="st0" d="M33.7,18.2c0,2.1-1.7,3.9-3.9,3.9S26,20.4,26,18.2c0-2.1,1.7-3.9,3.9-3.9S33.7,16.1,33.7,18.2"/>
<path class="st0" d="M15,28.7c0,2.1-1.7,3.9-3.9,3.9s-3.9-1.7-3.9-3.9c0-2.1,1.7-3.9,3.9-3.9S15,26.6,15,28.7"/>
<path class="st0" d="M7.6,12.6c0.5,2.1-0.8,4.1-2.9,4.6c-2.1,0.5-4.1-0.8-4.6-2.9C-0.3,12.2,1,10.1,3,9.7C5.1,9.2,7.2,10.5,7.6,12.6
	"/>
<path class="st3" d="M7.3,20.9c-0.2,1.2-1.3,2-2.5,1.9c-1.2-0.2-2-1.3-1.9-2.5c0.2-1.2,1.3-2,2.5-1.9C6.6,18.6,7.4,19.7,7.3,20.9"/>
<path class="st3" d="M29.4,36.8c-0.2,1.4-1.5,2.3-2.9,2.1c-1.4-0.2-2.3-1.5-2.1-2.9c0.2-1.4,1.5-2.3,2.9-2.1
	C28.6,34.1,29.5,35.4,29.4,36.8"/>
<path class="st3" d="M36.8,20.8c-0.1,0.8-0.9,1.4-1.7,1.3c-0.8-0.1-1.4-0.9-1.3-1.7c0.1-0.8,0.9-1.4,1.7-1.3
	C36.4,19.2,36.9,20,36.8,20.8"/>
<path class="st3" d="M21.8,13.7c-0.2,1.2-1.3,2-2.5,1.9c-1.2-0.2-2-1.3-1.9-2.5c0.2-1.2,1.3-2,2.5-1.9C21.2,11.4,22,12.5,21.8,13.7"
	/>
<path class="st1" d="M28.1,10.8c-0.2,1.2-1.3,2-2.5,1.9c-1.2-0.2-2-1.3-1.9-2.5c0.2-1.2,1.3-2,2.5-1.9C27.5,8.5,28.3,9.6,28.1,10.8"
	/>
<path class="st4" d="M13.9,34.9c-0.2,1.2-1.3,2-2.5,1.9c-1.2-0.2-2-1.3-1.9-2.5c0.2-1.2,1.3-2,2.5-1.9C13.2,32.6,14,33.8,13.9,34.9"
	/>
<path class="st4" d="M35.4,25.1c-0.2,1.2-1.3,2-2.5,1.9c-1.2-0.2-2-1.3-1.9-2.5c0.2-1.2,1.3-2,2.5-1.9
	C34.8,22.8,35.6,23.9,35.4,25.1"/>
<path class="st0" d="M32.9,35.3c0.6,1,0.3,2.4-0.7,3c-1,0.6-2.4,0.3-3-0.7c-0.6-1-0.3-2.4,0.7-3C30.9,33.9,32.3,34.3,32.9,35.3"/>
<path class="st4" d="M16.2,9.5c-0.2,1.2-1.3,2-2.5,1.9c-1.2-0.2-2-1.3-1.9-2.5c0.2-1.2,1.3-2,2.5-1.9C15.5,7.2,16.3,8.3,16.2,9.5"/>
<path class="st2" d="M24.5,4c0,2.2-1.8,4-4,4c-2.2,0-4-1.8-4-4c0-2.2,1.8-4,4-4C22.7,0,24.5,1.8,24.5,4"/>
<path class="st2" d="M7.7,32.6c0,2.1-1.7,3.9-3.9,3.9S0,34.7,0,32.6c0-2.1,1.7-3.9,3.9-3.9S7.7,30.5,7.7,32.6"/>
<path class="st2" d="M26.7,22.2c0,3.7-3,6.7-6.7,6.7c-3.7,0-6.7-3-6.7-6.7c0-3.7,3-6.7,6.7-6.7C23.7,15.5,26.7,18.5,26.7,22.2"/>
<polygon class="st0" points="50,8.9 56.8,8.9 56.8,10.6 52,10.6 52,14.1 56.1,14.1 56.1,15.8 52,15.8 52,21.1 50,21.1 "/>
<path class="st0" d="M58.4,12.4h1.8v1c0.6-0.7,1.4-1.2,2.5-1.2c0.3,0,0.5,0.1,0.8,0.1v1.8c-0.3-0.1-0.6-0.1-0.9-0.1
	c-1.1,0-1.8,0.6-2.3,1.3v5.9h-1.8V12.4z"/>
<path class="st0" d="M64.4,18.9c0-1.3,1-2.3,2.9-2.6l2.8-0.5v-0.5c0-1.1-0.8-1.7-1.9-1.7c-1,0-1.7,0.4-2.2,1.1l-1.3-1
	c0.8-1,2-1.7,3.6-1.7c2.4,0,3.7,1.4,3.7,3.3v5.8h-1.8v-1c-0.6,0.8-1.7,1.3-2.8,1.3C65.6,21.4,64.4,20.4,64.4,18.9 M67.7,19.9
	c1.1,0,2-0.5,2.5-1.4v-1.5l-2.4,0.4c-1.1,0.2-1.6,0.7-1.6,1.3C66.3,19.5,66.8,19.9,67.7,19.9"/>
<path class="st0" d="M74.5,12.4h1.8v0.9c0.7-0.7,1.5-1.2,2.8-1.2c1.9,0,3.4,1.3,3.4,3.8v5.3h-1.8v-5.2c0-1.4-0.8-2.2-2-2.2
	c-1.2,0-1.9,0.7-2.4,1.5v5.9h-1.8V12.4z"/>
<path class="st0" d="M91.7,18.6l1.4,1.1c-0.8,1.1-2.1,1.8-3.7,1.8c-2.9,0-4.8-2.2-4.8-4.7s1.8-4.7,4.8-4.7c1.6,0,2.9,0.7,3.7,1.8
	l-1.4,1.1c-0.5-0.7-1.3-1.2-2.3-1.2c-1.7,0-2.9,1.3-2.9,3c0,1.7,1.2,3,2.9,3C90.4,19.8,91.2,19.3,91.7,18.6"/>
<path class="st0" d="M99,21.5c-3,0-4.8-2.2-4.8-4.7c0-2.6,1.7-4.7,4.5-4.7c2.4,0,4,1.7,4,3.9c0,0.4-0.1,0.8-0.1,1.1H96
	c0.1,1.9,1.3,2.9,3,2.9c1.1,0,2-0.5,2.5-1.2l1.3,1C102,20.8,100.7,21.5,99,21.5 M96.1,15.6h4.7c0-1.1-0.8-2.1-2.2-2.1
	C97.3,13.5,96.4,14.3,96.1,15.6"/>
<polygon class="st0" points="48.7,24.6 58.5,24.6 58.5,26.4 54.6,26.4 54.6,36.8 52.6,36.8 52.6,26.4 48.7,26.4 "/>
<path class="st0" d="M59.4,28h1.8v1c0.6-0.7,1.4-1.2,2.5-1.2c0.3,0,0.5,0.1,0.8,0.1v1.8c-0.3-0.1-0.6-0.1-0.9-0.1
	c-1.1,0-1.8,0.6-2.3,1.3v5.9h-1.8V28z"/>
<path class="st0" d="M65.4,34.5c0-1.3,1-2.3,2.9-2.6l2.8-0.5V31c0-1.1-0.8-1.7-1.9-1.7c-1,0-1.7,0.4-2.2,1.1l-1.3-1
	c0.8-1,2-1.7,3.6-1.7c2.4,0,3.7,1.4,3.7,3.3v5.8h-1.8v-1c-0.6,0.8-1.7,1.3-2.8,1.3C66.6,37.1,65.4,36.1,65.4,34.5 M68.7,35.6
	c1.1,0,2-0.5,2.5-1.4v-1.5l-2.4,0.4c-1.1,0.2-1.6,0.7-1.6,1.3C67.2,35.1,67.8,35.6,68.7,35.6"/>
<polygon class="st0" points="76.3,28 78.9,34.8 81.5,28 83.4,28 80.1,36.8 77.7,36.8 74.4,28 "/>
<path class="st0" d="M84.4,34.5c0-1.3,1-2.3,2.9-2.6l2.8-0.5V31c0-1.1-0.8-1.7-1.9-1.7c-1,0-1.7,0.4-2.2,1.1l-1.3-1
	c0.8-1,2-1.7,3.6-1.7c2.4,0,3.7,1.4,3.7,3.3v5.8h-1.8v-1c-0.6,0.8-1.7,1.3-2.8,1.3C85.5,37.1,84.4,36.1,84.4,34.5 M87.6,35.6
	c1.1,0,2-0.5,2.5-1.4v-1.5l-2.4,0.4c-1.1,0.2-1.6,0.7-1.6,1.3C86.2,35.1,86.7,35.6,87.6,35.6"/>
<rect x="94.7" y="28" class="st0" width="1.8" height="8.8"/>
<rect x="99.4" y="23.7" class="st0" width="1.8" height="13.1"/>
<path class="st0" d="M94.5,25.3c0-0.6,0.5-1.1,1.1-1.1c0.6,0,1.1,0.5,1.1,1.1c0,0.6-0.5,1.1-1.1,1.1C95,26.4,94.5,25.9,94.5,25.3"/>
</svg>
