<svg width="282" height="26" viewBox="0 0 282 26" fill="none" xmlns="http://www.w3.org/2000/svg">
<path d="M23.8508 0H22.8348L17.2214 22.9777C17.2134 23.0412 17.206 23.1053 17.1953 23.1688L25.3902 16.2179V1.53871C25.3902 0.689143 24.701 0 23.8515 0H23.8508Z" fill="#C02548"/>
<path d="M6.62272 0H1.53871C0.689143 0 0 0.689143 0 1.53871V8.08723L14.0843 18.0882L6.62272 0Z" fill="#63A4F5"/>
<path d="M23.8506 25.3893C24.7002 25.3893 25.3893 24.7002 25.3893 23.8506V18.1116L16.8081 25.3893H23.8506Z" fill="#63A4F5"/>
<path d="M8.24902 0L16.5254 20.0567L21.4256 0H8.24902Z" fill="#63A4F5"/>
<path d="M13.9359 19.645L0 9.74634V23.8507C0 24.7003 0.689143 25.3894 1.53871 25.3894H14.6592L14.8797 25.0759C16.1136 23.3233 15.6905 20.8916 13.9359 19.6457V19.645ZM12.7094 24.1836C11.7783 24.1836 11.0236 23.4289 11.0236 22.4978C11.0236 21.5667 11.7783 20.8121 12.7094 20.8121C13.6405 20.8121 14.3951 21.5667 14.3951 22.4978C14.3951 23.4289 13.6405 24.1836 12.7094 24.1836Z" fill="#63A4F5"/>
<path d="M37.9391 0.429443V25.6318H30.0562V0.429443H37.9391Z" fill="black"/>
<path d="M65.6017 25.6318H57.7187L49.3742 12.9601V25.6318H41.4912V0.429443H49.3742L57.7187 13.315V0.429443H65.6017V25.6318Z" fill="black"/>
<path d="M86.5355 2.03143C88.5125 3.09943 90.0328 4.58201 91.0982 6.48085C92.1636 8.37969 92.6963 10.5389 92.6963 12.9601C92.6963 15.3814 92.1636 17.5157 91.0982 19.4394C90.0312 21.3615 88.5125 22.8739 86.5355 23.9767C84.5586 25.0812 82.2557 25.6318 79.6286 25.6318H69.1533V0.429443H79.6286C82.2557 0.429443 84.5586 0.96344 86.5355 2.03143ZM83.1441 17.1243C84.1864 16.1508 84.7058 14.7628 84.7058 12.9601C84.7058 11.1575 84.1864 9.76775 83.1441 8.79429C82.1019 7.82248 80.694 7.33492 78.9173 7.33492H77.0363V18.5837H78.9173C80.6924 18.5837 82.1019 18.0978 83.1441 17.1243Z" fill="black"/>
<path d="M103.42 0.429443V25.6318H95.5371V0.429443H103.42Z" fill="black"/>
<path d="M114.855 6.72961V9.8258H122.667V15.7694H114.855V19.3299H123.732V25.6301H106.97V0.429443H123.732V6.72961H114.855Z" fill="black"/>
<path d="M152.033 0.429443L143.581 25.6318H133.39L124.938 0.429443H133.319L138.504 17.7644L143.654 0.429443H152.033Z" fill="black"/>
<path d="M161.691 0.429443V25.6318H153.808V0.429443H161.691Z" fill="black"/>
<path d="M182.625 2.03143C184.602 3.09943 186.122 4.58201 187.188 6.48085C188.253 8.37969 188.786 10.5389 188.786 12.9601C188.786 15.3814 188.253 17.5157 187.188 19.4394C186.121 21.3615 184.602 22.8739 182.625 23.9767C180.648 25.0812 178.345 25.6318 175.718 25.6318H165.243V0.429443H175.718C178.345 0.429443 180.648 0.96344 182.625 2.03143ZM179.233 17.1243C180.276 16.1508 180.795 14.7628 180.795 12.9601C180.795 11.1575 180.276 9.76775 179.233 8.79429C178.191 7.82248 176.783 7.33492 175.007 7.33492H173.126V18.5837H175.007C176.782 18.5837 178.191 18.0978 179.233 17.1243Z" fill="black"/>
<path d="M199.332 0.429443V14.6334C199.332 15.7959 199.587 16.7147 200.095 17.3913C200.603 18.0679 201.426 18.4062 202.563 18.4062C203.699 18.4062 204.54 18.0679 205.084 17.3913C205.628 16.7147 205.9 15.7959 205.9 14.6334V0.429443H213.748V14.6334C213.748 17.0298 213.252 19.0779 212.256 20.7727C211.262 22.4709 209.9 23.7445 208.173 24.6003C206.446 25.456 204.515 25.8822 202.384 25.8822C200.253 25.8822 198.366 25.4543 196.72 24.6003C195.075 23.7462 193.792 22.4775 192.867 20.791C191.944 19.1061 191.48 17.0547 191.48 14.6334V0.429443H199.329H199.332Z" fill="black"/>
<path d="M233.28 21.8225H224.899L223.656 25.6318H215.383L224.579 0.429443H233.672L242.832 25.6318H234.522L233.28 21.8225ZM231.362 15.8772L229.089 8.86394L226.816 15.8772H231.362Z" fill="black"/>
<path d="M252.492 19.6517H260.09V25.6318H244.607V0.429443H252.49V19.6517H252.492Z" fill="black"/>
<path d="M264.972 23.7629C263.018 22.3499 261.959 20.2786 261.792 17.5506H270.173C270.292 18.9983 270.931 19.7214 272.09 19.7214C272.517 19.7214 272.878 19.6219 273.174 19.4179C273.468 19.2172 273.617 18.9022 273.617 18.4743C273.617 17.8823 273.298 17.4013 272.658 17.0332C272.019 16.665 271.025 16.2438 269.675 15.7695C268.065 15.2007 266.734 14.6418 265.68 14.0962C264.626 13.5506 263.721 12.7562 262.963 11.7114C262.206 10.6667 261.838 9.32504 261.861 7.68823C261.861 6.05141 262.282 4.65837 263.122 3.5058C263.961 2.35489 265.111 1.48259 266.566 0.888889C268.022 0.296849 269.662 0 271.483 0C274.56 0 277.005 0.713101 278.817 2.13599C280.628 3.56053 281.581 5.56385 281.676 8.15091H273.189C273.166 7.43781 272.989 6.92869 272.656 6.62023C272.325 6.31177 271.922 6.15755 271.45 6.15755C271.118 6.15755 270.846 6.27031 270.634 6.49585C270.421 6.72139 270.314 7.03648 270.314 7.43947C270.314 8.00995 270.628 8.47761 271.255 8.84577C271.882 9.21393 272.881 9.66003 274.254 10.1808C275.841 10.7728 277.148 11.3433 278.178 11.8889C279.209 12.4362 280.102 13.1957 280.858 14.1675C281.618 15.141 281.995 16.3632 281.995 17.8342C281.995 19.3051 281.616 20.7579 280.858 21.9818C280.101 23.204 279.001 24.1592 277.556 24.8474C276.112 25.5357 274.396 25.8806 272.406 25.8806C269.399 25.8806 266.92 25.1741 264.968 23.7629H264.972Z" fill="black"/>
</svg>
