<svg style="width: 90px; top: 2px; position: relative;" xmlns="http://www.w3.org/2000/svg" viewBox="0 0 383 128" fill="none"><path d="M327.262 119.94v8.058h55.308V91.655h-8.059v28.285h-47.249Zm0-119.94v8.058h47.249v28.287h8.059V0h-55.308ZM298.74 62.341V43.616h12.642c6.164 0 8.376 2.054 8.376 7.664v3.318c0 5.768-2.134 7.743-8.376 7.743H298.74Zm20.068 3.318c5.767-1.501 9.796-6.875 9.796-13.273 0-4.03-1.579-7.665-4.581-10.589-3.793-3.635-8.851-5.452-15.408-5.452h-17.777v55.308h7.902V69.61h11.852c6.083 0 8.533 2.528 8.533 8.85v13.195h8.059V79.724c0-8.692-2.054-12.01-8.376-12.958V65.66Zm-66.526 1.817h24.336v-7.269h-24.336V43.614h26.706v-7.269h-34.766v55.308h35.951v-7.269h-27.891V67.476Zm-26.47 2.924v3.792c0 7.98-2.924 10.588-10.271 10.588h-1.738c-7.349 0-10.904-2.371-10.904-13.354V56.572c0-11.061 3.714-13.354 11.061-13.354h1.579c7.191 0 9.482 2.687 9.56 10.114h8.692c-.79-10.904-8.059-17.776-18.963-17.776-5.293 0-9.718 1.66-13.036 4.819-4.978 4.662-7.743 12.563-7.743 23.624 0 10.667 2.371 18.568 7.269 23.466 3.318 3.24 7.901 4.978 12.405 4.978 4.74 0 9.087-1.897 11.298-6.005h1.105v5.215h7.269V63.13h-21.412v7.27h13.829Zm-69.686-26.786h8.613c8.139 0 12.564 2.054 12.564 13.116v14.538c0 11.06-4.425 13.116-12.564 13.116h-8.613v-40.77Zm9.323 48.04c15.092 0 20.7-11.456 20.7-27.653 0-16.434-6.004-27.654-20.859-27.654h-17.067v55.308h17.226Zm-55.386-24.178h24.336v-7.269h-24.336V43.614h26.705v-7.269h-34.766v55.308h35.952v-7.269h-27.891V67.476Zm-46.617-31.13h-8.058v55.307h36.345v-7.269H63.446V36.345ZM0 91.654V128h55.308v-8.06H8.058V91.655H0ZM0 0v36.345h8.058V8.058h47.25V0H0Z" fill="currentColor"/></svg>
