<svg width="1021" height="90" viewBox="0 0 1021 90" fill="none" xmlns="http://www.w3.org/2000/svg">
<path d="M842.726 63.9971H897.503V82.9417H819.668V7.16357H897.503V26.1081H842.726V35.5262H893.281V54.4707H842.726V63.9971Z" fill="black"/>
<path d="M763.083 35.5277C791.338 36.502 808.983 38.6671 808.983 59.7767C808.983 80.7781 790.905 85 762.65 85C733.205 85 716.426 80.7781 716.426 57.6116H739.484C739.484 66.0555 749.119 66.0555 762.65 66.0555C776.074 66.0555 785.6 66.0555 785.6 59.7767C785.6 52.3072 775.749 52.8484 762.434 52.3072H762.326C734.071 51.3329 717.4 49.1678 717.4 29.249C717.4 9.22193 734.396 5 762.65 5C792.096 5 807.901 9.22193 807.901 32.3884H784.734C784.734 23.9445 776.29 23.9445 762.65 23.9445C749.335 23.9445 740.783 23.9445 740.783 29.249C740.783 35.636 749.66 35.0947 762.975 35.5277H763.083Z" fill="black"/>
<path d="M618.984 45.0526V7.16357H642.043V45.0526C642.043 61.8321 650.486 66.054 663.152 66.054C675.818 66.054 684.154 61.8321 684.154 45.0526V7.16357H707.32V45.0526C707.32 76.5546 688.375 84.9985 663.152 84.9985C637.821 84.9985 618.984 76.5546 618.984 45.0526Z" fill="black"/>
<path d="M610.014 45.0541C610.014 76.5562 593.126 85 561.624 85C532.071 85 513.234 76.5562 513.234 45.0541C513.234 15.5007 530.014 5 561.624 5C593.126 5 610.014 15.5007 610.014 45.0541ZM584.791 45.0541C584.791 28.1664 576.563 23.9445 561.624 23.9445C546.902 23.9445 538.458 28.1664 538.458 45.0541C538.458 61.8336 546.902 66.0555 561.624 66.0555C576.347 66.0555 584.791 61.8336 584.791 45.0541Z" fill="black"/>
<path d="M479.835 7.16357H503.002V82.9417H479.835V54.4707H437.724V82.9417H414.666V7.16357H437.724V35.5262H479.835V7.16357Z" fill="black"/>
<path d="M406.891 7.16357V26.1081H376.363V82.9417H353.197V26.1081H322.777V7.16357H406.891Z" fill="black"/>
<path d="M291.87 7.16357H315.037V82.9417H291.87V54.4707H249.759V82.9417H226.701V7.16357H249.759V35.5262H291.87V7.16357Z" fill="black"/>
<path d="M168.825 42.889H215.158V82.9432H198.271V79.5873C190.476 83.5927 179.867 85 166.769 85C137.323 85 118.379 76.5562 118.379 45.0541C118.379 15.5007 135.158 5 166.769 5C194.265 5 210.503 13.0108 214.292 34.4452H188.311C185.28 26.3261 177.919 23.9445 166.769 23.9445C152.046 23.9445 143.602 28.1664 143.602 45.0541C143.602 61.8336 152.046 66.0555 166.769 66.0555C175.537 66.0555 182.141 64.5399 185.93 59.7767H168.825V42.889Z" fill="black"/>
<path d="M108.097 82.9417H85.0391V7.16357H108.097V82.9417Z" fill="black"/>
<path d="M23.0582 63.9971H75.7781V82.9417H0V7.16357H23.0582V63.9971Z" fill="black"/>
<path fill-rule="evenodd" clip-rule="evenodd" d="M989.908 0.00179968L1007.38 0.2246C1011.03 0.2899 1013.96 3.0843 1013.96 6.5091L1020.68 86.1055C1020.83 87.8558 1019.45 89.3581 1017.69 89.3581H1003.95L1001.37 80.8551H990.396L980.832 39.5153H964.094L954.579 80.8303L943.597 80.8254L940.993 89.2787H927.264C925.508 89.2787 924.127 87.7767 924.274 86.0266L931 6.2855C931 2.8137 934.006 -0.000599765 937.713 9.58764e-08L952.904 0.00179968H989.908ZM973.274 35.6667C973.274 36.1061 972.919 36.4608 972.48 36.4608C972.04 36.4608 971.686 36.1061 971.686 35.6667C971.686 26.5968 962.881 22.6219 954.357 22.6219C953.917 22.6219 953.563 22.2672 953.563 21.8278C953.563 21.3884 953.917 21.0337 954.357 21.0337C962.881 21.0337 971.686 17.0535 971.686 7.98894C971.686 7.54952 972.04 7.19482 972.48 7.19482C972.919 7.19482 973.274 7.54952 973.274 7.98894C973.274 17.0535 982.079 21.0337 990.603 21.0337C991.042 21.0337 991.397 21.3884 991.397 21.8278C991.397 22.2672 991.042 22.6219 990.603 22.6219C982.079 22.6219 973.274 26.5968 973.274 35.6667Z" fill="#1C1B1A"/>
</svg>
