<svg class="w-[12] h-auto" xmlns="http://www.w3.org/2000/svg" viewBox="0 0 800 146"><path d="M288 55.741v86.25l31.307-.013L319.241 39 288 55.741m32.041-43.359c-1.188-3.365-3.698-6.596-6.85-8.819-7.124-4.298-17.357-3.067-22.84 2.764-4.148 3.877-6.134 10.367-5.066 16.573.841 5.802 5.59 10.457 9.618 12.323 6.64 2.658 16.515 2.116 22.537-5.319 3.411-4.088 4.51-11.465 2.601-17.537v.015M132.127 55.755c-1.593-6.427-7.051-11.969-13.275-13.441-14.392-3.538-27.49 1.949-35.059 14.679l-.711 1.185-.502-1.281c-3.772-9.419-9.736-14.637-17.728-15.496-13.303-2.067-23.569 2.998-33.358 16.436l-1.226 1.69V40C28.429 40.939 0 55.414 0 55.414v86.694h30.268l.062-64.906c0-5.068 5.028-9.52 10.062-9.355 4.717.153 9.458 4.605 9.458 9.355l.015 64.834h31.586c0-1.182-.055-64.834-.055-64.834.054-5.127 5.466-9.584 10.627-9.355 4.72.209 9.228 4.666 9.228 9.355v64.808h31.763l-.054-75.09c0-3.093 0-7.573-.833-11.165m88.452 74.099c-2.71-.261-3.456-6.008-3.456-6.008 0-.054-5.76-34.232-5.76-34.232 0 .043-1.362-6.643-1.362-6.643-1.4-7.11-2.858-14.475-5.567-21.242-8.851-20.518-34.248-23.893-52.952-18.351-3 .911-5.841 2.449-5.841 2.449v12.718c7.69-3.337 15.195-3.541 21.267-.655 7.897 3.824 10.124 13.558 10.534 17.587 0 .069.693 4.505.693 4.505-9.123 1.376-20.458 3.629-28.82 9.523-9.34 6.659-14.256 17.269-13.165 28.351.34 11.789 9.463 21.226 18.273 24.495 11.709 4.137 27.779 3.469 37.337-7.532.055-.055 1.17-1.301 1.17-1.301l2.706 2.635c6.973 7.311 14.612 7.081 23.463 6.821l4.695-.094-.003-12.544s-3.13-.451-3.212-.482Zm-40.135-34.783 5.717 27.72c-14.726 16.98-38.982-12.821-5.717-27.72ZM280.47 39.096c-13.806 0-21.338 16.013-21.418 16.191l-1.307 3.078v-1.964L257.733 39 227 55.733l.028 86.501 30.839-.011V86.858l.123-2.067c.272-4.563.53-9.274 2.669-13.249 4.615-8.918 15.305-8.728 22.779-7.762l5.418-23.241s-3.404-1.43-8.386-1.443m440.386 1.444s-3.404-1.429-8.387-1.443c-13.806 0-21.334 16.013-21.417 16.192l-1.308 3.078v-1.966L689.732 39 659 55.735l.029 86.5 30.837-.012V86.858l.121-2.067c.274-4.563.532-9.273 2.671-13.249 4.616-8.917 15.303-8.728 22.779-7.761l5.419-23.241m-64.814-29.156c-1.188-3.365-3.697-6.598-6.852-8.82-7.123-4.3-17.357-3.067-22.841 2.763-4.145 3.877-6.132 10.37-5.064 16.573.842 5.802 5.59 10.46 9.618 12.325 6.64 2.658 16.514 2.116 22.537-5.32 3.412-4.088 4.511-11.466 2.602-17.537v.016m107.403 117.66c-12.214-.898-18.011-23.48-18.011-23.48l53.084-17.148s-1.001-23.191-13.81-35.778c-11.724-11.52-29.51-14.95-45.875-8.203-9.738 3.77-18.738 13.899-22.915 25.786-8.161 22.629-3.306 47.948 12.08 62.99 14.2 13.595 36.29 13.342 52.234 8.564-.062.014 8.034-3.456 8.034-3.456l-.011-14.366s-9.693 6.196-24.81 5.09Zm-18.738-37.94c-.843-9.737.359-20.145 2.705-24.922 2.374-4.854 5.06-6.725 8.355-7.123 14.073-1.708 15.632 24.109 15.632 24.109l-26.692 7.997c.018.016 0-.075 0-.061ZM624 55.741v86.25l31.304-.013L655.241 39 624 55.741m-228.291-3.103c-11.726-11.521-29.512-14.95-45.876-8.202-9.738 3.77-18.738 13.897-22.916 25.784-8.16 22.629-3.305 47.948 12.083 62.99 14.197 13.6 36.287 13.344 52.23 8.566-.06.012 8.038-3.458 8.038-3.458l-.015-14.364s-9.69 6.196-24.807 5.088c-12.215-.895-18.013-23.476-18.013-23.476l53.083-17.151s-.998-23.19-13.807-35.777Zm-40.002 38.528c.016.015 0-.077 0-.06-.843-9.736.36-20.146 2.705-24.925 2.374-4.854 5.06-6.723 8.353-7.121 14.077-1.708 15.636 24.107 15.636 24.107l-26.694 7.999Zm120.022 34.465c-8.209-4.269-15.075-10.539-15.953-28.53-1.022-20.954 3.143-35.676 14.333-39.943 8.49-3.238 20.145 3.905 20.145 3.905l.116-16.935s-15.98-7.746-33.918-2.017c-16.196 5.176-26.634 17.798-30.335 38.44-2.695 15.036-.557 31.644 6.89 44.7 8.58 14.134 24.842 21.487 43.394 18.968 5.047-.686 15.559-3.923 15.559-3.923l-.146-15.648s-11.623 5.387-20.085.983m141.848 3.221c-2.71-.26-3.456-6.005-3.456-6.005 0-.054-5.758-34.232-5.758-34.232 0 .04-1.362-6.643-1.362-6.643-1.402-7.11-2.86-14.475-5.567-21.244-8.851-20.518-34.248-23.89-52.952-18.35-3 .91-5.843 2.45-5.843 2.45v12.716c7.693-3.337 15.197-3.54 21.267-.655 7.899 3.826 10.127 13.558 10.535 17.59 0 .067.694 4.505.694 4.505-9.125 1.373-20.46 3.626-28.82 9.523-9.34 6.657-14.256 17.266-13.165 28.348.339 11.791 9.463 21.226 18.272 24.495 11.71 4.14 27.778 3.471 37.338-7.532.053-.054 1.17-1.298 1.17-1.298l2.707 2.632c6.97 7.313 14.609 7.083 23.46 6.823l4.697-.096-.003-12.546s-3.132-.447-3.214-.48Zm-40.133-34.78 5.717 27.72c-14.726 16.98-38.984-12.82-5.717-27.72ZM499 141.802h30.769V8L499 24.474v117.328" fill="currentColor"/></svg>
