<?xml version="1.0" encoding="UTF-8" standalone="no"?>
<svg
   xmlns:dc="http://purl.org/dc/elements/1.1/"
   xmlns:cc="http://creativecommons.org/ns#"
   xmlns:rdf="http://www.w3.org/1999/02/22-rdf-syntax-ns#"
   xmlns:svg="http://www.w3.org/2000/svg"
   xmlns="http://www.w3.org/2000/svg"
   xmlns:sodipodi="http://sodipodi.sourceforge.net/DTD/sodipodi-0.dtd"
   xmlns:inkscape="http://www.inkscape.org/namespaces/inkscape"
   sodipodi:docname="Paytm logo.svg"
   inkscape:version="1.0 (4035a4fb49, 2020-05-01)"
   id="svg398"
   version="1.1"
   viewBox="0 0 16.837998 5.2849998"
   height="10.2849998mm"
   width="16.837999mm">
  <defs
     id="defs392" />
  <sodipodi:namedview
     inkscape:window-maximized="0"
     inkscape:window-y="0"
     inkscape:window-x="183"
     inkscape:window-height="1030"
     inkscape:window-width="1375"
     showgrid="false"
     inkscape:document-rotation="0"
     inkscape:current-layer="layer1"
     inkscape:document-units="mm"
     inkscape:cy="8.9720079"
     inkscape:cx="41.899999"
     inkscape:zoom="8"
     inkscape:pageshadow="2"
     inkscape:pageopacity="0.0"
     borderopacity="1.0"
     bordercolor="#666666"
     pagecolor="#ffffff"
     id="base" />
  <metadata
     id="metadata395">
    <rdf:RDF>
      <cc:Work
         rdf:about="">
        <dc:format>image/svg+xml</dc:format>
        <dc:type
           rdf:resource="http://purl.org/dc/dcmitype/StillImage" />
        <dc:title></dc:title>
      </cc:Work>
    </rdf:RDF>
  </metadata>
  <g
     id="layer1"
     inkscape:groupmode="layer"
     inkscape:label="Layer 1">
    <g
       transform="matrix(0.35277777,0,0,-0.35277777,16.777056,1.5610286)"
       id="g52">
      <path
         id="path54"
         style="fill:#54c1f0;fill-opacity:1;fill-rule:nonzero;stroke:none"
         d="M 0,0 C -0.433,1.238 -1.613,2.127 -2.999,2.127 H -3.028 C -3.929,2.127 -4.741,1.752 -5.319,1.15 -5.898,1.752 -6.71,2.127 -7.61,2.127 h -0.029 c -0.792,0 -1.516,-0.29 -2.072,-0.77 V 1.601 C -9.73,1.844 -9.93,2.035 -10.177,2.035 h -2.126 c -0.26,0 -0.47,-0.21 -0.47,-0.471 V -9.981 c 0,-0.261 0.21,-0.471 0.47,-0.471 h 2.126 c 0.237,0 0.432,0.177 0.463,0.406 l -10e-4,8.288 c 0,0.029 10e-4,0.056 0.004,0.083 0.034,0.37 0.305,0.674 0.733,0.712 h 0.079 0.223 0.09 c 0.179,-0.016 0.33,-0.079 0.449,-0.174 0.185,-0.147 0.288,-0.373 0.288,-0.621 l 0.008,-8.247 c 0,-0.261 0.211,-0.472 0.47,-0.472 h 2.126 c 0.251,0 0.455,0.2 0.467,0.449 l -0.001,8.281 c -0.001,0.272 0.125,0.518 0.346,0.664 0.109,0.07 0.24,0.117 0.391,0.131 h 0.079 0.223 0.09 c 0.46,-0.04 0.738,-0.389 0.737,-0.795 l 0.008,-8.236 c 0,-0.261 0.211,-0.471 0.47,-0.471 h 2.126 c 0.259,0 0.47,0.21 0.47,0.471 v 8.858 C 0.161,-0.521 0.093,-0.264 0,0" />
    </g>
    <g
       transform="matrix(0.35277777,0,0,-0.35277777,11.699676,0.85374862)"
       id="g56">
      <path
         id="path58"
         style="fill:#54c1f0;fill-opacity:1;fill-rule:nonzero;stroke:none"
         d="m 0,0 h -1.216 v 1.97 0 c 0,0.002 0,0.004 0,0.006 0,0.237 -0.192,0.429 -0.429,0.429 C -1.673,2.405 -1.7,2.401 -1.726,2.396 -3.074,2.026 -2.804,0.159 -5.265,0 H -5.32 -5.504 c -0.036,0 -0.07,-0.005 -0.103,-0.012 h -0.002 l 0.002,-10e-4 C -5.817,-0.06 -5.975,-0.246 -5.975,-0.47 v -2.126 c 0,-0.259 0.211,-0.47 0.471,-0.47 h 1.283 l -0.002,-9.015 c 0,-0.257 0.208,-0.465 0.465,-0.465 h 2.102 c 0.256,0 0.464,0.208 0.464,0.465 l 10e-4,9.015 H 0 c 0.259,0 0.47,0.211 0.47,0.47 V -0.47 C 0.47,-0.211 0.259,0 0,0" />
    </g>
    <g
       transform="matrix(0.35277777,0,0,-0.35277777,9.0012361,0.85374862)"
       id="g60">
      <path
         id="path62"
         style="fill:#233266;fill-opacity:1;fill-rule:nonzero;stroke:none"
         d="M 0,0 H -2.126 C -2.385,0 -2.595,-0.211 -2.595,-0.47 V -4.866 C -2.6,-5.138 -2.82,-5.356 -3.093,-5.356 h -0.89 c -0.276,0 -0.499,0.222 -0.499,0.498 L -4.49,-0.47 C -4.49,-0.211 -4.701,0 -4.96,0 h -2.126 c -0.26,0 -0.47,-0.211 -0.47,-0.47 v -4.818 c 0,-1.83 1.305,-3.135 3.136,-3.135 0,0 1.374,0 1.416,-0.008 0.248,-0.028 0.441,-0.236 0.441,-0.492 0,-0.253 -0.189,-0.46 -0.434,-0.491 -0.012,-0.002 -0.023,-0.005 -0.036,-0.007 l -3.109,-0.011 c -0.26,0 -0.47,-0.211 -0.47,-0.47 v -2.125 c 0,-0.26 0.21,-0.47 0.47,-0.47 h 3.476 c 1.832,0 3.136,1.304 3.136,3.135 V -0.47 C 0.47,-0.211 0.26,0 0,0" />
    </g>
    <g
       transform="matrix(0.35277777,0,0,-0.35277777,1.7417071,2.2279886)"
       id="g64">
      <path
         id="path66"
         style="fill:#233266;fill-opacity:1;fill-rule:nonzero;stroke:none"
         d="m 0,0 v -0.992 -0.32 c 0,-0.275 -0.223,-0.499 -0.498,-0.499 l -1.349,-0.001 v 2.629 h 1.349 C -0.223,0.817 0,0.595 0,0.319 Z M 0.187,3.896 H -4.46 c -0.255,0 -0.461,-0.207 -0.461,-0.461 V 1.352 c 0,-0.004 0.001,-0.008 0.001,-0.012 0,-0.01 -0.001,-0.02 -0.001,-0.029 V -5.37 -8.117 c 0,-0.256 0.192,-0.465 0.43,-0.471 h 0.04 2.126 c 0.259,0 0.47,0.21 0.47,0.47 l 0.008,3.231 h 2.034 c 1.702,0 2.888,1.181 2.888,2.89 v 2.999 c 0,1.709 -1.186,2.894 -2.888,2.894" />
    </g>
    <g
       transform="matrix(0.35277777,0,0,-0.35277777,4.8535941,3.9887686)"
       id="g68">
      <path
         id="path70"
         style="fill:#233266;fill-opacity:1;fill-rule:nonzero;stroke:none"
         d="M 0,0 V -0.332 C 0,-0.359 -0.004,-0.385 -0.008,-0.41 -0.013,-0.434 -0.02,-0.457 -0.028,-0.479 -0.094,-0.665 -0.28,-0.8 -0.501,-0.8 h -0.885 c -0.276,0 -0.501,0.21 -0.501,0.468 v 0.401 c 0,0.005 -10e-4,0.01 -10e-4,0.015 l 10e-4,1.067 v 0.002 0.118 0.214 l 0.001,0.003 c 10e-4,0.257 0.224,0.465 0.5,0.465 h 0.885 C -0.224,1.953 0,1.744 0,1.485 Z m -0.338,8.875 h -2.95 C -3.549,8.875 -3.76,8.677 -3.76,8.434 V 7.607 c 0,-0.005 10e-4,-0.011 10e-4,-0.016 0,-0.006 -10e-4,-0.012 -10e-4,-0.018 V 6.44 c 0,-0.257 0.224,-0.467 0.5,-0.467 h 2.809 c 0.222,-0.035 0.398,-0.197 0.423,-0.45 V 5.249 C -0.053,5.008 -0.227,4.832 -0.439,4.812 H -1.83 c -1.85,0 -3.168,-1.229 -3.168,-2.955 v -2.409 -0.063 c 0,-1.716 1.133,-2.937 2.97,-2.937 h 3.855 c 0.692,0 1.253,0.524 1.253,1.169 v 8.067 c 0,1.956 -1.008,3.191 -3.418,3.191" />
    </g>
  </g>
</svg>
