<svg width="147" height="24" viewBox="0 0 147 24" fill="black" xmlns="http://www.w3.org/2000/svg">
<g clip-path="url(#clip0_33_77)">
<path d="M11.3255 23.9998L20.9155 2.99707H15.3613L8.89407 17.1521L5.57687 9.89437H0L6.44459 23.9998H11.3255Z" fill="black"/>
<path fill-rule="evenodd" clip-rule="evenodd" d="M50.5441 2.58311C50.5441 1.86376 50.2825 1.24251 49.7921 0.752044C49.2689 0.261581 48.6476 0 47.8956 0C47.1108 0 46.4896 0.261581 45.9664 0.752044C45.4433 1.24251 45.2144 1.86376 45.2144 2.58311C45.2144 3.33515 45.4433 3.9564 45.9664 4.44687C46.4896 4.97003 47.1108 5.19891 47.8956 5.19891C48.6476 5.19891 49.2689 4.97003 49.7921 4.44687C50.2825 3.9564 50.5441 3.33515 50.5441 2.58311ZM50.1844 6.99728H45.5741H44.6593H44.5267H43.8745C42.632 6.99728 41.6184 7.22616 40.8991 7.65123C40.147 8.0763 39.5258 8.69755 39.0353 9.51499L38.6102 6.99728H34.425V23.8038H39.0353V15.564C39.0353 14.2234 39.3296 13.1444 39.9508 12.3597C40.5394 11.5749 41.5203 10.9082 42.8282 10.9082H44.6593V10.8883H45.5741V23.8038H50.1844V10.8883H53.3319V23.8038H57.9423V10.8883H63.9586V23.8038H68.569V6.99728H57.9423V6.21253C57.9423 5.75477 58.0403 5.3951 58.2692 5.16621C58.4654 4.97003 58.8251 4.83924 59.3156 4.83924H61.6371V0.915531H58.4C56.6998 0.915531 55.4573 1.3406 54.6071 2.12534C53.757 2.91008 53.3319 4.0545 53.3319 5.52589V6.99728H50.1844ZM16.2861 18.248C16.4607 18.86 16.6971 19.436 16.9954 19.9782C17.7147 21.2861 18.761 22.267 20.1343 22.9537C21.5076 23.673 23.1098 24 25.0063 24C26.4449 24 27.7202 23.7711 28.8319 23.248C29.9436 22.7248 30.8264 22.0381 31.5131 21.1226C32.167 20.2398 32.5921 19.2262 32.7883 18.1144H28.2433C28.0471 18.8992 27.6221 19.5204 27.0008 19.9128C26.3796 20.3052 25.5948 20.5014 24.6793 20.5014C23.5022 20.5014 22.5539 20.1744 21.9 19.455C21.2133 18.7684 20.821 17.8202 20.7229 16.5777V16.4469H32.9191C32.9845 15.9891 33.0499 15.4659 33.0499 14.8774C33.0172 13.2425 32.6248 11.8365 31.9055 10.6267C31.1861 9.41689 30.1725 8.46867 28.8646 7.81471C27.5567 7.16076 26.0853 6.80109 24.385 6.80109C23.2581 6.80109 22.2318 6.95907 21.2965 7.27504L16.2861 18.248ZM20.821 13.4387H28.4395C28.276 12.4251 27.851 11.6403 27.1643 11.0845C26.4777 10.5286 25.6275 10.2343 24.5812 10.2343C23.5676 10.2343 22.7174 10.5286 22.0308 11.1172C21.3441 11.7057 20.9518 12.4578 20.821 13.4387ZM66.2801 5.19891C65.4954 5.19891 64.8741 4.97003 64.3837 4.44687C63.8605 3.9564 63.6316 3.33515 63.6316 2.58311C63.6316 1.86376 63.8605 1.24251 64.3837 0.752044C64.8741 0.261581 65.4954 0 66.2801 0C67.0322 0 67.6534 0.261581 68.1766 0.752044C68.6998 1.24251 68.9613 1.86376 68.9613 2.58311C68.9613 3.33515 68.6998 3.9564 68.1766 4.44687C67.6534 4.97003 67.0322 5.19891 66.2801 5.19891ZM87.8025 19.9128H86.6402C86.2479 19.9128 85.9863 19.8474 85.8228 19.6839C85.6266 19.5531 85.5612 19.2589 85.5612 18.8338V12.9155C85.5612 10.9537 84.9073 9.41689 83.5994 8.37057C82.2915 7.32425 80.4604 6.80109 78.1062 6.80109C75.8173 6.80109 74.019 7.29155 72.6457 8.23978C71.2724 9.18801 70.4876 10.5286 70.3568 12.2289H74.8037C74.9018 11.6076 75.2288 11.1172 75.7846 10.7248C76.3078 10.3651 77.0272 10.1689 77.8773 10.1689C78.8255 10.1689 79.5776 10.3978 80.1661 10.8556C80.722 11.3134 81.0163 11.9019 81.0163 12.654V13.4714H77.6811C75.1634 13.4714 73.2342 13.9619 71.9263 14.9428C70.6184 15.9237 69.9645 17.297 69.9645 19.0627C69.9645 20.6322 70.5203 21.8747 71.6648 22.7248C72.8092 23.5749 74.3133 24 76.2097 24C77.4522 24 78.5312 23.7711 79.4468 23.248C80.3296 22.7575 81.0816 22.0381 81.7029 21.0572C81.6375 22.8883 82.6838 23.8038 84.8092 23.8038H87.8025H89.3306H91.8243L92.2821 21.515C92.8379 22.2997 93.5573 22.8883 94.4401 23.3461C95.2903 23.8038 96.3366 24 97.5137 24C98.9851 24 100.325 23.6403 101.502 22.921C102.68 22.2016 103.595 21.188 104.249 19.8801C104.903 18.5722 105.263 17.0681 105.263 15.3678C105.263 13.6349 104.903 12.1308 104.249 10.8229C103.595 9.51499 102.68 8.53406 101.502 7.84741C100.325 7.16076 98.9851 6.80109 97.481 6.80109C95.3883 6.80109 93.6881 7.58583 92.4129 9.12262V0.915531H87.8025V19.9128ZM77.6484 16.545H81.0163V16.8719C80.9836 18.049 80.6239 18.9646 79.9372 19.6512C79.2179 20.3379 78.2697 20.6649 77.0926 20.6649C76.3078 20.6649 75.7192 20.5014 75.2615 20.1417C74.8037 19.8147 74.6075 19.3243 74.6075 18.7357C74.6075 18.049 74.8691 17.5259 75.3923 17.1335C75.9154 16.7411 76.6675 16.545 77.6484 16.545ZM96.4347 20.2398C97.6772 20.2398 98.6579 19.8147 99.4427 18.8992C100.195 18.0163 100.587 16.8392 100.587 15.4005C100.587 13.9619 100.195 12.8174 99.4427 11.9019C98.6579 11.0191 97.6772 10.5613 96.4347 10.5613C95.1922 10.5613 94.1786 11.0191 93.4592 11.9019C92.7072 12.7847 92.3475 13.9292 92.3475 15.3678C92.3475 16.8392 92.7072 18.0163 93.4592 18.8992C94.1786 19.8147 95.1922 20.2398 96.4347 20.2398ZM111.289 0.915531H106.679V23.8038H111.289V0.915531ZM112.703 15.4332C112.703 13.7003 113.03 12.1962 113.75 10.8883C114.469 9.58038 115.45 8.59946 116.725 7.88011C118 7.16076 119.472 6.80109 121.172 6.80109C122.872 6.80109 124.344 7.16076 125.652 7.81471C126.96 8.46867 127.973 9.41689 128.693 10.6267C129.412 11.8365 129.804 13.2425 129.837 14.8774C129.837 15.4659 129.772 15.9891 129.706 16.4469H117.51V16.5777C117.608 17.8202 118 18.7684 118.687 19.455C119.341 20.1744 120.289 20.5014 121.466 20.5014C122.382 20.5014 123.167 20.3052 123.788 19.9128C124.409 19.5204 124.834 18.8992 125.03 18.1144H129.575C129.379 19.2262 128.954 20.2398 128.3 21.1226C127.614 22.0381 126.731 22.7248 125.619 23.248C124.507 23.7711 123.232 24 121.793 24C119.897 24 118.295 23.673 116.921 22.9537C115.548 22.267 114.502 21.2861 113.782 19.9782C113.063 18.6703 112.703 17.1662 112.703 15.4332ZM117.608 13.4387H125.227C125.063 12.4251 124.638 11.6403 123.951 11.0845C123.265 10.5286 122.415 10.2343 121.368 10.2343C120.355 10.2343 119.505 10.5286 118.818 11.1172C118.131 11.7057 117.739 12.4578 117.608 13.4387ZM138.441 20.6975C137.395 20.6975 136.578 20.4687 135.924 20.0109C135.27 19.5531 134.91 18.9646 134.845 18.2125H130.463C130.528 20.0109 131.313 21.4169 132.785 22.4632C134.223 23.5095 136.12 24 138.474 24C139.978 24 141.286 23.8038 142.43 23.3461C143.575 22.8883 144.458 22.267 145.112 21.4169C145.766 20.5995 146.093 19.6512 146.093 18.5395C146.093 16.8392 145.471 15.6294 144.261 14.9101C143.052 14.1907 141.319 13.7003 139.063 13.4387C137.984 13.3406 137.231 13.2425 136.774 13.1444C136.316 13.079 135.924 12.9155 135.662 12.7193C135.368 12.5232 135.237 12.2289 135.237 11.8365C135.237 11.3134 135.499 10.8556 136.022 10.5286C136.545 10.2016 137.264 10.0381 138.147 10.0381C139.063 10.0381 139.847 10.267 140.436 10.6594C141.024 11.0518 141.384 11.5749 141.449 12.1962H145.831C145.7 10.4959 144.948 9.18801 143.542 8.20708C142.136 7.25886 140.305 6.76839 138.016 6.7357C136.578 6.7357 135.335 6.96458 134.256 7.42234C133.144 7.88011 132.294 8.53406 131.706 9.3842C131.117 10.2343 130.823 11.1826 130.823 12.2616C130.823 13.3733 131.117 14.2234 131.706 14.8774C132.294 15.5313 133.079 16.0218 134.06 16.3161C135.041 16.6431 136.251 16.8719 137.755 17.0681C138.834 17.1989 139.618 17.3297 140.109 17.4278C140.567 17.5259 140.959 17.6894 141.221 17.8856C141.482 18.1144 141.613 18.4414 141.613 18.8665C141.613 19.455 141.319 19.9128 140.763 20.2398C140.174 20.5668 139.422 20.6975 138.441 20.6975Z" fill="black"/>
</g>
<defs>
<clipPath id="clip0_33_77">
<rect width="146.093" height="24" fill="black"/>
</clipPath>
</defs>
</svg>
