<svg xmlns="http://www.w3.org/2000/svg" fill="none" viewBox="0 0 144 48" class="customer-logo">
<title>Volleyball World logo</title>
  <g class="volleyball-world">
      <path class="path-fill logo-fill" fill="#000" d="m61.545 30.034-.613 1.527c-.804 2.045-1.602 4.095-2.4 6.139-.465 1.185-.935 2.37-1.39 3.556-.074.202-.18.248-.375.248-.883-.01-1.77-.01-2.654 0-.222 0-.317-.062-.386-.269-.75-2.24-1.506-4.482-2.262-6.723-.798-2.366-1.59-4.736-2.384-7.102-.037-.104-.063-.212-.105-.347.116-.01.195-.02.28-.02h2.711c.185 0 .265.051.323.233.993 3.38 1.992 6.76 2.992 10.134.068.233.148.46.248.771.259-.693.497-1.304.724-1.92.703-1.874 1.4-3.742 2.104-5.616.407-1.097.824-2.19 1.215-3.287.085-.238.201-.316.455-.31 1.02.015 2.04.01 3.06 0 .212 0 .323.052.402.259a4706.15 4706.15 0 0 0 3.436 9.166c.206.544.412 1.082.681 1.62.1-.326.207-.652.307-.983.957-3.26 1.913-6.527 2.865-9.793.058-.197.137-.274.354-.27.893.011 1.787 0 2.685.006.085 0 .17.01.296.015l-.243.766c-.708 2.117-1.417 4.235-2.13 6.357-.793 2.365-1.591 4.736-2.379 7.101-.053.16-.127.223-.306.223-.936-.01-1.866 0-2.802-.01a.393.393 0 0 1-.29-.192c-.799-2.019-1.586-4.037-2.374-6.061-.64-1.641-1.279-3.287-1.924-4.928-.026-.067-.063-.134-.126-.28l.005-.01ZM65.61 8.833c-.26.538-.503 1.056-.756 1.569a7795.44 7795.44 0 0 0-3.41 7.039c-.909 1.879-1.818 3.758-2.738 5.632a.375.375 0 0 1-.28.175c-.903.016-1.807.016-2.711 0-.095 0-.238-.108-.286-.201-.893-1.812-1.77-3.634-2.658-5.45-1.158-2.377-2.315-4.752-3.473-7.133-.259-.534-.513-1.072-.787-1.641.11-.01.195-.026.274-.026.904 0 1.808 0 2.712-.005.19 0 .296.062.375.227 1.094 2.325 2.2 4.643 3.298 6.962l1.776 3.737c.027.057.07.104.133.197.274-.57.528-1.102.782-1.636 1.47-3.085 2.933-6.175 4.403-9.26.047-.098.185-.212.28-.212.962-.015 1.924-.01 2.886-.01.042 0 .09.015.174.036h.005Zm37.606 11.553c.402-.957.772-1.858 1.147-2.748.577-1.377 1.158-2.749 1.729-4.126.069-.165.143-.264.349-.258.856.01 1.712 0 2.568.005.064 0 .133.01.233.02-.037.094-.058.171-.095.244-1.39 2.997-2.801 5.988-4.176 8.996-.766 1.672-1.474 3.375-2.225 5.057-.048.103-.196.227-.296.227-.835.021-1.676.01-2.51.01-.038 0-.07-.015-.149-.03.19-.435.37-.86.555-1.279.444-1.014.894-2.018 1.322-3.038a.654.654 0 0 0-.006-.471c-1.331-2.868-2.68-5.73-4.027-8.598-.17-.357-.328-.72-.508-1.112.117-.01.196-.026.275-.026.835 0 1.676.005 2.51-.005.212 0 .297.077.376.258.925 2.21 1.861 4.42 2.796 6.626.027.067.064.13.127.248h.005ZM95.13 41.142c0-4.586 0-9.167-.006-13.753 0-.264.058-.362.344-.352.75.021 1.5.01 2.251 0 .212 0 .307.042.307.28-.005 4.632-.005 9.26 0 13.892 0 .213-.053.3-.29.295-.857-.01-1.708 0-2.607 0v-.362ZM76.963 16.023c0-2.298 0-4.591-.005-6.89 0-.28.084-.346.36-.341.75.015 1.5.01 2.25 0 .217 0 .302.046.302.28-.005 4.627-.005 9.26 0 13.887 0 .243-.08.3-.312.3a67.056 67.056 0 0 0-2.278 0c-.27.005-.317-.088-.312-.326.005-2.304 0-4.612 0-6.916l-.005.006Zm64.146 7.236V9.164c0-.241.125-.362.375-.362.719 0 1.443.01 2.162-.005.275-.005.354.072.354.347-.011 4.016-.005 8.033-.005 12.05 0 .595-.006 1.185 0 1.775 0 .212-.048.3-.286.295-.856-.015-1.707-.005-2.605-.005h.005Zm-56.429-7.21c0 2.287 0 4.575.005 6.858 0 .264-.063.362-.349.352-.74-.02-1.48-.02-2.22 0-.28.005-.327-.093-.327-.342.005-4.601.005-9.203 0-13.804 0-.238.052-.332.317-.326.76.015 1.522.015 2.278 0 .248 0 .306.082.306.31-.005 2.314 0 4.633 0 6.946l-.01.006Zm51.603 7.21V9.164c0-.241.127-.362.381-.362.718 0 1.443.01 2.161-.005.275-.005.36.072.355.347-.011 2.867-.006 5.74-.006 8.607 0 1.724 0 3.443.006 5.166 0 .264-.059.362-.349.357-.835-.02-1.671-.005-2.553-.005l.005-.01ZM89.57 33.233c.427-.404.781-.802 1.199-1.128.888-.694 1.956-.828 3.05-.828.063 0 .174.113.18.18.01.829.005 1.657.01 2.485 0 .192-.132.16-.259.176-.507.052-1.025.052-1.512.176-1.612.41-2.547 1.636-2.553 3.272 0 1.206-.01 2.411.006 3.612 0 .27-.085.332-.344.326a67.056 67.056 0 0 0-2.278 0c-.211 0-.28-.056-.28-.269.005-3.152 0-6.304 0-9.456 0-.12-.027-.26.169-.26h2.606v1.714h.005Zm22.183-6.196c-.751.01-1.501.016-2.252 0-.27-.005-.338.078-.338.332.01 1.646.005 3.292.005 4.943v.362c-.085-.047-.122-.057-.148-.083-1.327-1.17-2.891-1.558-4.63-1.31-1.697.244-3.034 1.036-3.859 2.553-.592 1.097-.703 2.272-.57 3.488.227 2.081 1.575 3.711 3.625 4.255 1.993.533 3.848.238 5.497-1.04.032-.026.08-.037.159-.073 0 .28.016.523 0 .766-.021.233.074.295.296.28.227-.016.46 0 .692 0h1.808c.005-.12.021-.213.021-.3 0-4.623 0-9.245.011-13.867 0-.244-.085-.3-.317-.295v-.01Zm-2.881 11.056c-.264.502-.666.865-1.189 1.113-1.263.595-3.034.43-3.943-.414-1.036-.963-1.211-2.153-.783-3.426.407-1.196 1.364-1.755 2.596-1.874.819-.083 1.617.02 2.341.424.756.42 1.189 1.051 1.242 1.91.011.207 0 .414 0 .621.032.57 0 1.134-.275 1.652l.011-.006Zm13.462-21.698a4.53 4.53 0 0 0-1.284-2.044c-1.903-1.765-5.286-1.864-7.305-.218-.111.088-.227.176-.391.3v-.408c0-1.636 0-3.277.005-4.912 0-.249-.074-.321-.327-.316-.73.015-1.464 0-2.194.005-.25 0-.377.123-.38.368v13.835c0 .166.026.264.232.259.777-.01 1.559-.005 2.336 0 .18 0 .238-.067.233-.233-.011-.259 0-.517 0-.854.206.16.328.27.46.357 1.591 1.046 3.33 1.274 5.159.818 1.559-.388 2.679-1.335 3.287-2.8.566-1.356.587-2.749.169-4.151v-.006Zm-3.779 4.353c-1.279.901-3.494.71-4.577-.409-.412-.424-.592-.957-.619-1.542-.005-.17 0-.336 0-.507l-.052-.01c.068-.425.084-.865.211-1.269.254-.812.867-1.32 1.67-1.594a4.068 4.068 0 0 1 2.358-.098c1.125.295 1.834 1.004 2.124 2.117.328 1.242-.126 2.619-1.11 3.307l-.005.005Zm-21.058-.771c-.866 0-1.733-.01-2.595 0-.08 0-.169.093-.243.16-.27.25-.502.555-.803.746-.693.435-1.486.481-2.284.43-.687-.047-1.326-.238-1.85-.7-.47-.413-.718-.93-.808-1.588h8.346c.248 0 .348-.057.327-.31-.02-.322 0-.643-.005-.958-.048-1.926-.914-3.37-2.722-4.177-1.834-.818-3.732-.844-5.624-.171-1.364.486-2.33 1.402-2.86 2.738-.443 1.123-.502 2.277-.237 3.442.364 1.62 1.31 2.8 2.88 3.432 1.95.781 3.927.74 5.878-.026 1.089-.43 1.95-1.129 2.452-2.195.117-.248.175-.523.254-.776-.074-.036-.09-.047-.11-.047h.004Zm-8.14-3.872c.466-.533 1.095-.755 1.777-.848.999-.135 1.96-.068 2.817.528.502.346.782.885.772 1.475H88.94c-.032-.456.132-.828.423-1.155h-.005Zm45.256 1.325c0-.486-.042-.983-.143-1.46-.259-1.215-.967-2.09-2.162-2.556-1.067-.42-2.188-.481-3.319-.45-1.015.03-2.014.155-2.949.58-1.211.543-1.866 1.464-1.924 2.784.052.026.068.041.084.041.846 0 1.692.01 2.537 0 .064 0 .159-.093.185-.16.106-.342.312-.626.635-.771 1.141-.513 2.304-.56 3.456-.042.349.156.55.471.619.844.042.238.042.487.068.73.022.191-.074.243-.253.238-.481 0-.962-.01-1.443.01-1.306.052-2.617.104-3.885.461-.735.207-1.411.513-1.935 1.072-1.189 1.273-.782 3.348.798 4.161.709.362 1.47.507 2.252.538 1.707.063 3.298-.243 4.556-1.495.016-.021.048-.026.138-.073 0 .388.016.745 0 1.097-.011.238.09.28.301.28.682-.01 1.369-.016 2.051 0 .291.01.349-.093.349-.352-.011-1.827 0-3.654-.011-5.476h-.005Zm-3.748 3.603c-1.221.61-2.505.735-3.795.259-.851-.316-.946-1.304-.174-1.786.38-.238.835-.398 1.274-.481.724-.14 1.464-.186 2.198-.274 0 .015 0 .03.006.046.364 0 .729.01 1.094 0 .195-.005.285.052.269.254-.01.16-.021.32 0 .481.09.72-.264 1.206-.877 1.512l.005-.01Zm-48.95 10.59c-1.78-.605-3.578-.6-5.333.083-2.077.808-3.203 2.34-3.308 4.534-.096 1.874.618 3.406 2.204 4.493 1.152.787 2.468 1.056 4.112 1.098.296-.037.85-.078 1.395-.182 2.337-.445 3.986-2.039 4.34-4.197.417-2.552-.767-4.928-3.41-5.829Zm.635 5.332c-.19 1.677-1.295 2.598-3.14 2.608a5.28 5.28 0 0 1-1.601-.274c-.761-.248-1.253-.823-1.507-1.568a3.708 3.708 0 0 1 0-2.438c.338-.978 1.078-1.527 2.093-1.74.318-.067.645-.082.846-.108.893.031 1.628.155 2.246.631.968.74 1.19 1.77 1.063 2.889Zm-6.967-19.209c-.153-1.8-1.014-3.204-2.669-4.021-2.156-1.072-4.387-1.067-6.564-.073-1.835.839-2.78 2.335-2.876 4.301-.1 2.009.693 3.613 2.463 4.695 1.1.668 2.326.921 3.615.942.513-.057 1.036-.078 1.544-.17 1.464-.27 2.696-.932 3.573-2.133.772-1.061 1.025-2.257.914-3.535v-.006Zm-2.843 1.04c-.185 1.45-1.12 2.35-2.611 2.485a5.95 5.95 0 0 1-1.686-.093c-.947-.197-1.639-.766-1.92-1.687-.385-1.253-.337-2.459.64-3.479.513-.533 1.375-.812 2.506-.812.734.015 1.549.17 2.199.76.845.772 1.01 1.77.877 2.827h-.005ZM26.693 4l.742.087c1.77.216 3.535.426 5.3.647.35.04.7.11 1.099.18-2.799 12.775-9.096 23.557-18.88 32.422a70.78 70.78 0 0 1-4.581-5.988c.327-.35.624-.699.95-1.013a53.902 53.902 0 0 0 6.838-7.992A51.563 51.563 0 0 0 26.2 4.105c.006-.035.024-.07.036-.105h.458Z"></path>
      <path class="path-fill logo-fill" fill="#000" d="M0 7.151A67.289 67.289 0 0 1 5.739 5.58c.529-.123 1.057-.233 1.61-.35a61.477 61.477 0 0 0 2.9 9.722 61.846 61.846 0 0 0 4.484 9.133c-1.657 2.016-3.404 3.95-5.352 5.744-.19-.297-.363-.565-.529-.839A68.646 68.646 0 0 1 .689 10.07C.457 9.19.261 8.3.048 7.42.042 7.384.018 7.355 0 7.326v-.175ZM16.647 4c.285 1.118.54 2.248.861 3.361a49.258 49.258 0 0 0 2.881 7.55c.06.122.066.22 0 .343a51.189 51.189 0 0 1-4.384 7.141c-.042.058-.09.117-.154.192a57.69 57.69 0 0 1-3.19-6.302c-1.468-3.431-3.417-9.588-3.59-11.376.405-.07.809-.146 1.219-.204 1.176-.163 2.352-.326 3.529-.466.707-.088 1.42-.128 2.126-.192.09-.006.173-.03.256-.047h.446Zm4.8 39.994a72.03 72.03 0 0 1-5.359-5.37c10.094-9.105 16.575-20.225 19.439-33.36.7.018 6.327 1.474 7.367 1.91C39.638 21.62 32.514 33.895 21.447 44v-.006Z"></path>
  </g>
</svg>
