<svg style="width: 130px; position: relative; top: -4px;" xmlns="http://www.w3.org/2000/svg" viewBox="0 0 1026.68 254.66"><defs><linearGradient id="linear-gradient" y1="134.47" x2="346.99" y2="134.47" gradientUnits="userSpaceOnUse"><stop offset="0" stop-color="currentcolor"/><stop offset=".21" stop-color="currentcolor"/><stop offset=".53" stop-color="currentcolor"/><stop offset=".94" stop-color="currentcolor"/><stop offset="1" stop-color="currentcolor"/></linearGradient><linearGradient id="linear-gradient-2" x1="107.92" y1="93.55" x2="291.65" y2="93.55" xlink:href="#linear-gradient"/><radialGradient id="radial-gradient" cx="96.17" cy="219.98" r="18.15" gradientUnits="userSpaceOnUse"><stop offset="0" stop-color="currentcolor"/><stop offset=".11" stop-color="currentcolor"/><stop offset=".7" stop-color="currentcolor"/><stop offset="1" stop-color="currentcolor"/></radialGradient><style>.cls-4{fill:currentcolor}</style></defs><path d="M305.52 170.83c2.24-1.87 5.14-3.24 7.53-4.93a127 127 0 0 0 16.09-13.36c10.84-10.7 21.5-26 16.64-41.94a31.2 31.2 0 0 0-18.36-20.28 90.91 90.91 0 0 0-20.39-5 191.12 191.12 0 0 0-37-1.14 372.87 372.87 0 0 0-56.73 8c-30 6.36-60 14.22-88.42 25.7-14.93 6-29.66 12.6-44.19 19.52-21.41 10.19-42.58 21.19-62.38 34.27-3.29 2.18-6.55 4.43-9.74 6.76C5.74 180.56 3 183.3 0 185.12c0 0 105.15-63.49 221-85.71s142.45 23.01 84.52 71.42Z" style="fill:url(#linear-gradient)"/><path d="M290.34 63.9c-.26-2.17.71-5.09.9-7.27a104.35 104.35 0 0 0 .1-17.41c-.69-8.67-2.62-17.54-7-25.12-3.07-5.29-8.08-11.25-14.19-13-8.8-2.51-18.68-.38-26.95 3-14.6 5.9-26.7 16.53-37.54 27.7-7.4 7.63-14.47 15.57-21.27 23.74q-14.89 17.9-28 37.19a446.25 446.25 0 0 0-28.94 49q-5.47 10.82-10.3 22-2.49 5.72-4.78 11.53c-1.52 3.86-2.6 8.18-4.46 11.88 2-3.92 4.06-7.79 6.15-11.66q8.09-14.94 16.8-29.53 11.92-20 25-39.3a507 507 0 0 1 30.83-40.94 268.24 268.24 0 0 1 43-41.15A65.36 65.36 0 0 1 241 17.45c6.25-3 13.36-4.95 20.32-3.81 9.29 1.52 15.89 8.58 20.05 16.63 5.33 10.33 7.63 22.18 8.97 33.63Z" style="fill:url(#linear-gradient-2)"/><circle cx="96.17" cy="219.98" r="18.15" style="fill:url(#radial-gradient)"/><path class="cls-4" d="M284.62 236.17v18.35H205.2l-.15.14h-23.19l.14-.14 14.1-18.35 25.25-32.74 11.59-15 14.1-18.2h-65.33V151.9h102.47l-14.24 18.35-25.55 33.18-11.59 15-13.8 17.74ZM403.82 254.66h-20.55l-9.4-18.35-22.46-44-22.46 44-9.4 18.35H299l9.4-18.35 43-84.41 43 84.41ZM476.33 193.15l44.48 61.51h-22.6l-35.53-49-26 23.64v25.39h-18.34V151.9h18.35v52.56l15.13-13.8 13.65-12.48 28.63-26.28h27.15Z"/><path class="cls-4" d="M621.52 203.28a51.39 51.39 0 1 1-51.38-51.38 51.44 51.44 0 0 1 51.38 51.38Zm-18.35 0a33 33 0 1 0-33 33 33.08 33.08 0 0 0 33-33ZM689.63 152.05a51.24 51.24 0 0 1 39.2 84.41c-.88 1-1.91 2-2.94 3.08a50.43 50.43 0 0 1-36.11 15.12H638.4V151.9Zm-33 84.41h33a33 33 0 0 0 0-66.06h-33ZM761.7 254.66V151.9h18.36v102.76ZM903.37 151.9v51.38a51.39 51.39 0 0 1-102.77 0V151.9H819v51.38a33 33 0 0 0 66.07 0V151.9ZM1026.68 151.9v102.76h-18.35v-65.47L990.27 203l-15 11.6-15-11.6-18.06-13.8v65.47h-18.3V151.9l18.35 14.1 33 25.4 33-25.4Z"/></svg>
