<svg style="width: 100px;" xmlns="http://www.w3.org/2000/svg" viewBox="0 0 850.4 189.1" fill="#0041d9" xml:space="preserve"><path d="M192.2 187.9c-4.2.8-8.6 1.1-13.3 1.1-12.4 0-23.4-2.6-32.9-7.9-9.5-5.3-16.9-12.8-22.2-22.7s-8-21.8-8-35.6c0-14.4 3.1-26.5 9.3-36.5 6.2-10 14.3-17.7 24.2-23s20.3-8 31.1-8c11 0 20.5 2.3 28.4 6.8 7.9 4.6 14 10.8 18.3 18.8s6.4 17.1 6.4 27.5c0 2.3-.1 4.4-.3 6.4s-.5 3.9-1.1 5.6H153c.2 18.1 3.5 41.2 10.1 51.6 6.6 10.5 16.2 15.8 28.8 15.8l.3.1zm-13-125c-5.1 0-9.5 1.4-13.3 4.3s-6.7 8-8.9 15.2c-2.2 7.3-3.5 17.5-3.8 30.6h47c1.9-17.7 1.2-30.5-2.1-38.4-3.3-7.8-9.6-11.7-18.9-11.7zm267.1-7.5c-11 0-19.5 5-25.3 14.9-5.9 10-8.8 28.5-8.8 48.3 0 17 3.2 30.1 9.7 39.2 6.5 9.1 16.6 13.7 30.2 13.7 8.1 0 14.7-1.5 20-4.6s10.1-7.5 14.5-13.3l4.2 3.2c-4.4 10.5-11.1 18.5-20.1 24s-19.8 8.3-32.2 8.3c-11.9 0-22.7-2.6-32.3-7.8-9.6-5.2-17.2-12.7-22.7-22.6-5.5-9.9-8.3-21.9-8.3-36.1s3.1-26.3 9.2-36.3 14.3-17.7 24.6-23c10.2-5.3 21.5-8 33.8-8 1.1 0 2.3 0 3.5.1zm88.6 111.1c0 3.5.7 6.3 2.1 8.4 1.4 2.1 3.8 3.6 7.1 4.5l2.4.8v5.3h-59.9v-5.3l3.4-1.1c6.3-1.9 9.5-6.3 9.5-13.1V30.6c0-3.7-.6-6.4-1.8-8.3-1.2-1.8-3.6-3.2-7.1-4.1l-3.9-1.1v-5L531.1.8 535 3v163.5h-.1zm-251.2 0c0 3.5.7 6.3 2.1 8.4 1.4 2.1 3.8 3.6 7.1 4.5l2.4.8v5.3h-59.9v-5.3l3.4-1.1c6.3-1.9 9.5-6.3 9.5-13.1V88.7c0-3.7-.6-6.4-1.8-8.3-1.2-1.8-3.6-3.2-7.1-4.1l-3.9-1.1v-5l44.4-16.1 3.9 2.2v110.2h-.1zM303 63.3c7.3-4.7 15.1-8 23.5-8 11.6 0 20.6 3.2 27.2 9.7s9.9 16.5 9.9 30v71.2c0 3.5.7 6.3 2.1 8.4 1.4 2.1 3.9 3.7 7.4 4.7l2.4.8v5.3h-59.9v-5.3l3.2-1.1c6.3-1.7 9.5-6.1 9.5-13.1V90c0-7.2.1-16.8-5.6-22.8-4-4.1-9.9-4.5-19.7-3.9zm251.2 0c7.3-4.7 15.1-8 23.5-8 11.6 0 20.6 3.2 27.2 9.7 6.6 6.5 9.9 16.5 9.9 30v71.2c0 3.5.7 6.3 2.1 8.4 1.4 2.1 3.9 3.7 7.4 4.7l2.4.8v5.3h-59.9v-5.3l3.2-1.1c6.3-1.7 9.5-6.1 9.5-13.1V90c0-7.2.1-16.8-5.6-22.8-4.1-4.1-10-4.5-19.7-3.9zM803.9 1.7c-2.1.6-4.4 7-5.3 10.5-1.4 6.6-1.7 10.1-2.5 19.1-.8 8.9-1.3 19.8-1.4 28h30.2v8.1h-30.2v62.8c0 6 0 11.9.1 17.7.1 5.9.1 11.8.1 17.7 0 7 3.5 11.3 10.5 12.9l6.8 1.8v5h-67.8v-5l3.9-1.1c7-1.9 10.6-6.2 10.8-12.9 0-6.1 0-12.2.1-18.3.1-6 .1-12 .1-18V67.4h-15v-5.8l5.8-1.1c3.5-.5 6-1.8 7.6-3.8s2.7-4.9 3.4-8.5c1.9-7 4.5-13.1 7.8-18.3 3.2-5.2 7.1-9.9 11.7-14.3 6.5-6.3 13.4-10.7 20.8-13.1.9-.3 1.7-.6 2.5-.8zM103.8 144.9l-9.2 19.2c-2.1 4.4-4.4 7.8-7 10.4-2.5 2.5-6.4 3.8-11.7 3.8H37.8l69.9-113.8v-5.3h-32L0 179.6v5.8h108.3l2.4-40.5h-6.9zM21.5 59.2C11.2 59.2 2.7 67.6 2.7 78s8.4 18.8 18.8 18.8S40.3 88.4 40.3 78s-8.4-18.8-18.8-18.8zM209.4 140c-10.4 0-18.8 8.4-18.8 18.8s8.4 18.8 18.8 18.8 18.8-8.4 18.8-18.8-8.4-18.8-18.8-18.8zm493.2 47.9c-4.2.8-8.6 1.1-13.3 1.1-12.4 0-23.4-2.6-32.9-7.9-9.5-5.3-16.9-12.8-22.2-22.7s-8-21.8-8-35.6c0-14.4 3.1-26.5 9.3-36.5s14.3-17.7 24.2-23 20.3-8 31.1-8c11 0 20.5 2.3 28.4 6.8 7.9 4.6 14 10.8 18.3 18.8s6.4 17.1 6.4 27.5c0 2.3-.1 4.4-.3 6.4s-.5 3.9-1.1 5.6h-79.1c.2 18.1 3.5 41.2 10.1 51.6 6.6 10.5 16.2 15.8 28.8 15.8l.3.1zm-13-125c-5.1 0-9.5 1.4-13.3 4.3s-6.7 8-8.9 15.2c-2.2 7.3-3.5 17.5-3.8 30.6h47c1.9-17.7 1.2-30.5-2.1-38.4-3.3-7.8-9.6-11.7-18.9-11.7zm30.2 77.1c-10.4 0-18.8 8.4-18.8 18.8s8.4 18.8 18.8 18.8 18.8-8.4 18.8-18.8-8.4-18.8-18.8-18.8zM831.6 0c-10.4 0-18.8 8.4-18.8 18.8s8.4 18.8 18.8 18.8 18.8-8.4 18.8-18.8S842 0 831.6 0zM470.8 67.1c-10.4 0-18.8 8.4-18.8 18.8s8.4 18.8 18.8 18.8 18.8-8.4 18.8-18.8-8.5-18.8-18.8-18.8z"/></svg>
