
<svg width="1135" height="458" viewBox="0 0 1135 458" fill="none" xmlns="http://www.w3.org/2000/svg">
<path d="M847.143 103.93C839.009 114.513 837.182 122.165 832.946 130.268C828.91 138.556 822.139 146.866 808.268 161.928C805.446 164.851 797.645 171.836 790.885 177.994C784.175 184.215 778.382 189.618 777.631 187.516C775.777 182.096 774.902 176.636 775.22 171.471C775.474 166.232 776.691 161.039 778.874 156.078C783.134 146.014 790.93 136.489 801.08 127.663C811.219 118.776 823.639 110.511 837.442 102.373C851.267 94.2163 866.456 86.1532 882.776 77.1755C884.89 76.7245 877.686 80.5494 869.19 86.0297C860.648 91.427 851.023 98.8702 847.143 103.93Z" fill="#59AF37"/>
<path d="M913.521 90.7036C909.054 94.4933 906.096 98.0864 903.556 101.387C901.016 104.66 898.91 107.775 896.287 110.927C893.661 114.026 890.516 117.138 886.031 120.645C883.779 122.344 881.206 124.191 878.213 126.209C875.202 128.152 871.792 130.336 867.882 132.748C864.73 134.587 856.195 138.586 848.679 141.975C844.915 143.66 841.427 145.275 838.817 146.084C836.244 146.971 834.609 147.206 834.612 146.18C834.778 125.448 848.858 111.673 869.736 101.362C880.176 96.1235 892.293 91.7241 905.536 87.4003C912.191 85.2736 919.097 83.0689 926.264 80.7785C929.857 79.5615 933.523 78.546 937.254 77.3214C940.989 76.1674 944.791 74.7287 948.669 73.5293C949.614 73.5167 948.387 74.0257 945.892 74.9479C943.41 75.928 939.689 77.397 935.536 79.0374C931.426 80.6374 926.972 82.6405 923.031 84.7067C919.082 86.6922 915.656 88.8768 913.521 90.7036Z" fill="#59AF37"/>
<path d="M974.28 90.7397C969.695 93.5416 966.487 96.2049 963.688 98.7246C960.891 101.3 958.502 103.835 955.64 106.196C949.94 110.923 942.252 115.214 926.436 120.767C924.856 121.299 921.964 122.047 918.55 122.879C915.125 123.634 911.187 124.529 907.491 125.3C900.095 126.777 893.652 127.875 894.088 126.033C898.729 107.644 913.548 98.3819 933.718 92.9242C954.035 87.3456 979.091 85.4357 1008.36 80.6155C1010.07 80.8271 1003.62 81.8829 995.758 83.5157C987.869 85.5012 978.655 87.9126 974.28 90.7397Z" fill="#59AF37"/>
<path d="M1026.42 99.3513C1017.56 103.111 1013.54 107.102 1007.81 110.39C1002.08 113.966 994.711 116.47 979.908 119.106C977.295 119.446 969.554 120.157 962.711 120.154C955.862 120.507 949.845 120.298 950.568 118.718C957.687 103.358 971.946 97.464 990.42 95.612C1009.02 93.6945 1031.33 95.3475 1058.02 95.1434C1059.51 95.5541 1053.62 95.6373 1046.41 96.048C1039.19 96.4234 1030.63 97.7715 1026.42 99.3513Z" fill="#59AF37"/>
<path d="M1048.99 162.079C1050.94 164.864 1055.15 169.414 1058.66 172.826C1062.12 176.346 1064.62 179.241 1063.77 178.795C1051.62 165.93 1036.41 159.865 1024.3 153.936C1021.22 152.487 1018.34 150.932 1015.64 149.272C1012.91 147.722 1010.4 145.991 1008.12 143.978C1003.6 139.853 999.933 135.063 997.511 128.084C996.99 126.675 1002.19 126.894 1007.96 128.018C1013.72 129.253 1020.09 130.891 1022.01 131.971C1033.48 137.477 1037.97 142.31 1040.91 146.808C1043.84 151.262 1045.03 156.067 1048.99 162.079Z" fill="#59AF37"/>
<path d="M1065.34 114.646C1057.31 116.853 1053.45 119.559 1048.11 121.905C1042.8 124.231 1036.2 125.541 1023.23 126.005C1021.04 125.937 1014.33 125.639 1008.45 124.818C1002.56 124.11 997.384 123.367 998.228 122.034C1002.26 115.916 1007.49 111.879 1013.67 109.773C1016.77 108.669 1020.12 107.933 1023.7 107.452C1027.27 107.084 1031.05 107.054 1035.06 107.142C1051.13 107.749 1070 111.703 1092.92 114.83C1094.13 115.439 1089.13 114.532 1082.87 114.129C1076.58 113.827 1069.2 113.484 1065.34 114.646Z" fill="#59AF37"/>
<path d="M1077.9 170.781C1078.49 172.156 1079.59 173.882 1080.85 175.669C1082.13 177.423 1083.53 179.305 1084.69 181.091C1087.08 184.581 1088.97 187.169 1088.26 186.735C1086.05 183.765 1083.83 180.832 1081.29 178.37C1078.72 175.941 1076.13 173.645 1073.52 171.526C1070.77 169.569 1068.11 167.686 1065.56 165.882C1063.01 164.03 1060.36 162.569 1057.97 160.876C1048.3 154.292 1040.78 147.992 1038.34 135.626C1038.08 134.341 1042.53 135.293 1047.37 136.883C1052.15 138.659 1057.31 140.977 1058.72 141.864C1063.23 144.976 1066.3 147.672 1068.52 150.038C1070.74 152.404 1071.97 154.738 1072.94 156.834C1073.88 158.971 1074.48 161.032 1075.18 163.252C1075.91 165.439 1076.69 167.873 1077.9 170.781Z" fill="#59AF37"/>
<path d="M1097.88 132.067C1094.36 132.364 1091.67 133.077 1089.23 133.906C1086.81 134.698 1084.67 135.511 1082.29 136.124C1079.88 136.774 1077.29 137.056 1073.82 137.235C1070.36 137.411 1066.13 137.175 1060.62 136.507C1058.91 136.368 1053.27 135.141 1048.32 133.722C1043.32 132.49 1038.93 131.137 1039.81 130.132C1048.19 120.615 1059.41 119.519 1072.96 121.95C1086.62 124.306 1102.24 130.026 1121.45 135.721C1122.43 136.335 1118.19 135.126 1112.92 133.871C1110.31 133.188 1107.39 132.657 1104.69 132.377C1102 132.059 1099.57 131.908 1097.88 132.067Z" fill="#59AF37"/>
<path d="M1134.45 185.616C1134.5 185.707 1134.51 185.757 1134.48 185.77C1134.47 185.793 1134.41 185.783 1134.32 185.735C1131.16 182.482 1128.09 179.69 1124.98 177.485C1121.73 175.414 1118.6 173.748 1115.61 172.337C1112.53 171.03 1109.48 170.107 1106.65 169.168C1103.85 168.19 1101.05 167.487 1098.35 166.698C1095.66 165.905 1093.15 164.922 1090.65 163.77C1088.09 162.697 1085.64 161.329 1083.21 159.474C1080.83 157.544 1078.28 155.478 1075.73 152.633C1074.45 151.217 1073.15 149.637 1071.81 147.863C1070.46 146.127 1069.03 144.313 1067.56 142.227C1070.05 141.718 1072.45 141.292 1074.69 141.106C1076.91 140.959 1079.02 140.937 1081.02 141.022C1085.01 141.216 1088.62 141.723 1091.71 142.912C1094.84 144.021 1097.62 145.442 1100.16 147.082C1102.66 148.808 1104.85 150.895 1106.97 153.036C1115.39 161.928 1121.72 172.859 1134.45 185.616Z" fill="#59AF37"/>
<path d="M77.614 285.872L77.5586 287.717C77.5586 287.717 79.2166 287.85 79.2166 287.815C79.2166 287.782 79.0931 285.22 79.0931 285.22L77.614 285.872Z" fill="#59AF37"/>
<path d="M453.501 69.8483C453.501 69.8483 427.936 86.0702 417.205 115.198C406.474 144.326 403.649 158.114 403.649 158.114L406.199 123.435C406.199 123.435 414.343 102.632 414.879 101.665C415.413 100.697 425.749 86.2768 426.488 85.0321C427.223 83.7874 438.109 72.7309 438.109 72.7309C438.109 72.7309 442.193 61.687 445.602 65.7941C449.011 69.9012 453.501 69.8483 453.501 69.8483Z" fill="#59AF37"/>
<path d="M386.823 163.075L380.436 160.694L384.082 141.917L390.711 128.439L397.24 127.718L401.558 129.22C401.558 129.22 395.219 132.15 388.144 156.871" fill="#59AF37"/>
<path d="M583.474 7.38857C583.474 7.38857 512.317 44.17 479.458 109.151L495.574 71.8163L524.681 32.6852L546.288 17.1159L564.274 7.81691L577.084 4.04492L583.474 7.38857Z" fill="#59AF37"/>
<path d="M505.21 19.529C505.21 19.529 446.496 73.5515 434.885 145.436L440.982 107.573L456.854 61.4594L472.723 40.0722L487.043 25.7602L498.107 18.2792L505.21 19.529Z" fill="#59AF37"/>
<path d="M258.34 177.443C258.34 177.443 261.01 207.601 281.959 230.51C302.906 253.417 313.861 262.259 313.861 262.259L282.241 241.214C282.241 241.214 265.251 219.85 263.376 220.507C262.333 220.875 258.317 208.697 257.548 207.47C256.782 206.243 251.055 194.741 251.055 194.741C251.055 194.741 243.246 180.257 248.462 179.113C253.676 177.972 258.34 177.443 258.34 177.443Z" fill="#59AF37"/>
<path d="M283.871 250.833C283.871 250.833 283.564 257.811 302.275 275.446C320.986 293.084 330.803 298.912 330.803 298.912L318.93 294.926L287.126 272.188L278.197 260.111L279.116 251.98L283.871 250.833Z" fill="#59AF37"/>
<path d="M321.377 302.989C321.377 302.989 347.345 325.843 386.123 336.73L367.543 334.737L343.309 326.148L321.377 312.806L318.311 306.209L321.377 302.989Z" fill="#59AF37"/>
<path d="M259.489 31.6692C259.489 31.6692 259.489 111.768 302.127 170.797L273.945 139.762L254.964 95.5136L251.053 69.17V48.9242L253.585 35.8091L259.489 31.6692Z" fill="#59AF37"/>
<path d="M235.446 107.402C235.446 107.402 256.475 184.367 315.003 227.691L284.167 204.888L250.491 169.612L238.777 145.695L232.639 126.401L231.074 113.14L235.446 107.402Z" fill="#59AF37"/>
<path d="M187.263 423.97C180.417 413.753 179.198 406.61 175.789 398.904C172.573 391.045 166.846 383 154.993 368.323C152.572 365.465 145.819 358.576 139.971 352.509C134.177 346.391 129.175 341.077 128.359 342.964C126.328 347.835 125.199 352.804 125.181 357.571C125.101 362.401 125.909 367.249 127.62 371.941C130.934 381.45 137.532 390.67 146.333 399.396C155.124 408.172 166.047 416.515 178.25 424.822C190.476 433.15 203.956 441.47 218.425 450.702C220.34 451.241 213.945 447.293 206.461 441.747C198.932 436.272 190.529 428.854 187.263 423.97Z" fill="#59AF37"/>
<path d="M260.591 376.092C262.566 375.046 265.431 374.129 268.589 373.111C271.718 372.191 275.117 371.193 278.199 370.291C281.225 369.407 283.934 368.616 285.74 368.087C287.529 367.462 288.401 367.053 287.771 367.008C285.035 367.915 282.344 368.404 279.645 368.989C276.954 369.51 274.255 370.054 271.632 370.286C266.351 370.906 261.216 371.062 256.255 370.994C246.322 370.853 237.185 369.654 228.797 368.744C211.903 367.018 198.087 366.542 182.352 377.283C181.591 377.792 182.523 378.977 184.516 380.41C186.547 381.776 189.563 383.52 192.954 385.067C199.738 388.181 207.823 390.756 211.084 391.117C215.146 391.663 218.693 391.925 221.863 391.9C225.005 391.938 227.739 391.749 230.178 391.356C235.019 390.673 238.609 389.363 241.729 387.77C244.83 386.218 247.463 384.361 250.384 382.343C253.294 380.347 256.454 378.306 260.591 376.092Z" fill="#59AF37"/>
<path d="M247.501 440.101C243.621 436.35 241.119 432.87 238.98 429.682C236.84 426.52 235.092 423.532 232.869 420.478C230.639 417.469 227.933 414.421 224.02 410.928C222.05 409.232 219.797 407.38 217.167 405.347C214.513 403.379 211.51 401.167 208.058 398.718C205.271 396.835 197.664 392.65 190.957 389.085C187.595 387.311 184.483 385.615 182.133 384.716C179.822 383.746 178.33 383.433 178.272 384.378C177.184 403.447 189.309 416.955 207.886 427.682C217.169 433.122 228.047 437.894 239.965 442.661C245.957 445.015 252.173 447.454 258.626 449.989C261.854 451.324 265.165 452.476 268.523 453.824C271.887 455.109 275.296 456.661 278.791 457.994C279.658 458.062 278.559 457.52 276.322 456.522C274.099 455.474 270.766 453.899 267.047 452.143C263.363 450.427 259.384 448.321 255.884 446.184C252.374 444.12 249.353 441.908 247.501 440.101Z" fill="#59AF37"/>
<path d="M304.962 384.026C308.261 381.695 314.88 378.458 320.207 376.127C325.526 373.461 329.628 371.543 328.461 371.606C326.09 372.725 323.706 373.753 321.328 374.703C318.944 375.651 316.548 376.308 314.174 377.024C309.422 378.498 304.72 379.342 300.135 380.105C290.958 381.587 282.315 381.99 274.378 382.723C258.453 384.185 245.507 386.455 233.773 399.472C232.629 400.694 238.218 402.77 244.94 404.159C248.291 404.882 251.91 405.456 255.077 405.743C258.232 406.096 260.923 406.212 262.43 406.071C277.495 404.851 284.492 401.523 289.642 397.628C292.208 395.672 294.299 393.631 296.63 391.363C298.96 389.05 301.53 386.604 304.962 384.026Z" fill="#59AF37"/>
<path d="M303.365 443.705C299.316 440.855 296.529 438.215 294.105 435.73C291.686 433.195 289.643 430.724 287.151 428.38C282.194 423.691 275.384 419.287 261.175 413.237C259.754 412.652 257.138 411.793 254.049 410.823C250.945 409.921 247.38 408.865 244.028 407.935C237.316 406.136 231.46 404.74 231.75 406.459C234.917 423.643 247.984 433.044 266.204 439.27C284.548 445.615 307.47 448.87 334.093 455.051C335.675 454.961 329.807 453.605 322.681 451.632C315.545 449.334 307.218 446.567 303.365 443.705Z" fill="#59AF37"/>
<path d="M344.76 384.505C347.292 381.703 352.8 378.369 357.107 375.315C361.43 372.284 364.784 370.072 363.764 370.273C356.043 375.529 347.862 379.168 339.927 381.655C335.956 382.892 332.088 384.104 328.301 384.938C324.524 385.822 320.898 386.881 317.404 387.639C303.437 391.293 292.186 395.234 284.007 408.656C283.156 410.037 288.57 410.77 294.774 411.067C300.998 411.035 307.965 410.705 310.278 410.017C323.385 406.781 329.085 402.669 333.104 398.686C337.065 394.447 339.368 389.957 344.76 384.505Z" fill="#59AF37"/>
<path d="M351.819 438.908C343.897 434.922 340.435 431.011 335.363 427.645C330.311 424.014 323.687 421.27 310.234 417.962C307.853 417.496 300.778 416.379 294.486 415.971C288.209 415.238 282.668 415.069 283.238 416.566C288.862 431.112 301.619 437.384 318.494 440.191C335.482 443.066 356.093 442.882 380.615 444.668C382.008 444.378 376.606 443.95 369.999 443.141C363.385 442.365 355.596 440.614 351.819 438.908Z" fill="#59AF37"/>
<path d="M376.326 382.584C378.287 380.142 382.429 376.209 385.856 373.281C389.245 370.252 391.719 367.74 390.908 368.101C378.969 379.202 364.622 383.869 353.135 388.593C350.222 389.74 347.473 391 344.893 392.363C342.295 393.625 339.881 395.066 337.669 396.782C333.257 400.302 329.603 404.488 326.96 410.759C326.396 412.022 331.188 412.132 336.565 411.445C341.93 410.653 347.884 409.53 349.716 408.65C360.591 404.273 365.01 400.098 367.983 396.142C370.944 392.219 372.325 387.875 376.326 382.584Z" fill="#59AF37"/>
<path d="M388.513 427.173C381.256 424.663 377.87 421.945 373.1 419.468C368.36 417.014 362.368 415.411 350.473 414.212C348.46 414.141 342.271 414.015 336.821 414.416C331.361 414.716 326.556 415.089 327.254 416.366C330.595 422.229 335.158 426.256 340.719 428.561C343.503 429.761 346.54 430.64 349.803 431.295C353.056 431.847 356.535 432.102 360.222 432.26C375.037 432.664 392.618 430.156 413.879 428.655C415.03 428.166 410.376 428.7 404.599 428.698C398.793 428.597 391.993 428.471 388.513 427.173Z" fill="#59AF37"/>
<path d="M403.421 376.317C404.046 375.088 405.154 373.566 406.422 372.001C407.709 370.464 409.11 368.816 410.282 367.244C412.688 364.18 414.578 361.912 413.903 362.267C411.693 364.868 409.473 367.433 406.989 369.542C404.482 371.623 401.962 373.578 399.44 375.37C396.786 377.005 394.234 378.575 391.785 380.084C389.328 381.634 386.798 382.816 384.505 384.232C375.225 389.705 367.931 395.049 364.95 406.272C364.63 407.436 368.78 406.828 373.323 405.657C377.825 404.309 382.709 402.484 384.052 401.754C388.386 399.164 391.366 396.868 393.551 394.827C395.736 392.784 397.013 390.712 398.023 388.843C399.019 386.935 399.689 385.076 400.47 383.075C401.266 381.11 402.128 378.92 403.421 376.317Z" fill="#59AF37"/>
<path d="M419.476 413.103C416.253 412.619 413.824 411.803 411.632 410.896C409.452 410.021 407.537 409.147 405.378 408.441C403.208 407.698 400.837 407.282 397.665 406.912C394.49 406.541 390.592 406.506 385.482 406.791C383.897 406.816 378.646 407.607 374.01 408.615C369.336 409.449 365.221 410.429 365.965 411.407C373.1 420.659 383.358 422.337 395.957 420.914C408.653 419.563 423.361 415.242 441.362 411.152C442.304 410.646 438.326 411.505 433.41 412.344C430.968 412.815 428.249 413.128 425.752 413.224C423.265 413.357 421.02 413.35 419.476 413.103Z" fill="#59AF37"/>
<path d="M456.298 366.06C456.349 365.979 456.359 365.934 456.336 365.921C456.324 365.899 456.278 365.904 456.188 365.944C453.086 368.743 450.097 371.127 447.102 372.969C443.995 374.68 441.014 376.023 438.182 377.142C435.274 378.16 432.417 378.825 429.758 379.518C427.125 380.251 424.502 380.73 421.975 381.292C419.453 381.861 417.087 382.617 414.721 383.524C412.307 384.358 409.966 385.469 407.625 387.029C405.32 388.662 402.853 390.408 400.338 392.872C399.076 394.094 397.786 395.47 396.453 397.022C395.107 398.537 393.676 400.119 392.205 401.948C394.467 402.566 396.649 403.102 398.695 403.407C400.729 403.674 402.666 403.82 404.511 403.861C408.192 403.921 411.533 403.674 414.449 402.765C417.394 401.933 420.032 400.792 422.464 399.436C424.865 397.997 427.004 396.211 429.086 394.369C437.355 386.699 443.836 377.026 456.298 366.06Z" fill="#59AF37"/>
<path d="M93.0759 266.274C93.0759 266.274 93.3379 267.385 93.7965 269.328C94.3004 271.258 94.8018 274.068 95.85 277.326C97.6491 283.922 100.726 292.514 104.432 300.809C108.308 309.031 112.737 316.958 116.57 322.57C118.343 325.465 120.165 327.647 121.279 329.28C122.443 330.877 123.106 331.789 123.106 331.789L124.822 330.534C124.822 330.534 123.779 328.894 121.954 326.022C120.077 323.194 117.703 318.949 115.028 313.809C109.708 303.493 104.218 288.969 101.146 273.937C98.0246 258.902 97.4072 243.534 97.7751 232.104C97.9086 229.245 98.0296 226.624 98.138 224.301C98.3546 221.983 98.5461 219.962 98.7024 218.299C99.0224 214.978 99.2088 213.081 99.2088 213.081L89.2711 212.267C89.2711 212.267 89.1754 215.086 89.0317 219.317C88.7772 223.537 89.0015 229.192 89.0947 234.821C89.4701 240.455 89.8053 246.076 90.4327 250.266C90.6922 252.363 90.9089 254.109 91.0601 255.334C91.2743 256.548 91.3977 257.241 91.3977 257.241C88.6664 261.187 85.8745 265.642 83.8159 270.477C82.7375 272.904 81.7195 275.441 80.7645 278.087C79.928 280.712 79.1645 283.446 78.4767 286.281C75.8637 297.561 75.0221 310.452 77.0127 323.759C78.9403 337.055 83.4808 350.8 90.5007 363.497C97.4929 376.207 106.917 387.817 117.829 397.186C126.797 404.914 137.695 411.745 148.27 418.243C125.139 399.363 111.188 379.47 102.847 362.55C100.726 358.327 99.0854 354.126 97.5357 350.276C96.165 346.275 94.9178 342.563 93.9653 338.978C93.0834 335.344 92.3073 331.963 91.7303 328.73C91.2365 325.45 90.851 322.373 90.5486 319.468C90.2815 316.547 90.2361 313.73 90.158 311.102C90.0598 308.479 90.1228 305.96 90.2689 303.536C90.4024 301.155 90.5309 298.862 90.6569 296.632C90.8862 294.427 91.108 292.285 91.3247 290.189C92.131 281.901 93.1288 274.483 93.0759 266.274Z" fill="#59AF37"/>
<path d="M215.848 359.141C220.494 357.78 228.802 357.324 235.612 356.563C242.411 355.873 247.652 355.23 246.356 354.867C234.222 356.288 222.82 355.036 212.605 352.668C202.357 350.296 193.294 346.829 184.954 343.733C176.561 340.654 168.913 337.887 160.855 336.602C156.761 336.007 152.651 335.695 148.216 335.919C143.716 336.199 139.133 336.811 133.995 338.172C131.979 338.676 136.245 344.481 142.29 350.165C148.388 355.794 156.163 361.119 159.535 362.482C176.193 369.678 185.662 369.058 193.014 367.365C200.432 365.447 206.139 361.988 215.848 359.141Z" fill="#59AF37"/>
<path d="M390.966 158.081C393.251 158.081 395.537 158.116 397.82 158.071C399.881 158.028 400.181 157.67 399.961 155.644C399.339 149.841 398.674 144.043 398.069 138.241C397.868 136.308 397.873 134.35 397.648 132.42C397.434 130.583 396.32 129.459 394.627 129.092C393.171 128.777 391.694 129.437 390.722 130.87C390.485 131.218 390.288 131.599 390.117 131.984C386.73 139.576 384.019 147.4 382.21 155.521C381.747 157.607 382.117 158.028 384.367 158.071C386.564 158.114 388.766 158.081 390.966 158.081ZM263.975 227.431C263.665 226.826 263.517 226.458 263.305 226.128C260.279 221.439 257.182 216.79 254.254 212.04C253.491 210.803 252.614 210.576 251.349 210.581C242.459 210.609 233.567 210.592 224.678 210.604C223.952 210.607 223.224 210.73 222.282 210.818C222.342 216.473 222.11 221.923 222.435 227.431H263.975ZM474.331 125.068L473.711 124.929C473.711 124.055 473.625 123.168 473.726 122.303C474.129 118.854 474.555 115.404 475.039 111.963C478.423 88.0102 485.485 65.1791 496.159 43.4869C499.077 37.558 502.405 31.8333 505.527 26.0052C506.502 24.1834 506.356 22.7648 505.152 21.5881C503.93 20.3938 502.022 20.099 500.45 20.9783C499.568 21.4722 498.759 22.1122 497.963 22.7396C485.395 32.6446 474.804 44.3461 466.134 57.7938C453.906 76.7622 446.203 97.5926 440.836 119.376C437.974 130.989 435.819 142.738 434.136 154.578C434 155.523 433.723 156.451 433.511 157.385C433.322 157.368 433.133 157.35 432.944 157.332C432.372 155.755 432.509 154.059 432.481 152.414C432.327 142.658 432.64 132.927 433.826 123.223C435.449 109.929 438.563 97.0408 443.981 84.7673C445.654 80.9726 447.644 77.3165 449.484 73.5949C450.429 71.6799 450.192 70.3244 448.715 69.0469C447.052 67.6056 445.513 67.6686 443.502 69.3971C436.845 75.1168 431.004 81.5849 425.985 88.7862C411.943 108.939 405.853 131.712 403.953 155.856C403.814 157.62 404.051 157.915 405.875 158.061C407.087 158.156 408.055 158.358 408.284 159.764C408.367 160.263 408.554 160.744 408.657 161.243C410.746 171.193 412.905 181.134 414.873 191.109C415.473 194.155 416.745 196.466 419.091 198.6C429.445 208.019 434.494 219.899 434.461 233.866C434.444 240.747 433.647 247.611 431.846 254.248C430.316 259.885 430.082 265.325 431.695 270.966C432.831 274.95 433.438 279.082 434.318 283.142C434.822 285.47 435.225 285.782 437.558 285.823C439.168 285.848 440.781 285.848 442.391 285.82C444.827 285.782 445.158 285.54 445.651 283.202C446.44 279.47 447.181 275.731 447.934 271.992C454.465 239.503 460.991 207.016 467.527 174.529C468.48 169.792 469.445 165.058 470.468 160.336C470.916 158.262 471.103 158.177 473.182 158.098C473.86 158.071 474.537 158.086 475.215 158.086C484.966 158.086 494.718 158.093 504.466 158.078C507.286 158.076 507.515 157.899 507.785 155.13C508.662 146.18 509.901 137.283 511.91 128.515C521.981 84.5506 543.776 47.4025 576.898 16.8536C578.642 15.2442 580.479 13.7324 582.184 12.0845C583.55 10.7667 583.789 9.31787 583.096 7.93203C582.416 6.57139 581.033 5.87345 579.241 6.0851C578.405 6.18337 577.578 6.41265 576.764 6.6369C555.36 12.528 537.311 23.9239 522.082 39.9568C508.805 53.9336 498.779 70.0976 490.323 87.3022C484.634 98.8777 479.766 110.809 475.346 122.923C475.077 123.662 474.673 124.352 474.331 125.068ZM322.181 266.605C322.095 266.811 322.007 267.02 321.918 267.227C320.989 266.99 320.029 266.831 319.132 266.504C309.973 263.173 300.821 259.829 291.679 256.45C289.613 255.687 287.635 254.686 285.557 253.966C283.339 253.197 280.782 254.848 280.855 257.143C280.89 258.28 281.606 259.555 282.362 260.484C286.922 266.086 291.992 271.211 297.46 275.928C313.931 290.136 332.736 299.857 353.828 305.164C354.594 305.355 355.33 305.655 356.081 305.905C356.058 306.111 356.035 306.318 356.015 306.522C354.964 306.63 353.914 306.827 352.863 306.832C344.876 306.867 336.951 306.194 329.102 304.665C327.777 304.405 326.436 304.138 325.091 304.068C323.536 303.985 322.599 304.982 322.039 306.33C321.473 307.701 321.777 309.039 322.876 310.037C323.312 310.43 323.831 310.742 324.332 311.055C347.872 325.757 373.595 333.374 401.236 334.71C406.823 334.98 412.419 335.032 418.01 335.206C421.906 335.327 422.473 334.639 421.455 330.769C418.867 320.952 417.68 310.949 417.867 300.817C418.061 290.194 419.519 279.712 421.991 269.366C424.473 258.985 427.293 248.674 428.084 237.953C429.021 225.274 425.632 214.154 416.71 204.892C411.474 199.459 405.359 195.186 398.739 191.694C390.722 187.463 382.518 183.585 374.427 179.486C338.14 161.102 309.307 134.547 287.739 100.097C276.546 82.2249 268.276 63.0575 262.892 42.6554C262.61 41.5921 262.322 40.5162 261.886 39.5133C261.292 38.1502 260.118 37.4346 258.659 37.422C257.175 37.4069 256.068 38.2182 255.446 39.541C255.088 40.2995 254.872 41.1386 254.69 41.9625C251.931 54.5107 251.447 67.1571 253.251 79.869C255.335 94.5488 260.274 108.296 267.072 121.419C275.153 137.021 285.375 151.154 296.769 164.453C302.229 170.825 308 176.931 313.619 183.165C314.188 183.797 315.065 184.298 314.899 185.747C313.871 185.168 313.064 184.754 312.301 184.273C283.097 165.741 258.911 142.083 239.819 113.23C239.443 112.666 239.088 112.078 238.65 111.567C237.231 109.909 235.46 109.723 233.683 110.982C232.446 111.859 231.955 113.084 232.194 114.528C232.567 116.783 232.97 119.04 233.499 121.263C238.393 141.826 247.92 160.114 260.813 176.737C272.845 192.248 287.033 205.582 302.424 217.662C309.355 223.102 316.572 228.182 323.642 233.45C324.393 234.01 325.441 234.332 325.837 235.849C324.758 235.421 323.99 235.159 323.256 234.821C313.855 230.472 304.767 225.546 296.081 219.899C280.792 209.959 267.4 197.996 256.913 182.955C256.572 182.469 256.225 181.975 255.804 181.567C254.741 180.536 253.513 180.219 252.072 180.758C249.943 181.554 249.182 182.968 249.799 185.412C251.384 191.676 253.587 197.726 256.348 203.567C263.917 219.577 275.049 232.765 288.537 244.071C298.125 252.109 308.572 258.877 319.505 264.922C320.427 265.431 321.291 266.04 322.181 266.605ZM161.325 340.989C161.295 339.974 161.234 338.956 161.234 337.94C161.229 279.415 161.232 220.89 161.232 162.364V158.537H241.774C241.144 157.214 240.754 156.327 240.305 155.47C233.93 143.303 229.387 130.487 226.711 117.015C226.059 113.731 226.134 110.612 228.478 107.893C232.461 103.272 240.121 103.06 243.737 108.717C250.56 119.381 258.276 129.379 266.83 138.717C269.292 141.403 271.849 144.003 274.379 146.629C274.873 147.14 275.447 147.574 275.987 148.045C276.13 147.934 276.274 147.823 276.418 147.712C275.642 146.561 274.868 145.407 274.089 144.258C266.639 133.282 260.186 121.769 255.3 109.41C249.958 95.8868 246.808 81.9024 246.458 67.3385C246.229 57.882 247.277 48.5515 249.437 39.3496C250.565 34.5495 254.02 31.7098 258.573 31.6619C263.119 31.6166 266.649 34.3479 267.881 39.158C271.061 51.5928 275.342 63.627 280.787 75.2479C290.699 96.3983 303.792 115.349 319.963 132.196C328.679 141.274 338.148 149.471 348.28 156.927C349.797 158.043 351.316 158.524 353.193 158.502C359.722 158.416 366.253 158.469 372.781 158.469H375.515C375.75 157.675 376.002 156.987 376.155 156.279C378.224 146.805 381.202 137.631 385.279 128.832C387.819 123.347 394.547 121.548 399.455 124.995C400.473 125.71 401.322 126.67 402.451 127.703C402.736 126.72 402.975 125.934 403.187 125.141C407.752 108.049 415.135 92.3718 426.446 78.6595C430.447 73.8066 434.827 69.324 439.566 65.1942C444.182 61.1727 448.809 61.2635 453.362 65.4663C453.609 65.6956 453.878 65.8972 454.359 66.2978C454.871 65.4512 455.357 64.6978 455.796 63.9142C461.944 52.9131 469.19 42.6982 477.818 33.4963C483.568 27.3608 489.734 21.6687 496.504 16.6628C499.87 14.1708 504.061 13.9617 507.467 16.048C512 18.8164 513.366 23.939 510.632 28.6131C506.003 36.5224 501.601 44.5527 498.008 52.9812C495.186 59.6055 492.687 66.3659 490.066 73.0708C489.797 73.7562 489.673 74.497 489.482 75.2126C489.633 75.2882 489.782 75.3638 489.933 75.4419C490.487 74.4819 491.051 73.5319 491.591 72.5644C497.988 61.14 505.245 50.3153 513.872 40.4355C530.704 21.1547 551.149 7.57424 575.993 0.88945C576.704 0.697952 577.362 0.302365 578.044 0H581.605C582.21 0.284727 582.804 0.592125 583.419 0.851655C589.895 3.58302 591.293 11.505 586.128 16.3151C581.91 20.2426 577.5 23.9768 573.461 28.0789C544.079 57.9097 524.906 93.2638 516.586 134.358C515.142 141.483 514.485 148.77 513.487 155.984C513.396 156.647 513.474 157.33 513.474 158.381C516.412 158.555 519.35 158.431 522.278 158.469C525.12 158.504 527.973 158.386 531.102 158.57C530.351 161.875 529.704 164.831 529.011 167.777C516.71 220.146 504.398 272.511 492.105 324.881C490.847 330.237 489.693 335.62 488.491 340.989H407.591C406.944 340.853 406.299 340.609 405.651 340.596C396.484 340.432 387.396 339.492 378.373 337.895C357.593 334.214 338.35 326.612 320.457 315.442C314.327 311.614 315.032 303.556 319.565 300.107C319.998 299.774 320.374 299.366 320.89 298.887C320.364 298.55 320.029 298.303 319.666 298.109C307.186 291.401 295.92 283.056 285.952 272.985C284.942 271.962 283.868 271.737 282.546 271.74C263.388 271.76 244.233 271.752 225.076 271.76C224.252 271.76 223.428 271.848 222.481 271.901V288.98H226.18C250.167 288.98 274.155 288.977 298.143 288.985C299.297 288.987 300.448 289.088 301.854 289.154V292.414C301.854 307.759 301.854 323.104 301.849 338.449C301.849 339.296 301.789 340.142 301.758 340.989H161.325Z" fill="black"/>
<path d="M659.195 271.695V227.58H597.039V210.594H675.878C676.453 208.299 676.516 161.273 676.022 158.829C673.8 158.3 538.07 158.328 535.83 158.913V162.13C535.83 203.176 535.833 244.225 535.83 285.271C535.828 303.844 535.818 322.417 535.81 340.989H676.244C676.269 340.737 676.317 340.485 676.317 340.231C676.324 323.863 676.332 307.495 676.322 291.127C676.322 290.484 676.156 289.842 676.035 288.98H649.721C640.902 288.98 632.086 288.982 623.267 288.98C614.561 288.975 605.856 288.995 596.883 288.962C596.843 283.054 596.8 277.523 596.911 271.755L659.195 271.695Z" fill="black"/>
<path d="M0.539551 289.078C1.18964 288.547 1.89011 288.063 2.48225 287.473C10.6688 279.347 18.8478 271.216 27.0141 263.072C43.11 247.024 59.1933 230.969 75.2918 214.921C76.3878 213.827 77.5897 212.809 76.6927 210.64C70.7941 210.546 64.7266 210.612 58.6592 210.599C52.5539 210.587 46.4461 210.597 40.3409 210.597H22.2796H4.06966C3.52792 208.556 3.35155 162.546 3.81265 158.867C5.74779 158.348 151.323 158.283 153.923 158.842C153.979 159.517 154.087 160.253 154.087 160.986C154.097 176.848 154.082 192.709 154.117 208.568C154.12 209.934 153.762 210.947 152.772 211.93C134.001 230.578 115.259 249.252 96.5153 267.928C90.8081 273.615 85.1363 279.337 79.414 285.006C78.3381 286.075 77.8518 287.168 78.5775 288.912H153.989C154.029 290.177 154.09 291.159 154.09 292.14C154.097 307.407 154.092 322.676 154.1 337.943C154.1 338.958 154.165 339.974 154.2 340.989H0.539551V289.078Z" fill="black"/>
<path d="M918.946 340.989C918.913 339.72 918.855 338.45 918.855 337.177C918.85 297.998 918.85 258.819 918.85 219.64C918.85 218.474 918.85 217.31 918.85 215.815H867.642V158.598C868.864 158.555 870.021 158.474 871.175 158.474C923.403 158.467 975.629 158.469 1027.86 158.462C1029.03 158.462 1030.21 158.343 1031.39 158.28V215.79C1015.13 215.785 998.869 215.775 982.607 215.778C981.798 215.78 980.989 215.888 980.122 215.951C980.067 216.894 979.989 217.562 979.989 218.229C979.991 259.149 979.996 300.069 980.004 340.989H918.946Z" fill="black"/>
<path d="M923.186 160.958C925.249 162.231 928.291 163.425 931.637 164.751C934.963 165.968 938.574 167.288 941.849 168.482C945.062 169.654 947.942 170.702 949.862 171.403C951.754 172.204 952.669 172.708 951.984 172.713C949.083 171.539 946.206 170.818 943.321 169.997C940.446 169.241 937.561 168.46 934.736 168.024C929.059 166.981 923.508 166.449 918.131 166.174C907.362 165.627 897.381 166.283 888.232 166.676C869.811 167.356 854.816 166.895 838.529 154.153C837.74 153.548 838.833 152.331 841.094 150.917C843.389 149.582 846.778 147.906 850.56 146.47C858.127 143.575 867.067 141.358 870.625 141.196C875.059 140.889 878.922 140.854 882.354 141.108C885.761 141.287 888.709 141.685 891.321 142.28C896.517 143.361 900.314 145.034 903.58 146.982C906.828 148.879 909.549 151.076 912.57 153.467C915.581 155.833 918.862 158.267 923.186 160.958Z" fill="#59AF37"/>
<path d="M971.802 155.49C975.209 158.247 982.151 162.22 987.757 165.12C993.331 168.383 997.639 170.749 996.38 170.598C993.89 169.22 991.38 167.94 988.868 166.741C986.356 165.546 983.806 164.664 981.286 163.722C976.242 161.792 971.21 160.545 966.297 159.396C956.462 157.145 947.129 156.097 938.585 154.747C921.438 152.041 907.577 148.667 895.785 133.742C894.634 132.339 900.832 130.484 908.212 129.451C911.894 128.907 915.852 128.539 919.304 128.454C922.744 128.292 925.666 128.355 927.289 128.615C943.521 130.998 950.863 135.095 956.167 139.679C958.808 141.977 960.93 144.335 963.293 146.953C965.657 149.624 968.265 152.456 971.802 155.49Z" fill="#59AF37"/>
<path d="M1014.95 157.778C1017.49 160.993 1023.22 164.989 1027.67 168.6C1032.14 172.191 1035.62 174.821 1034.52 174.532C1026.53 168.295 1017.93 163.775 1009.51 160.524C1005.3 158.904 1001.19 157.317 997.151 156.148C993.122 154.923 989.267 153.525 985.538 152.456C970.666 147.513 958.758 142.451 950.846 127.337C950.022 125.783 955.936 125.367 962.679 125.485C969.417 125.959 976.94 126.806 979.397 127.715C993.364 132.142 999.247 136.998 1003.32 141.596C1007.31 146.467 1009.49 151.494 1014.95 157.778Z" fill="#59AF37"/>
<path d="M78.474 286.281C75.861 297.562 75.0194 310.453 77.01 323.76C78.9376 337.056 83.4781 350.801 90.498 363.498C97.4902 376.207 106.916 387.818 117.829 397.186C126.794 404.914 137.693 411.745 148.268 418.244C125.139 399.363 111.187 379.47 102.845 362.551C100.723 358.328 99.0827 354.127 97.533 350.277C96.1623 346.276 94.9151 342.564 93.9651 338.979C93.0807 335.345 92.3046 331.964 91.7276 328.731C91.2338 325.45 90.8508 322.374 90.5459 319.469C90.2788 316.548 90.2335 313.731 90.1553 311.103C90.0571 308.48 90.1201 305.96 90.2662 303.536C90.3998 301.155 90.5283 298.862 90.6542 296.632C90.8835 294.428 91.6646 286.801 91.8813 284.704" fill="#59AF37"/>
<path d="M586.783 129.059L586.297 119.492L599.908 110.111C602.07 108.601 603.771 107.286 605.013 106.165C606.256 105.044 607.14 103.98 607.669 102.972C608.196 101.967 608.433 100.906 608.377 99.7899C608.329 98.8728 608.07 98.0664 607.596 97.371C607.12 96.6756 606.462 96.1414 605.626 95.7634C604.787 95.3855 603.829 95.2242 602.753 95.2797C600.8 95.3779 599.299 95.9247 598.25 96.9175C597.202 97.9102 596.593 99.0693 596.419 100.397L585.06 100.972C585.324 98.3209 586.095 95.834 587.378 93.5108C588.658 91.1902 590.538 89.255 593.02 87.7104C595.496 86.1658 598.57 85.3016 602.239 85.1152C605.744 84.9363 608.818 85.4099 611.451 86.5363C614.087 87.66 616.135 89.2752 617.602 91.3791C619.066 93.4831 619.87 95.8894 620.006 98.6006C620.117 100.793 619.819 102.796 619.111 104.61C618.403 106.424 617.33 108.097 615.891 109.629C614.45 111.161 612.646 112.661 610.484 114.13C610.292 114.298 610.081 114.45 609.846 114.581C609.614 114.714 609.383 114.865 609.151 115.037L605.086 117.64L602.741 118.658L602.771 119.257L606.926 118.446L620.976 117.733L621.462 127.3L586.783 129.059Z" fill="#59AF37"/>
<path d="M646.717 117.027C648.552 116.934 650.144 116.415 651.495 115.465C652.845 114.52 653.863 113.129 654.549 111.295C655.237 109.463 655.511 107.231 655.378 104.6C655.244 101.969 654.745 99.7748 653.876 98.0211C653.007 96.2674 651.853 94.9874 650.414 94.1811C648.975 93.3747 647.337 93.0195 645.503 93.1102C643.671 93.2034 642.079 93.725 640.728 94.6724C639.378 95.6198 638.36 97.0107 637.674 98.8425C636.986 100.677 636.712 102.909 636.845 105.54C636.979 108.17 637.478 110.363 638.347 112.116C639.214 113.873 640.368 115.153 641.807 115.956C643.248 116.765 644.883 117.12 646.717 117.027ZM647.234 127.192C643.288 127.391 639.672 126.645 636.389 124.954C633.106 123.264 630.473 120.779 628.49 117.503C626.504 114.228 625.403 110.436 625.184 106.132C624.967 101.826 625.678 97.943 627.321 94.4834C628.964 91.0238 631.332 88.2849 634.426 86.2692C637.521 84.2559 641.043 83.1472 644.989 82.9482C648.935 82.7466 652.548 83.4924 655.831 85.1832C659.114 86.8764 661.747 89.3608 663.733 92.6365C665.719 95.9121 666.82 99.7017 667.039 104.008C667.256 108.312 666.542 112.194 664.902 115.657C663.257 119.116 660.888 121.852 657.794 123.868C654.7 125.884 651.18 126.993 647.234 127.192Z" fill="#59AF37"/>
<path d="M672.586 124.708L672.099 115.14L685.711 105.76C687.873 104.25 689.573 102.935 690.816 101.814C692.058 100.692 692.942 99.6291 693.471 98.6213C693.998 97.6159 694.235 96.5551 694.179 95.4389C694.132 94.5217 693.872 93.7154 693.398 93.02C692.922 92.3245 692.264 91.7903 691.428 91.4124C690.589 91.0344 689.631 90.8732 688.555 90.9286C686.603 91.0269 685.101 91.5736 684.053 92.5664C683.005 93.5592 682.392 94.7182 682.221 96.0461L670.862 96.6206C671.127 93.9699 671.898 91.4829 673.18 89.1598C674.46 86.8391 676.34 84.904 678.822 83.3594C681.299 81.8148 684.373 80.9505 688.041 80.7641C691.546 80.5852 694.62 81.0589 697.253 82.1852C699.889 83.309 701.938 84.9241 703.404 87.0281C704.868 89.132 705.672 91.5383 705.808 94.2496C705.919 96.4417 705.621 98.4449 704.913 100.259C704.205 102.073 703.132 103.746 701.693 105.278C700.252 106.81 698.448 108.31 696.286 109.779C696.094 109.947 695.883 110.099 695.648 110.23C695.417 110.363 695.185 110.514 694.953 110.686L690.889 113.288L688.543 114.306L688.573 114.906L692.728 114.095L706.778 113.382L707.264 122.949L672.586 124.708Z" fill="#59AF37"/>
<path d="M732.673 121.659L732.31 114.485L710.485 115.591L710.001 106.024L722.776 80.1993L735.034 79.5769L722.257 105.401L731.824 104.918L731.353 95.6501L731.952 95.6199L742.414 95.0883L742.885 104.356L748.265 104.084L748.751 113.648L743.372 113.923L743.735 121.097L732.673 121.659Z" fill="#59AF37"/>
<path d="M589.998 77.5108C573.627 78.3423 560.986 92.3343 561.817 108.702L561.883 109.985C562.712 126.355 576.706 138.997 593.074 138.165L743.483 130.536C759.851 129.704 772.493 115.712 771.661 99.3416L771.598 98.0591C770.767 81.691 756.775 69.0496 740.407 69.8811L589.998 77.5108ZM743.707 134.963L593.298 142.595C574.489 143.55 558.408 129.021 557.453 110.209L557.388 108.927C556.435 90.1169 570.961 74.0361 589.773 73.0812L740.18 65.4515C758.992 64.4965 775.073 79.0252 776.025 97.8348L776.091 99.1173C777.046 117.929 762.52 134.01 743.707 134.963Z" fill="#59AF37"/>
<path d="M770.019 274.355L770.011 274.358C771.074 276.061 772.322 278.019 773.649 279.956C773.785 280.145 773.899 280.342 774.043 280.526C770.737 282.872 765.876 288.675 764.022 290.879C763.601 291.393 763.334 291.721 763.258 291.779C753.691 287.964 747.838 282.02 741.629 275.721L739.58 273.657C733.483 267.557 728.017 258.73 726.574 252.653C726.181 250.992 725.959 248.926 726.795 247.729C726.949 247.515 727.126 247.316 727.357 247.16C728.627 246.341 732.266 246.119 742.39 253.88C742.637 254.087 767.025 272.586 770.019 274.355ZM757.685 304.932C755.921 309.203 754.744 313.373 754.371 316.89C753.713 316.636 752.386 316.16 750.559 315.512C745.368 313.655 736.67 310.533 733.725 308.784C726.725 304.65 710.352 294.959 707.933 284.85C707.288 281.793 707.57 279.977 708.734 279.213C709.561 278.661 710.793 278.656 712.259 278.974C717.495 280.138 725.732 285.795 728.904 287.974L729.983 288.717C737.839 293.961 748.241 297.763 760.098 299.708C759.194 301.444 758.395 303.193 757.685 304.932ZM809.588 340.989H859.418C859.41 307.746 859.403 274.506 859.398 241.264C859.395 214.804 859.4 188.347 859.393 161.89C859.393 160.824 859.312 159.759 859.274 158.758C855.968 158.252 800.442 158.378 798.38 158.91V161.359C798.38 179.931 798.378 198.502 798.385 217.072C798.385 218.09 798.39 219.115 798.529 220.118C799.267 225.405 800.061 230.683 800.809 235.967C801.195 238.699 801.527 241.44 801.875 244.103C800.356 244.781 799.532 244.353 798.97 243.156C798.61 242.39 798.161 241.667 797.755 240.924C783.229 214.189 768.691 187.465 754.21 160.709C753.341 159.098 752.391 158.418 750.501 158.426C729.476 158.494 708.452 158.466 687.425 158.476C686.523 158.476 685.618 158.579 684.492 158.652V162.404C684.492 220.748 684.492 279.09 684.487 337.433C684.487 338.618 684.422 339.805 684.386 340.989H745.444H764.81C759.055 339.82 753.202 338.739 749.861 338.172C748.624 337.96 747.691 337.811 747.281 337.766C739.608 336.93 718.002 329.325 716.472 322.852C716.228 321.836 716.52 320.889 717.334 320.01C717.347 319.995 717.357 319.979 717.372 319.964C718.216 319.072 719.604 318.251 721.539 317.513C722.628 317.102 724.054 316.999 725.614 317.079C727.12 317.157 728.753 317.402 730.341 317.694C731.583 317.921 732.802 318.175 733.901 318.412C734.617 318.561 735.272 318.694 735.892 318.815C736.264 318.888 736.637 318.961 736.965 319.017C741.193 319.758 744.184 319.692 748.704 319.586C749.742 319.571 750.904 319.546 752.144 319.531C752.532 319.526 752.89 319.518 753.3 319.516C753.265 319.874 753.285 320.181 753.3 320.496C753.325 321.055 753.388 321.564 753.477 321.932C753.711 322.933 754.248 324.122 754.978 324.142C755.248 324.15 755.613 323.998 755.84 323.248C755.971 322.809 756.11 322.285 756.253 321.753C756.468 320.955 756.692 320.088 756.944 319.1C756.964 319.024 756.987 318.939 757.007 318.856C757.042 318.722 757.075 318.591 757.108 318.465C757.349 317.518 757.634 316.439 757.926 315.351C758.365 313.705 758.849 311.969 759.428 310.095C762.066 301.555 766.307 291.313 773.695 284.948C776.157 282.829 778.969 281.138 782.186 280.085C782.32 280.047 782.584 279.954 782.728 279.777C782.804 279.689 782.854 279.586 782.824 279.447C782.788 279.314 782.63 279.193 782.405 279.102C781.153 278.5 777.353 278.399 777.144 278.422C770.764 272.266 765.236 256.699 762.525 245.268L762.52 245.257C761.399 240.548 760.706 236.315 760.602 233.632C760.446 229.794 761.646 226.702 763.389 224.671C764.241 223.679 765.211 222.915 766.239 222.489C766.685 222.303 767.141 222.172 767.597 222.106C767.794 222.079 767.98 222.084 768.172 222.079C769.26 222.046 770.255 222.366 771.107 223.019C772.316 223.933 773.261 225.46 773.798 227.549C776.169 236.905 790.463 269.777 793.291 273.992C793.306 274.015 793.321 274.038 793.338 274.063C793.356 274.09 793.371 274.116 793.386 274.136C793.381 274.151 793.376 274.169 793.376 274.199C793.376 274.252 793.384 274.368 793.401 274.557C793.414 274.708 793.432 274.897 793.462 275.197C793.716 277.772 793.89 280.145 793.999 282.35C794.165 285.679 794.162 288.566 794.004 291.025C793.88 292.89 793.676 294.53 793.371 295.881C793.23 296.501 793.064 297.121 792.905 297.738C792.804 298.129 792.714 298.517 792.61 298.912C791.832 301.918 791.046 305.005 791.008 307.958C790.99 309.104 791.076 310.231 791.335 311.322C791.449 311.79 791.63 312.224 791.801 312.662C791.97 313.098 792.164 313.524 792.386 313.935C792.598 314.328 792.797 314.728 793.056 315.101C793.172 315.268 793.303 315.431 793.429 315.598C793.769 316.046 794.127 316.49 794.55 316.908C795.006 317.324 795.589 317.407 796.11 317.132C796.475 316.938 796.667 316.583 796.753 316.187C796.788 316.018 796.856 315.86 796.828 315.678C796.07 311.077 796.501 306.154 796.932 301.404C797.146 298.958 797.362 296.473 797.415 294.026C797.448 292.578 797.428 291.141 797.307 289.735C797.196 288.476 797.012 287.238 796.725 286.039C796.594 285.475 796.435 284.903 796.249 284.348C796.206 284.207 796.158 284.066 796.125 283.912C795.185 279.959 797.481 272.07 801.623 265.196C804.357 260.66 807.887 256.561 811.846 254.341C815.827 252.101 819.695 252.003 823.409 253.988C823.965 254.286 824.522 254.628 825.074 255.021C825.492 255.319 825.911 255.646 826.329 255.994C826.636 256.251 826.946 256.518 827.251 256.813C826.752 257.098 826.319 257.42 825.855 257.725C824.58 258.564 823.391 259.454 822.358 260.424C812.529 269.691 813.282 284.081 814.197 287.956C814.317 288.443 814.413 288.654 814.499 288.763C814.527 288.801 814.554 288.823 814.582 288.843C815.104 289.405 815.781 290.164 816.537 291.093C818.808 293.883 821.791 298.199 823.462 303.281C823.686 303.982 823.92 304.687 824.094 305.418C824.296 306.267 824.374 307.099 824.477 307.93C824.684 309.603 824.769 311.256 824.588 312.854C824.495 312.914 824.391 312.975 824.291 313.04L824.583 312.967C824.585 312.995 824.583 313.03 824.578 313.055C819.405 326.47 813.778 335.408 809.588 340.989Z" fill="black"/>
<path d="M873.53 176.163C878.466 177.964 887.431 179.043 894.753 180.348C902.068 181.575 907.699 182.641 906.271 182.943C893.229 180.547 880.794 181.099 869.561 182.943C858.293 184.79 848.234 187.909 838.982 190.674C829.674 193.418 821.195 195.874 812.376 196.698C807.904 197.054 803.429 197.101 798.641 196.547C793.786 195.927 788.865 194.942 783.395 193.105C781.248 192.417 786.28 186.428 793.226 180.698C800.229 175.031 809.025 169.813 812.772 168.576C831.322 161.954 841.534 163.294 849.378 165.645C857.277 168.243 863.214 172.396 873.53 176.163Z" fill="#59AF37"/>
<path d="M206.135 100.8C201.244 94.6669 195.293 93.0366 190.929 96.6322C186.673 100.14 186.043 107.137 189.606 111.37C193.894 116.467 201.116 117.261 206.052 113.179C210.283 109.682 210.308 106.031 206.135 100.8Z" fill="#59AF37"/>
<path d="M157.112 136.341C160.411 139.712 165.054 140.428 168.94 137.507C172.543 134.799 172.533 130.588 169.383 126.735C166.027 122.628 162.557 122.084 158.342 125.425C154.464 128.499 153.67 131.845 157.112 136.341Z" fill="#59AF37"/>
<path d="M792.917 107.37C795.286 109.791 798.622 110.305 801.414 108.206C804.001 106.261 803.994 103.237 801.731 100.471C799.32 97.5201 796.828 97.1295 793.799 99.5283C791.015 101.736 790.445 104.142 792.917 107.37Z" fill="#59AF37"/>
<path d="M193.839 142.841C191.531 142.582 189.702 140.044 190.067 137.608C190.345 135.751 193.242 133.39 195.051 133.541C197.044 133.707 199.451 136.708 199.209 138.724C198.902 141.261 196.457 143.136 193.839 142.841Z" fill="#59AF37"/>
<path d="M502.181 368.587C499.167 373.002 492.072 374.473 487.894 371.548C484.193 368.957 483.452 363.157 486.294 359.047C489.645 354.205 495.38 352.831 499.822 355.812C504.05 358.647 505.096 364.316 502.181 368.587Z" fill="#59AF37"/>
<path d="M522.646 332.762C525.654 335.244 527.113 338.754 524.521 342.325C522.205 345.51 518.476 347.266 514.704 344.439C511.209 341.821 510.886 338.17 513.227 334.483C515.55 330.822 518.652 330.283 522.646 332.762Z" fill="#59AF37"/>
<path d="M61.3259 371.712C65.8513 368.865 67.5823 361.83 64.8157 357.544C62.364 353.749 56.5939 352.794 52.3809 355.483C47.4171 358.653 45.8347 364.332 48.6467 368.88C51.3226 373.212 56.9491 374.466 61.3259 371.712Z" fill="#59AF37"/>
<path d="M362.263 119.962C362.467 124.482 361.162 128.365 360.383 132.329C360.028 134.14 359.625 135.95 358.987 137.691C358.347 139.437 357.558 139.722 355.991 138.668C353.751 137.159 351.839 135.277 350.037 133.264C348.099 131.094 346.235 128.864 344.506 126.526C343.584 125.276 342.871 123.908 342.413 122.421C341.531 119.564 342.858 117.659 345.88 117.478C348.392 117.329 350.728 117.914 352.64 119.594C353.487 120.337 353.875 120.091 354.318 119.297C355.263 117.614 356.52 116.218 358.163 115.19C359.473 114.371 360.456 114.593 361.288 115.91C362.147 117.271 362.268 118.808 362.263 119.962Z" fill="#59AF37"/>
<path d="M991.909 230.991C991.874 233.79 992.758 236.164 993.318 238.598C993.575 239.711 993.86 240.823 994.288 241.886C994.719 242.952 995.213 243.113 996.16 242.43C997.516 241.453 998.66 240.251 999.733 238.971C1000.89 237.59 1002 236.174 1003.02 234.695C1003.56 233.903 1003.98 233.044 1004.23 232.114C1004.72 230.331 1003.86 229.179 1001.99 229.129C1000.43 229.086 999 229.494 997.851 230.57C997.342 231.046 997.097 230.902 996.808 230.421C996.19 229.398 995.384 228.562 994.348 227.959C993.522 227.478 992.92 227.634 992.431 228.466C991.927 229.325 991.884 230.278 991.909 230.991Z" fill="#59AF37"/>
<path d="M829.152 86.9542C829.147 93.5181 824.682 99.2353 819.555 99.2479C814.571 99.2605 810.454 94.2916 810.426 88.2317C810.401 82.8345 816.032 76.7015 821.039 76.6713C825.537 76.6436 829.157 81.2319 829.152 86.9542Z" fill="#59AF37"/>
<path d="M876.696 350.017C879.44 350.073 882.201 351.61 882.355 356.108C882.514 360.716 878.394 365.914 874.32 365.909C869.585 365.902 867.801 362.739 867.652 358.564C867.464 353.351 869.857 350.196 876.696 350.017Z" fill="#59AF37"/>
<path d="M82.5533 375.864C85.2972 375.919 88.0588 377.456 88.2125 381.954C88.3713 386.563 84.2515 391.761 80.1772 391.756C75.4426 391.748 73.6587 388.586 73.51 384.411C73.3211 379.197 75.7148 376.043 82.5533 375.864Z" fill="#59AF37"/>
</svg>
