<svg xmlns="http://www.w3.org/2000/svg" width="184" height="60" fill="none"><path fill="#1C2024" fill-rule="evenodd" d="M100.856 13.261a1.28 1.28 0 0 1-1.28 1.28A124.03 124.03 0 0 0 7.01 56.048a1.28 1.28 0 1 1-1.912-1.704A126.593 126.593 0 0 1 99.575 11.98c.707 0 1.281.573 1.281 1.28Z" clip-rule="evenodd"/><path fill="#1C2024" fill-rule="evenodd" d="M16.993 52.062a1.28 1.28 0 0 1-.878 1.583l-9.71 2.78a1.28 1.28 0 0 1-1.594-1.54l2.447-9.799a1.28 1.28 0 1 1 2.484.62l-1.909 7.647 7.577-2.17a1.28 1.28 0 0 1 1.583.879Z" clip-rule="evenodd"/><path fill="#000" d="M181.436 11.172c.16-.124.315-.217.463-.278.161-.075.303-.124.427-.149.136-.037.272-.05.408-.037.334.025.538.13.613.315.086.186.099.483.037.891-.037.21-.112.476-.223.798-.111.322-.241.717-.39 1.187-.148.458-.309.984-.482 1.578a31.134 31.134 0 0 0-.464 2.003 89.33 89.33 0 0 0-.482 2.097l-.538 2.505c-.198.977-.415 2.097-.65 3.358-.062.31-.198.489-.408.538a.956.956 0 0 1-.631-.074 1.686 1.686 0 0 1-.241-.167 3.832 3.832 0 0 1-.204-.222.861.861 0 0 1-.186-.316c.285-1.039.532-1.985.743-2.839.222-.853.42-1.595.593-2.226.186-.73.359-1.386.52-1.967.062-.26.117-.513.167-.76.062-.26.124-.514.185-.762-.16.26-.334.508-.519.743-.186.235-.39.439-.612.612a2.418 2.418 0 0 1-.724.39c-.248.099-.507.13-.779.092-.668-.086-1.145-.334-1.429-.742-.272-.408-.39-.94-.353-1.595.013-.26.05-.545.112-.854.062-.31.13-.606.204-.89.074-.285.142-.539.204-.761.074-.235.13-.402.167-.501.148-.47.253-.872.315-1.206.075-.334.025-.613-.148-.835.173-.112.334-.186.482-.223.161-.05.303-.087.427-.111.136-.013.272-.013.408 0 .334.05.526.173.575.37.062.199.044.496-.055.891-.05.21-.13.483-.241.817-.112.321-.229.655-.353 1.002-.124.346-.235.668-.334.965-.099.284-.155.488-.167.612-.111.556-.117.99-.019 1.299.099.297.316.445.65.445.161 0 .34-.068.538-.204a3.66 3.66 0 0 0 .594-.575c.21-.235.414-.501.612-.798a12 12 0 0 0 .538-.928c.173-.31.322-.612.445-.909a4.94 4.94 0 0 0 .297-.798c.087-.458.143-.816.167-1.076.025-.26-.062-.495-.259-.705Z"/><path fill="#000" d="M172.919 7.368a25.583 25.583 0 0 1-.631 2.134 28.08 28.08 0 0 1-.705 1.893 19.39 19.39 0 0 1-.724 1.595c-.235.483-.445.903-.63 1.262-.124.89-.124 1.608 0 2.152.123.545.364.817.723.817.297 0 .588-.136.872-.409.285-.272.538-.606.761-1.002.223-.395.408-.816.557-1.261.16-.458.259-.866.296-1.225a1.372 1.372 0 0 1-.593-.315c-.161-.161-.241-.371-.241-.631 0-.173.049-.334.148-.482a1.616 1.616 0 0 1 .798-.669c.161-.061.309-.092.445-.092.21 0 .39.136.538.408.149.26.248.594.297 1.002a7.179 7.179 0 0 0 1.559-.223 9.819 9.819 0 0 0 1.54-.52c.136-.061.247-.08.334-.055.086.025.142.074.167.149.037.074.037.16 0 .26a.406.406 0 0 1-.223.203c-.284.161-.581.31-.891.446a8.424 8.424 0 0 1-1.744.52c-.272.049-.519.073-.742.073-.049.495-.204 1.033-.464 1.615-.26.569-.575 1.1-.946 1.595a5.737 5.737 0 0 1-1.243 1.206c-.446.322-.885.483-1.318.483a3.44 3.44 0 0 1-.538-.056c-.222-.037-.439-.167-.649-.39-.21-.222-.39-.575-.538-1.057-.149-.495-.211-1.194-.186-2.097.013-.606.081-1.25.204-1.93a29.78 29.78 0 0 1 1.021-4.007c.222-.643.433-1.219.631-1.726.198-.52.377-.952.538-1.299.173-.346.303-.569.389-.668.112-.136.242-.235.39-.296.149-.075.291-.124.427-.149.148-.037.284-.05.408-.037.124.012.21.03.26.056.074.05.093.321.055.816-.024.495-.142 1.132-.352 1.911ZM160.061 14.456c-.062.383-.124.748-.186 1.095-.049.346-.08.624-.093.835-.012.309.044.532.167.668.124.136.26.204.408.204.174 0 .384-.087.631-.26.26-.173.532-.39.817-.65.284-.26.569-.544.853-.853.285-.31.544-.6.78-.872.247-.284.451-.532.612-.742.173-.21.291-.347.352-.408a.425.425 0 0 1 .223-.13c.087-.013.155 0 .204.037.05.037.074.105.074.204 0 .099-.049.223-.148.371-.149.235-.34.513-.575.835-.235.31-.495.63-.78.965-.284.334-.587.662-.909.983a8.489 8.489 0 0 1-.946.854 5.152 5.152 0 0 1-.909.594c-.285.16-.545.24-.78.24a.944.944 0 0 1-.501-.148 1.739 1.739 0 0 1-.408-.39 2.111 2.111 0 0 1-.297-.537 1.66 1.66 0 0 1-.074-.594c.013-.087.031-.235.056-.446-.52.582-1.045 1.046-1.577 1.392-.52.334-1.021.501-1.503.501a1.444 1.444 0 0 1-1.095-.557 2.553 2.553 0 0 1-.371-.779c-.099-.321-.136-.711-.111-1.169a6.605 6.605 0 0 1 .426-2.04c.248-.644.557-1.2.928-1.67.384-.483.81-.86 1.28-1.133.483-.284.965-.426 1.448-.426.21 0 .402.055.575.167a1.4 1.4 0 0 1 .445.408c.124.16.223.34.297.538.087.198.148.383.186.557.086-.36.167-.712.241-1.058.074-.346.148-.674.222-.983.124-.458.254-.953.39-1.485l.427-1.577c.161-.594.34-1.218.538-1.874a1.658 1.658 0 0 1 .668-.334.995.995 0 0 1 .649 0c.099.025.18.105.242.241.074.124.123.316.148.575.025.26.025.613 0 1.058a8.383 8.383 0 0 1-.297 1.781 16.369 16.369 0 0 1-.649 2.004c-.272.68-.588 1.367-.947 2.06-.346.68-.723 1.33-1.131 1.948Zm-1.095.241c.049-.235.093-.47.13-.705.049-.235.105-.476.167-.723l-.075.037a.202.202 0 0 1-.055.037c-.136.062-.229.062-.279 0-.049-.074-.074-.186-.074-.334 0-.074-.006-.204-.018-.39a2.536 2.536 0 0 0-.112-.594 1.413 1.413 0 0 0-.241-.538.533.533 0 0 0-.464-.24c-.284 0-.575.148-.872.444a5.351 5.351 0 0 0-.835 1.058 6.901 6.901 0 0 0-.649 1.317c-.173.47-.272.891-.297 1.262-.025.594.049 1.02.223 1.28.173.26.408.39.705.39.222 0 .464-.087.723-.26.273-.173.532-.383.78-.63.259-.248.494-.502.705-.761.222-.26.402-.477.538-.65Z"/><path fill="#000" d="M155.496 14.14a14.843 14.843 0 0 1-1.262 1.596c-.47.508-.971.965-1.503 1.373a8.05 8.05 0 0 1-1.614.965c-.544.248-1.076.371-1.596.371-.272 0-.569-.068-.89-.204a2.433 2.433 0 0 1-.854-.593c-.259-.273-.47-.625-.631-1.058-.148-.433-.191-.959-.129-1.577.049-.508.204-1.04.463-1.596.273-.569.6-1.088.984-1.559.396-.47.835-.86 1.317-1.168.495-.31.99-.464 1.485-.464.47 0 .81.117 1.02.352.21.235.303.526.278.872a2.581 2.581 0 0 1-.334 1.058 4.03 4.03 0 0 1-.63.872c-.248.26-.514.495-.798.705-.272.21-.532.402-.78.575-.272.186-.531.365-.779.538-.247.161-.464.31-.649.446.012.309.068.569.167.779.099.21.222.383.371.52.148.123.315.216.501.278.198.05.396.074.594.074.42 0 .859-.13 1.317-.39a9.563 9.563 0 0 0 1.336-.965c.445-.383.853-.779 1.224-1.187.384-.408.699-.76.947-1.058.086-.099.173-.154.26-.167.099-.024.173-.012.222.037.062.037.093.112.093.223 0 .099-.043.217-.13.353Zm-4.75-2.857c-.148 0-.328.074-.538.223a2.808 2.808 0 0 0-.594.65 5.162 5.162 0 0 0-.556 1.02 5.788 5.788 0 0 0-.39 1.373c.148-.111.309-.223.482-.334.174-.124.347-.254.52-.39.532-.408.903-.767 1.113-1.076.21-.31.328-.575.353-.798.024-.235 0-.402-.074-.5a.36.36 0 0 0-.316-.168Z"/><path fill="#000" d="M148.204 13.306a.275.275 0 0 1 .186-.13c.086-.025.154-.019.204.018.049.037.074.1.074.186.012.086-.019.204-.093.352-.247.47-.575.978-.983 1.522a17.145 17.145 0 0 1-1.262 1.54 9.83 9.83 0 0 1-1.299 1.169c-.42.31-.773.464-1.057.464-.409 0-.749-.08-1.021-.241a2.012 2.012 0 0 1-.649-.594 2.41 2.41 0 0 1-.316-.76 2.451 2.451 0 0 1-.055-.78c.012-.198.055-.55.129-1.058.075-.52.174-1.113.297-1.781.124-.68.26-1.404.409-2.171.16-.78.327-1.528.501-2.245l-.631.074a4.97 4.97 0 0 1-.576.037c-.395 0-.766-.043-1.113-.13a4.723 4.723 0 0 1-.798-.278c-.099-.05-.142-.118-.13-.204a.608.608 0 0 1 .112-.278.75.75 0 0 1 .241-.242c.087-.074.167-.111.241-.111.235.025.489.05.761.074.272.013.569.013.891 0 .235-.012.457-.03.668-.055.222-.025.439-.056.649-.093.161-.594.315-1.107.464-1.54.161-.446.303-.755.427-.928.037-.062.117-.111.241-.148.136-.05.278-.08.427-.093.148-.025.29-.025.426 0 .136.012.235.056.297.13.062.099.087.352.074.76-.012.409-.08.928-.204 1.559.52 0 .978.031 1.373.093.409.05.755.111 1.039.185.285.062.514.13.687.204.173.062.303.106.39.13.086.025.129.087.129.186a.59.59 0 0 1-.055.315.579.579 0 0 1-.204.26c-.099.074-.211.1-.334.074a3.457 3.457 0 0 1-.427-.074 4.3 4.3 0 0 0-.557-.093 23.09 23.09 0 0 0-.76-.074 12.71 12.71 0 0 0-1.039-.037c-.075 0-.161.006-.26.019h-.279l-.148.593a4.383 4.383 0 0 1-.167.594 51.062 51.062 0 0 1-.557 1.614 68.248 68.248 0 0 1-.668 1.745 68.91 68.91 0 0 1-.872 2.096c-.074.532-.068.94.019 1.225.099.272.216.47.352.594.161.136.359.21.594.222.186.025.408-.037.668-.185.272-.161.551-.372.835-.631.285-.26.569-.544.854-.854.296-.309.569-.612.816-.909.247-.297.464-.563.649-.798l.39-.52ZM137.294 17.37a.49.49 0 0 0 .278.073.862.862 0 0 0 .353-.074c.124-.05.235-.117.334-.204a.728.728 0 0 0 .241-.334c.049-.136.049-.328 0-.575a4.607 4.607 0 0 0-.241-.816 12.89 12.89 0 0 0-.334-.891 15.284 15.284 0 0 1-.316-.817 6.631 6.631 0 0 1-.185-.52c-.05-.135-.099-.265-.149-.389a1.843 1.843 0 0 0-.092-.278c-.062.099-.174.26-.334.482-.149.223-.316.458-.501.705a64.16 64.16 0 0 1-.501.668l-.334.409a.614.614 0 0 1-.297.204.279.279 0 0 1-.223-.056.396.396 0 0 1-.111-.241c0-.111.049-.241.148-.39.074-.099.186-.253.334-.464l.446-.668c.148-.235.284-.439.408-.612.123-.186.192-.297.204-.334.025-.099-.012-.229-.111-.39-.087-.16-.099-.346-.038-.556.05-.173.161-.371.334-.594.174-.235.378-.445.613-.63a2.51 2.51 0 0 1 .723-.409c.248-.099.47-.099.668 0 .161.099.291.21.39.334.099.111.136.229.111.352a3.233 3.233 0 0 1-.334.613c-.099.136-.241.315-.426.538.037.284.086.544.148.78.074.234.142.438.204.612.074.21.155.402.241.575.112.222.229.451.353.686.124.235.235.47.334.705.099.223.179.433.241.631s.08.365.056.501c-.037.21-.149.464-.334.76a4.68 4.68 0 0 1-.668.873c-.26.272-.563.507-.909.705a2.044 2.044 0 0 1-1.058.297c-.26 0-.513-.08-.761-.241a2.926 2.926 0 0 1-.612-.557 3.163 3.163 0 0 1-.371-.65c-.074-.21-.081-.37-.019-.482a2.77 2.77 0 0 1 .204-.352c.062-.087.155-.186.279-.297.049-.037.111-.08.185-.13.062-.037.149-.074.26-.112l.39-.13c.123.384.235.687.334.91.099.21.179.377.241.5a.936.936 0 0 0 .204.28Z"/><path fill="#000" d="M128.072 18.297c-.47 0-.853-.074-1.15-.223a2.125 2.125 0 0 1-.705-.538 2.347 2.347 0 0 1-.353-.705 3.065 3.065 0 0 1-.093-.705c0-.371.031-.76.093-1.169.062-.42.136-.804.223-1.15.087-.36.161-.662.223-.91.074-.247.123-.402.148-.463.111-.36.254-.668.427-.928.185-.272.439-.458.761-.557.123-.024.253-.05.389-.074.111-.012.223-.019.334-.019.124 0 .235.019.334.056-.334.854-.6 1.565-.798 2.134a32.197 32.197 0 0 0-.426 1.392c-.112.408-.18.736-.205.983-.061.556-.012.977.149 1.262.161.284.488.426.983.426.322 0 .631-.117.928-.352.297-.248.569-.563.816-.947a3.325 3.325 0 0 1-.055-.612c0-.396.031-.78.093-1.15.074-.384.154-.736.241-1.058.099-.334.198-.63.297-.89.111-.26.204-.464.278-.613.136-.297.26-.476.371-.538.111-.074.291-.117.538-.13a.781.781 0 0 1 .241 0c.075 0 .136.006.186.019.148.037.222.111.222.223 0 .197-.012.494-.037.89a5.566 5.566 0 0 1-.222 1.225c-.087.346-.173.643-.26.89-.074.235-.148.44-.223.613-.074.16-.148.297-.222.408-.075.099-.143.192-.204.278.024.371.055.668.092.89.037.224.081.397.13.52.062.112.13.192.204.242.087.037.18.055.279.055.173 0 .377-.08.612-.24a6.48 6.48 0 0 0 .724-.632c.259-.26.513-.538.76-.835.26-.309.495-.6.705-.872.211-.272.39-.507.538-.705.149-.21.242-.34.279-.39.086-.11.167-.179.241-.204.087-.024.155-.012.204.037.05.038.074.106.074.204a.475.475 0 0 1-.074.297c-.247.47-.557.972-.928 1.503a12.08 12.08 0 0 1-1.169 1.448 7.795 7.795 0 0 1-1.243 1.113c-.42.297-.816.445-1.187.445-.334 0-.6-.111-.798-.334-.186-.235-.346-.569-.483-1.002a3.36 3.36 0 0 1-1.001 1.04 2.405 2.405 0 0 1-1.281.352Z"/><path fill="#000" d="M117.348 17.907c-.087.136-.18.223-.279.26-.111.05-.204.056-.278.018-.087-.024-.142-.086-.167-.185-.025-.099 0-.223.074-.371.037-.074.124-.241.26-.501.124-.26.278-.57.464-.928.173-.37.365-.767.575-1.187l.594-1.225c.198-.383.377-.723.538-1.02.161-.31.278-.532.352-.668-.136-.124-.228-.21-.278-.26-.049-.062-.086-.186-.111-.371-.025-.161.012-.371.111-.631a3.54 3.54 0 0 1 .39-.742c.161-.248.34-.458.538-.631s.39-.26.575-.26c.346 0 .588.111.724.334.148.223.235.452.259.687.025.16.013.364-.037.612-.049.247-.142.47-.278.668.037.025.087.056.148.093a.863.863 0 0 0 .297.037c.198 0 .334-.013.409-.037.086-.025.216-.037.389-.037.21 0 .384.055.52.167.136.099.247.228.334.39.086.148.148.315.185.5.05.173.081.334.093.483.037.309-.043.63-.241.964-.198.334-.439.7-.724 1.095a9.85 9.85 0 0 0-.519.835c-.174.31-.248.588-.223.835.025.16.068.29.13.39.062.099.235.148.519.148.211 0 .44-.074.687-.223.26-.16.519-.358.779-.593.272-.248.538-.514.798-.798.26-.297.501-.582.724-.854.222-.284.408-.538.556-.76.161-.223.279-.384.353-.483a.48.48 0 0 1 .241-.204c.099-.037.186-.037.26 0 .074.037.117.111.13.223.024.111-.019.26-.13.445-.074.124-.204.322-.39.594-.173.272-.389.575-.649.909-.248.334-.526.68-.835 1.04-.309.345-.637.667-.984.964-.334.284-.674.52-1.02.705-.334.186-.656.278-.965.278-.322 0-.587-.061-.798-.185a1.833 1.833 0 0 1-.519-.446 2.164 2.164 0 0 1-.279-.593 2.162 2.162 0 0 1-.055-.613c.012-.148.049-.303.111-.463.074-.174.155-.347.241-.52.099-.186.198-.365.297-.538.111-.186.21-.365.297-.538.21-.359.377-.662.501-.91.136-.26.204-.476.204-.649a.592.592 0 0 0-.074-.297c-.05-.086-.13-.13-.241-.13a.562.562 0 0 0-.167.019h-.093a.78.78 0 0 0-.13.019h-.241c-.161 0-.297-.025-.408-.075a1.972 1.972 0 0 0-.316-.111c-.049.087-.161.272-.334.557l-.612 1.002c-.223.383-.464.785-.724 1.206-.247.42-.482.816-.705 1.187-.222.359-.408.668-.556.928-.161.247-.26.396-.297.445ZM111.132 6.385c-.149.05-.26.056-.334.018a.354.354 0 0 1-.167-.185.701.701 0 0 1-.056-.278 2.427 2.427 0 0 1 .074-.613c.038-.111.081-.216.13-.315a.928.928 0 0 1 .167-.241.556.556 0 0 1 .279-.149 20.978 20.978 0 0 1 1.651-.223 44.16 44.16 0 0 1 1.466-.11c.495-.038.971-.056 1.429-.056.098 0 .197.006.296.018h.297a.668.668 0 0 1 .26-.019c.074 0 .136.007.186.02.358.011.729.03 1.113.055.321.024.68.055 1.076.092a19 19 0 0 1 1.206.112.731.731 0 0 1 .019.37l-.037.224a.45.45 0 0 1-.093.204.97.97 0 0 1-.149.185.698.698 0 0 1-.185.13 41.755 41.755 0 0 0-1.225-.018 31.982 31.982 0 0 0-1.02-.019h-1.002c-.161.569-.359 1.274-.594 2.115-.235.829-.476 1.707-.724 2.635-.235.915-.464 1.83-.686 2.746-.21.903-.377 1.72-.501 2.45a440.19 440.19 0 0 1-.371 2.077c-.05.285-.105.582-.167.891-.05.31-.099.612-.149.91-.037.296-.074.58-.111.853-.037.272-.068.52-.093.742a3.26 3.26 0 0 1-.556.223 3.037 3.037 0 0 1-.464.13c-.161.037-.31.055-.446.055-.297 0-.482-.037-.556-.111-.062-.062-.068-.192-.019-.39.037-.173.149-.643.334-1.41.074-.322.167-.73.278-1.225.124-.482.266-1.07.427-1.762.161-.705.353-1.522.575-2.45.223-.94.477-2.016.761-3.228l1.243-5.158c-.371.05-.736.105-1.094.167-.359.062-.699.13-1.021.204a23.86 23.86 0 0 0-1.447.334Z"/></svg>
