<svg viewBox="0 0 420 98" fill="none" xmlns="http://www.w3.org/2000/svg"><path d="M160.313 24.609v11.773l4.273-.002-.009-14.056-4.264 2.285Zm4.374-5.919a2.58 2.58 0 0 0-.936-1.204c-.972-.586-2.369-.418-3.117.378-.566.529-.838 1.415-.692 2.262.115.792.763 1.427 1.313 1.682.906.363 2.254.289 3.076-.726.466-.558.616-1.565.356-2.394v.002Zm-25.651 5.92c-.218-.877-.963-1.633-1.812-1.834-1.965-.483-3.753.266-4.786 2.004l-.097.162-.069-.175c-.514-1.286-1.329-1.998-2.42-2.116-1.815-.282-3.217.41-4.553 2.244l-.167.23V22.46L121 24.564v11.834h4.132l.008-8.86c0-.692.686-1.3 1.374-1.277.644.021 1.291.629 1.291 1.277l.002 8.85h4.311l-.007-8.85c.007-.7.746-1.308 1.45-1.277.645.029 1.26.637 1.26 1.277v8.847h4.336l-.008-10.25c0-.422 0-1.034-.113-1.524Zm12.074 10.115c-.37-.035-.472-.82-.472-.82 0-.007-.786-4.672-.786-4.672 0 .005-.186-.907-.186-.907-.191-.97-.39-1.976-.76-2.9-1.208-2.8-4.675-3.261-7.228-2.505-.41.125-.798.335-.798.335v1.736c1.05-.456 2.075-.484 2.903-.09 1.078.522 1.382 1.85 1.438 2.4 0 .01.095.616.095.616-1.245.188-2.793.495-3.934 1.3-1.275.909-1.946 2.357-1.797 3.87.046 1.609 1.292 2.897 2.494 3.343 1.598.565 3.792.474 5.097-1.028l.159-.177.37.36c.952.997 1.994.966 3.203.93l.641-.012-.001-1.713s-.427-.061-.438-.066Zm-5.479-4.748.781 3.784c-2.011 2.318-5.322-1.75-.781-3.784Zm13.654-7.64c-1.885 0-2.913 2.186-2.924 2.21l-.178.42v-.268l-.002-2.375-4.195 2.284.004 11.807 4.21-.001v-7.558l.016-.282c.038-.623.073-1.266.365-1.808.63-1.218 2.089-1.192 3.109-1.06l.74-3.172s-.465-.195-1.145-.197Zm60.114.197s-.465-.195-1.145-.197c-1.885 0-2.912 2.186-2.923 2.21l-.179.42V24.7l-.002-2.375-4.195 2.284.004 11.808 4.21-.002v-7.558l.016-.282c.038-.623.073-1.266.365-1.808.63-1.217 2.089-1.192 3.109-1.06l.74-3.172Zm-8.847-3.98c-.163-.46-.505-.9-.936-1.204-.972-.587-2.369-.419-3.118.377-.565.53-.837 1.416-.691 2.262.115.792.763 1.428 1.313 1.683.906.363 2.254.289 3.076-.726.466-.558.616-1.566.356-2.394v.002Zm14.66 16.06c-1.667-.122-2.458-3.204-2.458-3.204L230 29.07s-.137-3.167-1.885-4.885c-1.6-1.572-4.028-2.04-6.262-1.12-1.329.515-2.558 1.898-3.128 3.52-1.114 3.09-.451 6.545 1.649 8.599 1.938 1.855 4.953 1.82 7.13 1.169-.009.002 1.097-.472 1.097-.472l-.002-1.961s-1.323.846-3.387.695Zm-2.557-5.178c-.115-1.33.049-2.75.369-3.402.324-.662.691-.918 1.14-.972 1.921-.233 2.134 3.29 2.134 3.29l-3.643 1.092c.002.003 0-.01 0-.008Zm-16.477-4.827v11.773l4.273-.002-.009-14.056-4.264 2.285Zm-31.163-.424c-1.6-1.572-4.028-2.04-6.262-1.12-1.329.515-2.558 1.898-3.128 3.52-1.114 3.09-.451 6.545 1.649 8.599 1.938 1.856 4.954 1.821 7.13 1.169-.008.002 1.097-.472 1.097-.472l-.002-1.96s-1.323.845-3.386.694c-1.667-.123-2.459-3.205-2.459-3.205l7.246-2.341s-.136-3.166-1.885-4.884Zm-5.46 5.26c.002.002 0-.011 0-.009-.115-1.329.049-2.75.369-3.402.324-.663.691-.918 1.14-.972 1.922-.233 2.135 3.29 2.135 3.29l-3.644 1.092Zm16.383 4.704c-1.12-.583-2.057-1.439-2.177-3.894-.14-2.86.429-4.87 1.956-5.453 1.159-.442 2.75.533 2.75.533l.016-2.311s-2.181-1.058-4.63-.276c-2.211.707-3.636 2.43-4.141 5.247-.368 2.053-.076 4.32.941 6.102 1.171 1.93 3.391 2.933 5.923 2.59.689-.094 2.124-.536 2.124-.536l-.02-2.136s-1.587.735-2.742.134Zm19.363.44c-.37-.036-.472-.82-.472-.82 0-.007-.786-4.673-.786-4.673 0 .006-.186-.907-.186-.907-.191-.97-.39-1.975-.76-2.9-1.208-2.8-4.674-3.26-7.228-2.504-.409.124-.797.334-.797.334v1.736c1.05-.456 2.074-.483 2.903-.09 1.078.523 1.382 1.851 1.438 2.402 0 .009.095.615.095.615-1.246.187-2.793.494-3.934 1.3-1.275.908-1.946 2.356-1.797 3.87.046 1.609 1.291 2.897 2.494 3.343 1.598.565 3.791.474 5.096-1.028l.16-.178.37.36c.951.998 1.994.967 3.202.931l.641-.013v-1.713s-.428-.06-.439-.065Zm-5.478-4.748.78 3.784c-2.01 2.318-5.321-1.75-.78-3.784Zm-10.708 6.515h4.2V18.092l-4.2 2.249v16.015ZM272.375 36.874a8.248 8.248 0 0 1-1.548.129c-1.444 0-2.724-.303-3.83-.92a6.427 6.427 0 0 1-2.585-2.643c-.617-1.152-.931-2.538-.931-4.144 0-1.677.361-3.085 1.083-4.25.721-1.163 1.664-2.06 2.817-2.677 1.152-.617 2.363-.931 3.62-.931 1.281 0 2.387.268 3.307.791a5.51 5.51 0 0 1 2.13 2.189c.501.931.745 1.99.745 3.201 0 .268-.012.513-.035.745a2.792 2.792 0 0 1-.128.652h-9.208c.023 2.108.407 4.797 1.175 6.008.769 1.222 1.886 1.839 3.353 1.839l.035.011Zm-1.513-14.551c-.594 0-1.106.162-1.549.5-.442.338-.78.931-1.036 1.77-.256.85-.407 2.037-.442 3.562h5.471c.222-2.06.14-3.55-.244-4.47-.384-.908-1.118-1.362-2.2-1.362Zm31.094-.874c-1.28 0-2.27.582-2.945 1.735-.687 1.164-1.024 3.318-1.024 5.623 0 1.979.372 3.504 1.129 4.563.757 1.06 1.932 1.595 3.516 1.595.943 0 1.711-.174 2.328-.535.617-.361 1.176-.873 1.688-1.548l.489.372c-.512 1.222-1.292 2.154-2.34 2.794-1.048.64-2.305.966-3.749.966-1.385 0-2.642-.303-3.76-.908a6.542 6.542 0 0 1-2.643-2.63c-.64-1.153-.966-2.55-.966-4.203 0-1.654.361-3.062 1.071-4.226a7.122 7.122 0 0 1 2.864-2.678c1.188-.617 2.503-.931 3.935-.931.128 0 .268 0 .407.011Zm10.315 12.934c0 .408.081.734.244.978.163.245.443.42.827.524l.279.093v.617h-6.973v-.617l.396-.128c.733-.221 1.106-.733 1.106-1.525V18.562c0-.43-.07-.745-.21-.966-.14-.21-.419-.372-.826-.477l-.454-.128v-.582l5.168-1.316.454.256v19.034h-.011Zm-29.244 0c0 .408.082.734.245.978.163.245.442.42.826.524l.28.093v.617h-6.974v-.617l.396-.128c.734-.221 1.106-.733 1.106-1.525v-8.999c0-.43-.07-.745-.21-.966-.139-.21-.419-.373-.826-.477l-.454-.128v-.583l5.169-1.874.454.256v12.83h-.012Zm2.247-12.014c.85-.547 1.758-.931 2.736-.931 1.35 0 2.398.372 3.166 1.129.769.757 1.153 1.92 1.153 3.492v8.29c0 .407.081.733.244.977.163.245.454.43.862.547l.279.094v.617h-6.973v-.617l.372-.129c.734-.197 1.106-.71 1.106-1.525v-8.836c0-.838.012-1.955-.652-2.654-.465-.477-1.152-.524-2.293-.454Zm29.244 0c.849-.547 1.758-.931 2.735-.931 1.351 0 2.399.372 3.167 1.129.768.757 1.152 1.92 1.152 3.492v8.29c0 .407.082.733.245.977.163.245.454.43.861.547l.28.094v.617h-6.974v-.617l.373-.129c.733-.197 1.106-.71 1.106-1.525v-8.836c0-.838.012-1.955-.652-2.654-.477-.477-1.164-.524-2.293-.454Zm29.069-7.171c-.245.07-.513.815-.617 1.222-.163.769-.198 1.176-.291 2.224a45.04 45.04 0 0 0-.163 3.26h3.515v.942h-3.515v7.311c0 .699 0 1.386.011 2.06.012.688.012 1.375.012 2.062 0 .814.407 1.315 1.222 1.501l.792.21v.582h-7.893v-.582l.454-.128c.815-.221 1.234-.722 1.257-1.502 0-.71 0-1.42.012-2.13.012-.699.012-1.397.012-2.096v-7.288h-1.747v-.675l.675-.128c.408-.058.699-.21.885-.442.187-.233.315-.57.396-.99.221-.815.524-1.525.908-2.13a8.4 8.4 0 0 1 1.362-1.665c.757-.733 1.56-1.246 2.422-1.525.104-.035.198-.07.291-.093Zm-81.503 16.67-1.071 2.236c-.245.512-.512.908-.815 1.21-.291.292-.745.443-1.362.443h-4.435l8.137-13.248v-.617h-3.725L250 35.908v.675h12.608l.279-4.714h-.803Zm-9.581-9.976a2.194 2.194 0 0 0-2.189 2.188c0 1.211.978 2.189 2.189 2.189a2.186 2.186 0 0 0 2.189-2.189c0-1.21-.978-2.188-2.189-2.188Zm21.874 9.406c-1.21 0-2.188.978-2.188 2.189 0 1.21.978 2.188 2.188 2.188a2.186 2.186 0 0 0 2.189-2.188c0-1.21-.978-2.189-2.189-2.189Zm57.417 5.576a8.252 8.252 0 0 1-1.549.129c-1.443 0-2.724-.303-3.83-.92a6.425 6.425 0 0 1-2.584-2.643c-.617-1.152-.931-2.538-.931-4.144 0-1.677.36-3.085 1.082-4.25.722-1.163 1.665-2.06 2.818-2.677 1.152-.617 2.363-.931 3.62-.931 1.281 0 2.387.268 3.306.791a5.505 5.505 0 0 1 2.131 2.189c.5.931.745 1.99.745 3.201 0 .268-.012.513-.035.745a2.792 2.792 0 0 1-.128.652h-9.209c.024 2.108.408 4.797 1.176 6.008.768 1.222 1.886 1.839 3.353 1.839l.035.011Zm-1.514-14.551c-.593 0-1.106.162-1.548.5-.442.338-.78.931-1.036 1.77-.256.85-.408 2.037-.442 3.562h5.471c.221-2.06.14-3.55-.244-4.47-.385-.908-1.118-1.362-2.201-1.362Zm3.516 8.975a2.186 2.186 0 0 0-2.189 2.189c0 1.21.978 2.188 2.189 2.188a2.186 2.186 0 0 0 2.189-2.188c0-1.21-.978-2.189-2.189-2.189ZM346.811 15c-1.21 0-2.188.978-2.188 2.189 0 1.21.978 2.188 2.188 2.188A2.186 2.186 0 0 0 349 17.19c0-1.211-.978-2.189-2.189-2.189Zm-42.002 7.811a2.186 2.186 0 0 0-2.189 2.19c0 1.21.978 2.188 2.189 2.188 1.21 0 2.188-.978 2.188-2.189 0-1.21-.989-2.189-2.188-2.189ZM55.169 30.658a.62.62 0 0 1 .215.04.604.604 0 0 1 .207.14l1.204 1.264a5.014 5.014 0 0 1-1.983 1.556c-.795.352-1.735.529-2.82.529-.996 0-1.887-.17-2.676-.508a5.799 5.799 0 0 1-2.006-1.399 6.17 6.17 0 0 1-1.264-2.113 7.791 7.791 0 0 1-.441-2.658c-.01-.92.16-1.833.503-2.687a6.2 6.2 0 0 1 3.571-3.493 7.551 7.551 0 0 1 2.78-.494c.467-.005.933.035 1.392.12.416.082.824.203 1.218.359.366.147.716.33 1.044.548.307.203.59.439.845.704l-1.025 1.375a1.302 1.302 0 0 1-.234.228.61.61 0 0 1-.378.103.666.666 0 0 1-.305-.071 3.369 3.369 0 0 1-.306-.177l-.354-.225a2.772 2.772 0 0 0-.458-.224 3.8 3.8 0 0 0-.618-.176 4.216 4.216 0 0 0-.833-.072 3.825 3.825 0 0 0-1.51.291 3.314 3.314 0 0 0-1.174.835c-.34.383-.6.83-.764 1.313a5.143 5.143 0 0 0-.276 1.732c-.01.606.084 1.21.275 1.784.161.483.415.929.747 1.314.303.348.68.625 1.101.812.425.186.885.281 1.35.278.252.002.504-.012.755-.04a2.958 2.958 0 0 0 1.193-.395c.188-.114.367-.245.534-.39.071-.06.15-.11.234-.148a.62.62 0 0 1 .257-.055Zm16.288 3.381H69.1a1.09 1.09 0 0 1-.652-.183.952.952 0 0 1-.354-.471l-.773-2.278h-4.986l-.772 2.278a1.04 1.04 0 0 1-.99.654H58.2l5.073-13.067h3.112l5.072 13.067Zm-8.419-4.995h3.58l-1.205-3.578-.274-.803c-.113-.33-.215-.664-.309-1-.089.34-.188.678-.296 1.013-.088.272-.184.54-.289.807l-1.207 3.56Zm7.395-8.072h2.446c.23-.011.457.051.648.176a.979.979 0 0 1 .36.475l2.537 6.995c.113.305.228.637.346.996.118.36.227.736.329 1.13.082-.394.18-.77.292-1.13a25.5 25.5 0 0 1 .33-.992l2.52-6.995a1.04 1.04 0 0 1 .989-.655h2.461l-5.253 13.067h-2.752l-5.253-13.067Zm25.528 13.067h-2.356a1.09 1.09 0 0 1-.653-.183.952.952 0 0 1-.353-.471l-.773-2.278H86.84l-.773 2.278a1.04 1.04 0 0 1-.99.654h-2.374l5.072-13.067h3.113l5.073 13.067Zm-8.42-4.995h3.58l-1.204-3.578-.275-.803a21.17 21.17 0 0 1-.31-1c-.161.617-.356 1.224-.585 1.82l-1.205 3.56ZM101 34.039h-3.057V20.972H101l-.001 13.067ZM22.79 25.821a5.18 5.18 0 0 1 1.432-1.355l5.386-3.56c.687-.455 1.343-.722 1.943-.816l-1.89-1.016c-1.807-.968-3.502-1.104-4.785-.383l-.404.265c-1.08.83-1.672 2.3-1.672 4.201l-.01 2.664Zm11.511 6.186 2.235-1.475c1.569-1.036 2.472-2.321 2.587-3.659V26.3c-.12-1.448-1.161-2.769-2.952-3.73l-1.892-1.017c.248.55.386 1.242.384 2.064l-.012 6.447c.01.665-.11 1.325-.35 1.944Zm-2.848 1.88c-.663-.021-1.395-.226-2.164-.64l-4.786-2.567c-.767-.413-1.341-.907-1.723-1.445l-.005 2.69c0 1.931.566 3.361 1.61 4.074l.519.28c1.17.475 2.683.161 4.295-.905l2.254-1.488Z" fill="#8B8D98"/><path d="m22.206 31.924.017-8.767c0-1.227.238-2.296.68-3.16l-3.138 2.07c-2.529 1.67-3.862 3.82-3.76 6.053.103 2.234 1.63 4.255 4.297 5.69l2.64 1.418c-.483-.86-.738-1.978-.736-3.303v-.001Zm7.727-13.352 6.51 3.494c1.236.662 2.142 1.49 2.684 2.421l.008-3.737c.005-3.027-.998-5.234-2.825-6.216-1.828-.982-4.23-.6-6.76 1.07l-3.13 2.067c1.08-.061 2.278.238 3.513.9Zm6.92 12.435-7.33 4.842c-1.108.732-2.184 1.136-3.165 1.205l2.635 1.413c1.5.807 2.961 1.21 4.292 1.203a5.528 5.528 0 0 0 2.833-.757c1.927-1.144 2.991-3.44 3.002-6.462l.007-3.744c-.488.842-1.25 1.624-2.274 2.3ZM401.838 26.998l-14.441 26.999h-3.956L369 26.999 383.378 0h4.081l-14.378 26.998 12.306 23.169 12.307-23.169-7.158-13.499 2.072-3.83 9.23 17.33ZM395.685 0h-4.144l-14.316 26.998 9.23 17.33 2.009-3.83-7.158-13.5 12.307-23.23 12.306 23.23-14.378 26.999h4.144L410 26.999 395.685 0Z" fill="#8B8D98"/><path d="M111.255 91.522c5.664 0 10.255-4.594 10.255-10.26 0-5.668-4.591-10.262-10.255-10.262C105.591 71 101 75.594 101 81.261c0 5.667 4.591 10.261 10.255 10.261Z" fill="url(#a)"/><g opacity=".047"><path d="M117.36 82.876c-.432-.996-.857-1.988-1.137-3.036l-6.686 1.794c.28 1.048.407 2.138.533 3.227 2.527-.21 5.983-1.48 7.29-1.985Zm-1.998-2.143a.307.307 0 1 1 .112.42.57.57 0 0 1-.377-.218l.265-.202Z" fill="#E7E8E9"/><path d="M117.123 84.725c.484-.177.742-.672.568-1.08-.111-.26-.215-.516-.33-.77-1.312.512-4.764 1.775-7.291 1.986.031.27.029.11.06.38.053.442.528.734 1.036.645 2.012-.368 4.026-.465 5.957-1.16Z" fill="#fff"/><path d="m110.404 81.404.282 1.053-1.568.421-.282-1.053 1.568-.42Z" fill="#E7E8E9"/><path d="m104.987 84.055-.315-1.18c-.006-.018-.008-.036-.006-.055a.133.133 0 0 1 .103-.114l4.578-1.228a.133.133 0 0 1 .105.012.12.12 0 0 1 .04.036.129.129 0 0 1 .023.049l.316 1.18a.134.134 0 0 1-.097.168l-4.579 1.229c-.077.02-.154-.024-.167-.097h-.001Z" fill="#8B8D98"/><path d="m104.987 84.055-.315-1.18c-.006-.018-.008-.036-.006-.055a.133.133 0 0 1 .103-.114l4.578-1.228a.133.133 0 0 1 .105.012.12.12 0 0 1 .04.036.129.129 0 0 1 .023.049l.316 1.18a.134.134 0 0 1-.097.168l-4.579 1.229c-.077.02-.154-.024-.167-.097h-.001Z" fill="#8B8D98"/></g><g opacity=".081"><path d="M117.137 81.002c-.598-.905-1.189-1.809-1.647-2.792l-6.273 2.927c.458.984.772 2.035 1.085 3.087 2.452-.647 5.635-2.498 6.835-3.222Zm-2.34-1.763a.308.308 0 0 1 .448-.157.308.308 0 0 1 .067.47.305.305 0 0 1-.331.08.571.571 0 0 1-.41-.148l.226-.245Z" fill="#E7E8E9"/><path d="M117.224 82.865c.446-.26.614-.791.372-1.163-.155-.237-.302-.471-.459-.7-1.203.731-4.383 2.575-6.835 3.22.077.261.048.104.125.364.129.426.647.631 1.132.456 1.918-.713 3.884-1.158 5.665-2.178Z" fill="#fff"/><path d="m110.031 80.76.46.99-1.471.686-.46-.989 1.471-.686Z" fill="#E7E8E9"/><path d="m105.157 84.311-.516-1.108a.12.12 0 0 1-.015-.052.139.139 0 0 1 .036-.1.137.137 0 0 1 .045-.03l4.296-2.004a.133.133 0 0 1 .105-.007.132.132 0 0 1 .077.073l.516 1.108a.135.135 0 0 1-.022.151.144.144 0 0 1-.044.031l-4.296 2.005c-.073.034-.156.003-.182-.067Z" fill="#8B8D98"/><path d="m105.157 84.311-.516-1.108a.12.12 0 0 1-.015-.052.139.139 0 0 1 .036-.1.137.137 0 0 1 .045-.03l4.296-2.004a.133.133 0 0 1 .105-.007.132.132 0 0 1 .077.073l.516 1.108a.135.135 0 0 1-.022.151.144.144 0 0 1-.044.031l-4.296 2.005c-.073.034-.156.003-.182-.067Z" fill="#8B8D98"/></g><g opacity=".205"><path d="M116.491 78.903c-.747-.788-1.485-1.575-2.107-2.464l-5.669 3.972c.622.89 1.113 1.87 1.604 2.85 2.303-1.061 5.116-3.437 6.172-4.358Zm-2.611-1.33a.311.311 0 0 1 .236-.247.308.308 0 0 1 .326.465.31.31 0 0 1-.313.138.57.57 0 0 1-.429-.076l.18-.28Z" fill="#E7E8E9"/><path d="M116.9 80.722c.394-.332.467-.885.164-1.21-.193-.206-.378-.411-.573-.61-1.058.93-3.869 3.297-6.172 4.36.121.242.065.093.186.336.201.397.747.51 1.194.252 1.765-1.034 3.624-1.814 5.201-3.128Z" fill="#fff"/><path d="m109.45 79.9.625.892-1.329.932-.625-.893 1.329-.932Z" fill="#E7E8E9"/><path d="m105.267 84.242-.701-1.002a.145.145 0 0 1-.023-.049.123.123 0 0 1-.001-.054.13.13 0 0 1 .058-.088l3.883-2.72a.13.13 0 0 1 .19.034l.701 1.002a.127.127 0 0 1 .023.048.13.13 0 0 1-.057.142l-3.882 2.72c-.065.046-.153.031-.191-.033Z" fill="#8B8D98"/></g><path d="M115.57 77.066c-.872-.645-1.737-1.291-2.504-2.058l-4.896 4.89c.768.767 1.422 1.647 2.077 2.526 2.084-1.444 4.443-4.268 5.323-5.358Zm-2.803-.855a.302.302 0 0 1 .19-.282.305.305 0 0 1 .399.4.307.307 0 0 1-.281.19.57.57 0 0 1-.437 0l.129-.308Z" fill="#E7E8E9"/><path d="M116.289 78.784c.332-.395.307-.952-.048-1.218-.226-.17-.445-.34-.671-.5-.88 1.097-3.239 3.913-5.324 5.357.162.218.081.081.242.299.267.355.825.371 1.221.04 1.559-1.323 3.255-2.412 4.58-3.978Z" fill="#fff"/><path d="m108.807 79.266.771.77-1.148 1.147-.772-.77 1.149-1.147Z" fill="#E7E8E9"/><path d="m105.44 84.264-.865-.863a.134.134 0 0 1-.032-.044.136.136 0 0 1 0-.106.134.134 0 0 1 .032-.044l3.353-3.348a.126.126 0 0 1 .044-.032.127.127 0 0 1 .105 0 .14.14 0 0 1 .045.032l.864.863a.132.132 0 0 1 .031.15.132.132 0 0 1-.031.044l-3.353 3.348c-.056.057-.145.057-.193 0ZM132.923 89c2.987 0 5.39-1.749 6.126-4.831l-2.819-.313c-.437 1.69-1.719 2.543-3.307 2.543-2.148 0-3.707-1.567-3.707-5.043 0-3.484 1.559-5.087 3.707-5.087 1.588 0 2.906.867 3.343 2.602l2.797-.314c-.728-3.119-3.153-4.89-6.14-4.89-3.794 0-6.584 2.864-6.584 7.689 0 4.802 2.79 7.645 6.584 7.645Zm18.04-.203v-2.42h-6.322V73.871h-2.877v14.926h9.2-.001Zm12.636 0v-2.42h-6.817v-3.84h5.848v-2.413h-5.848v-3.833h6.781v-2.42h-9.658v14.926h9.694Zm5.316 0L170 85.619h5.71l1.086 3.178h3.08l-5.499-14.926h-3.051l-5.499 14.926h3.088Zm5.994-5.54h-4.108l1.967-5.757h.175l1.966 5.758Zm13.168 5.54 5.499-14.926h-3.023l-3.911 11.296h-.175l-3.918-11.296h-3.023l5.499 14.926h3.052Zm10.467-5.583h2.498l2.768 5.583H207l-3.088-6.137c1.5-.75 2.506-2.084 2.506-4.154 0-2.776-1.719-4.635-5.252-4.635h-5.499v14.926h2.877v-5.583Zm2.448-2.604h-2.448v-4.32h2.511c1.611 0 2.301.915 2.301 2.178 0 1.368-.781 2.142-2.364 2.142Z" fill="#8B8D98"/><g clip-path="url(#b)" fill="#8B8D98"><path d="M354.675 82.474c.203-.169.466-.293.682-.446a11.542 11.542 0 0 0 1.458-1.21c.982-.97 1.947-2.356 1.507-3.8a2.824 2.824 0 0 0-1.663-1.837 8.232 8.232 0 0 0-1.847-.452 17.316 17.316 0 0 0-3.352-.104 33.78 33.78 0 0 0-5.139.725c-2.717.576-5.435 1.288-8.009 2.328a70.293 70.293 0 0 0-4.003 1.768c-1.939.923-3.857 1.92-5.65 3.105-.298.197-.594.4-.883.612-.256.193-.504.441-.776.606 0 0 9.525-5.751 20.019-7.764 10.494-2.013 12.904 2.084 7.656 6.47Z"/><path d="M353.3 72.788c-.024-.196.064-.46.081-.658.047-.525.05-1.052.01-1.577-.063-.786-.238-1.59-.635-2.276-.278-.479-.731-1.019-1.285-1.177-.797-.228-1.692-.035-2.441.271-1.323.535-2.419 1.498-3.401 2.51-.67.69-1.31 1.41-1.926 2.15a43.359 43.359 0 0 0-2.537 3.369 40.403 40.403 0 0 0-2.621 4.438 36.978 36.978 0 0 0-1.366 3.038c-.138.35-.236.74-.404 1.076a51.8 51.8 0 0 1 .557-1.056 72.65 72.65 0 0 1 1.522-2.675 72.574 72.574 0 0 1 2.264-3.56c.868-1.283 1.8-2.52 2.793-3.709a24.277 24.277 0 0 1 3.895-3.727 5.93 5.93 0 0 1 1.025-.644c.566-.272 1.21-.449 1.84-.345.842.137 1.44.777 1.816 1.506.483.936.692 2.01.813 3.046ZM335.711 88.57a1.644 1.644 0 1 0 0-3.287 1.644 1.644 0 0 0 0 3.288ZM352.782 88.393v1.662h-7.194l-.014.013h-2.101l.013-.013 1.277-1.662 2.288-2.966 1.049-1.359 1.278-1.648h-5.918v-1.66h9.282l-1.29 1.662-2.314 3.005-1.05 1.359-1.25 1.607h5.944Zm10.797 1.675h-1.861l-.852-1.662-2.034-3.986-2.035 3.986-.851 1.662h-1.862l.852-1.662 3.895-7.647 3.895 7.647.853 1.662Zm6.569-5.572 4.029 5.572h-2.048l-3.218-4.439-2.355 2.142v2.3h-1.661V80.76h1.662v4.76l1.37-1.25 1.237-1.13 2.593-2.38h2.46l-4.069 3.736Z"/><path d="M383.299 85.414a4.651 4.651 0 0 1-5.563 4.567 4.653 4.653 0 0 1-3.392-6.348 4.65 4.65 0 0 1 4.301-2.873 4.662 4.662 0 0 1 4.654 4.654Zm-1.662 0a2.985 2.985 0 0 0-1.845-2.762 2.988 2.988 0 0 0-4.076 2.178 2.994 2.994 0 0 0 1.271 3.07c.492.328 1.07.503 1.661.503a2.995 2.995 0 0 0 2.989-2.99Zm7.832-4.64a4.645 4.645 0 0 1 4.223 2.686 4.648 4.648 0 0 1-.672 4.96c-.08.09-.173.18-.266.278a4.575 4.575 0 0 1-3.271 1.37h-4.655V80.76l4.641.013Zm-2.989 7.645h2.989a2.995 2.995 0 0 0 2.992-2.992 2.992 2.992 0 0 0-2.992-2.992h-2.989v5.984Zm9.517 1.649V80.76h1.663v9.308h-1.663Zm12.833-9.308v4.654a4.655 4.655 0 0 1-9.309 0V80.76h1.667v4.654a2.993 2.993 0 1 0 5.985 0V80.76h1.657Zm11.17 0v9.308h-1.662v-5.93l-1.636 1.25-1.359 1.051-1.359-1.05-1.636-1.25v5.93h-1.657v-9.31l1.662 1.278 2.989 2.3 2.989-2.3L420 80.759Z"/></g><path d="M295.434 94.08v1.686H307v-7.6h-1.685v5.915h-9.881Zm0-25.08v1.685h9.881V76.6H307V69h-11.566Zm-5.964 13.036v-3.915h2.644c1.289 0 1.751.43 1.751 1.602v.694c0 1.206-.446 1.62-1.751 1.62h-2.644Zm4.197.694c1.206-.314 2.048-1.438 2.048-2.776 0-.842-.33-1.602-.958-2.214-.793-.76-1.851-1.14-3.222-1.14h-3.717v11.566h1.652v-4.61h2.479c1.272 0 1.784.529 1.784 1.85v2.76h1.685v-2.495c0-1.817-.429-2.511-1.751-2.71v-.23Zm-13.912.38h5.089v-1.52h-5.089v-3.47h5.585V76.6h-7.27v11.566h7.518v-1.52h-5.833V83.11Zm-5.535.612v.792c0 1.67-.611 2.215-2.148 2.215h-.363c-1.537 0-2.28-.496-2.28-2.793V80.83c0-2.313.776-2.793 2.313-2.793h.33c1.504 0 1.983.562 1.999 2.115h1.818c-.166-2.28-1.686-3.717-3.966-3.717-1.107 0-2.032.347-2.726 1.008-1.041.975-1.619 2.627-1.619 4.94 0 2.23.496 3.883 1.52 4.907a3.746 3.746 0 0 0 2.594 1.04c.991 0 1.9-.396 2.363-1.255h.231v1.09h1.52v-5.964h-4.478v1.52h2.892Zm-14.572-5.602h1.801c1.702 0 2.627.43 2.627 2.743v3.04c0 2.313-.925 2.743-2.627 2.743h-1.801V78.12Zm1.949 10.046c3.156 0 4.329-2.396 4.329-5.783 0-3.436-1.256-5.782-4.362-5.782h-3.569v11.565h3.602Zm-11.581-5.056h5.088v-1.52h-5.088v-3.47h5.584V76.6h-7.27v11.566h7.518v-1.52h-5.832V83.11Zm-9.749-6.51h-1.685v11.566h7.6v-1.52h-5.915V76.6ZM227 88.166v7.6h11.566v-1.685h-9.881v-5.915H227ZM227 69v7.6h1.685v-5.915h9.881V69H227Z" fill="#8B8D98"/><g clip-path="url(#c)" fill="#8B8D98"><path fill-rule="evenodd" clip-rule="evenodd" d="M0 97.73s17.01-4.32 41.404-4.32C64.072 93.41 81 97.58 81 97.58s-16.942-6.183-39.596-6.183C15.688 91.398 0 97.73 0 97.73Z"/><path d="M26.703 71.27H13.527v3.51h13.176v-3.51Z"/><path fill-rule="evenodd" clip-rule="evenodd" d="M13.27 71.013h13.69v4.025H13.27v-4.025Zm.515.515v2.994h12.66v-2.994h-12.66Z"/><path d="M33.115 71.27h-4.617v16.389h4.617V71.27Z"/><path fill-rule="evenodd" clip-rule="evenodd" d="M28.24 71.013h5.133v16.904h-5.132V71.013Zm.516.515V87.4h4.102V71.528h-4.102Z"/><path d="m40 71.31 3.47 10.49 3.564-10.49h15.444c1.877 0 4.873 1.229 4.873 4.658 0 2.822-2.2 3.321-2.2 3.321s2.498.297 2.498 3.605c0 3.212-2.471 4.724-6.278 4.724h-8.195v-3.496h7.668c.919-.013 2.12-.094 2.188-1.31.094-1.444-1.161-1.498-2.147-1.498h-7.722v-3.645h7.87c.54 0 1.728-.216 1.742-1.323 0-.756-.148-1.593-1.633-1.593H50.367l-4.522 12.865h-4.698l-4.617-12.811h-1.795v-3.496H40Z"/><path fill-rule="evenodd" clip-rule="evenodd" d="M34.478 71.053h5.709l3.286 9.936 3.376-9.936h15.629c.986 0 2.26.32 3.295 1.094 1.044.78 1.836 2.02 1.836 3.82 0 1.489-.584 2.39-1.189 2.914-.18.156-.358.277-.521.37.202.09.43.218.66.397.69.539 1.347 1.516 1.347 3.245 0 1.682-.652 2.945-1.82 3.778-1.153.822-2.783 1.205-4.715 1.205h-8.452v-4.012h7.924c.462-.007.944-.032 1.316-.185a.995.995 0 0 0 .427-.308c.1-.132.174-.313.188-.573v-.002c.021-.325-.034-.545-.123-.699a.834.834 0 0 0-.395-.341c-.366-.167-.869-.184-1.371-.184h-7.98v-4.16h8.128c.246 0 .632-.051.949-.218.303-.159.53-.413.535-.85 0-.373-.04-.695-.21-.926-.156-.213-.47-.408-1.166-.408h-10.59l-4.523 12.866h-5.061L36.35 75.064h-1.872v-4.011Zm30.616 7.985h.001l.014-.004.058-.018c.053-.016.13-.044.224-.085.188-.083.44-.22.691-.44.496-.43 1.012-1.19 1.012-2.523 0-1.628-.707-2.718-1.63-3.408-.933-.698-2.096-.992-2.986-.992h-15.26L43.468 82.61l-3.653-11.042h-4.82v2.981h1.718l4.617 12.812h4.334l4.523-12.866H61.14c.79 0 1.293.225 1.582.618.276.377.31.85.31 1.233v.003c-.009.67-.382 1.076-.812 1.302-.415.218-.893.276-1.188.276h-7.612v3.13h7.464c.483 0 1.1.009 1.585.23.25.114.476.29.628.553.15.263.216.59.19.988-.019.347-.121.631-.293.856-.17.224-.398.373-.64.472-.475.195-1.052.217-1.507.223h-7.414v2.982h7.937c1.875 0 3.384-.374 4.417-1.11 1.02-.727 1.603-1.827 1.603-3.358 0-1.578-.591-2.403-1.15-2.84a2.68 2.68 0 0 0-1.037-.493 1.45 1.45 0 0 0-.066-.013l-.016-.002h-.001v-.002l-.027-.504v-.001Z"/><path d="M13.54 77.291h11.84v3.645h-7.236v6.71h-4.603V77.29Z"/><path fill-rule="evenodd" clip-rule="evenodd" d="M13.283 77.033h12.355v4.16h-7.236v6.71h-5.12v-10.87Zm.515.516v9.839h4.088v-6.71h7.236v-3.13H13.798Z"/><path d="M68.053 87.335V86.27h.23l.27.756.054.162.067-.176.284-.742h.202v1.066h-.148v-.89l-.338.89h-.135l-.337-.904v.904h-.149Zm-.702 0v-.945h-.378v-.121h.918v.121h-.378v.945h-.162Z"/><path fill-rule="evenodd" clip-rule="evenodd" d="M67.351 87.335v-.945h-.378v-.121h.918v.121h-.378v.945h-.162Zm.702 0V86.27h.23l.27.756c.027.067.04.121.054.162.013-.04.027-.095.067-.176l.284-.742h.202v1.066h-.148v-.89l-.338.89h-.135l-.337-.904v.904h-.149Z"/><path fill-rule="evenodd" clip-rule="evenodd" d="M66.883 86.178h1.463l.266.744.284-.743h.355v1.246h-.33v-.49l-.184.49h-.125l-.011.028-.01-.028h-.114l-.185-.496v.496h-.329v-.945h-.36v.945h-.342v-.945h-.378v-.302Zm2.187.26v-.08h-.05l-.025.066.075.014Zm-.833-.03-.017-.05h-.076v.067l.093-.017Z"/></g><defs><clipPath id="b"><path fill="#fff" d="M327 67h93v23.068h-93z"/></clipPath><clipPath id="c"><path fill="#fff" d="M0 71h81v26.73H0z"/></clipPath><linearGradient id="a" x1="3985.29" y1="3450.66" x2="99.008" y2="129.582" gradientUnits="userSpaceOnUse"><stop stop-color="#8B8D98"/><stop offset="1" stop-color="#8B8D98"/></linearGradient></defs></svg>
