<svg class="h-auto w-[40px]" viewBox="0 0 37 48" xmlns="http://www.w3.org/2000/svg" fill="none">
<g clip-path="url(#clip0_1083_1813)">
<path d="M34.4694 22.2441V32.7449C34.4694 32.8832 34.393 33.0125 34.2716 33.0839L25.1039 38.3343C25.1039 38.3343 25.0679 38.3521 25.0544 38.361C24.8926 38.4235 24.7622 38.361 24.7082 38.3343C24.6588 38.3031 24.5419 38.2228 24.5149 38.0666V27.4588C24.5239 27.3473 24.5823 27.2447 24.6723 27.1778L25.7783 26.5443L33.9389 21.8739C33.9839 21.856 34.0288 21.8516 34.0693 21.8516C34.1592 21.8516 34.2356 21.8828 34.2716 21.9051C34.3301 21.9363 34.4694 22.0389 34.4694 22.2441Z" fill="#5129F0"/>
<path d="M34.4694 9.39877V19.3416L33.8705 19.0028L25.1091 14.0313L33.8705 9.05991C33.9385 9.01978 34.0066 9.00641 34.0656 9.00641C34.1563 9.00641 34.2334 9.03762 34.2697 9.05991C34.3287 9.09112 34.4694 9.19367 34.4694 9.39877Z" fill="#5129F0"/>
<path d="M33.4294 20.5242C33.4294 20.5907 33.4114 20.7593 33.2311 20.8613L25.0473 25.5106L24.5245 25.8078L24.0423 26.0828C24.0423 26.0828 24.0378 26.0828 24.0378 26.0873C23.9161 26.1494 23.7674 26.1494 23.6503 26.0828H23.6458L23.1726 25.8122L22.6453 25.5106H22.6408L14.4615 20.8613C14.4615 20.8613 14.457 20.8613 14.457 20.8569C14.2812 20.7548 14.2632 20.5907 14.2632 20.5242C14.2632 20.462 14.2812 20.3023 14.4389 20.2047L22.5777 15.5777C22.5777 15.5777 22.6138 15.5599 22.6273 15.5511L23.1681 15.2405L23.6503 14.9655C23.7719 14.8945 23.9252 14.8945 24.0468 14.9655L24.52 15.2361H24.5245L33.2311 20.187C33.4114 20.289 33.4294 20.4576 33.4294 20.5242Z" fill="white"/>
<path d="M33.4294 7.53123C33.4294 7.59777 33.4114 7.76635 33.2311 7.86838L24.0423 13.0898C24.0423 13.0898 24.0378 13.0898 24.0378 13.0943C23.9252 13.152 23.79 13.1564 23.6773 13.1032C23.6683 13.0987 23.6593 13.0943 23.6503 13.0898H23.6458L22.5777 12.4776L14.4164 7.83733C14.4164 7.83733 14.4074 7.83733 14.4029 7.82846C14.2767 7.72642 14.2632 7.5889 14.2632 7.53123C14.2632 7.46468 14.2812 7.29611 14.4615 7.19407L23.6503 1.97261C23.7719 1.90163 23.9252 1.90163 24.0468 1.97261L33.2311 7.19407C33.4114 7.29611 33.4294 7.46468 33.4294 7.53123Z" fill="white"/>
<path d="M22.1377 14.0253C22.1377 14.0875 22.1196 14.2472 21.9619 14.3449C21.9529 14.3537 21.9484 14.3582 21.9394 14.3626L13.8231 18.9736L13.2283 19.3109L12.7506 19.586C12.7506 19.586 12.7461 19.586 12.7461 19.5905C12.7371 19.5949 12.7281 19.5993 12.7145 19.6038C12.6019 19.6526 12.4667 19.6482 12.3585 19.586H12.354L11.8763 19.3153L3.16972 14.3671C2.98946 14.265 2.97144 14.0963 2.97144 14.0298C2.97144 13.9632 2.98946 13.7946 3.16972 13.6925L11.8763 8.74424L12.3585 8.46909C12.4802 8.39808 12.6334 8.39808 12.7551 8.46909L21.9394 13.6925C21.9394 13.6925 21.9709 13.7102 21.9844 13.7236L21.998 13.7324C22.1241 13.8345 22.1377 13.9721 22.1377 14.0298V14.0253Z" fill="white"/>
<path d="M11.1431 20.53L2.52052 25.4993L1.9314 25.838V15.895C1.9314 15.69 2.06975 15.5875 2.12777 15.5563C2.16347 15.534 2.23488 15.5028 2.32861 15.5028C2.38662 15.5028 2.44911 15.5162 2.52052 15.5563L11.1431 20.53Z" fill="#5129F0"/>
<path d="M22.1377 26.9465C22.1377 27.0139 22.1196 27.1847 21.9394 27.2881L13.8231 31.9628C13.8231 31.9628 13.7871 31.9808 13.7736 31.9897L13.2283 32.3044L12.7506 32.5786C12.7506 32.5786 12.7461 32.5786 12.7461 32.5831C12.6244 32.646 12.4757 32.646 12.3585 32.5786H12.354L11.8763 32.3044L11.331 31.9897C11.331 31.9897 11.2995 31.9718 11.2815 31.9628L3.16972 27.2881C2.98946 27.1847 2.97144 27.0139 2.97144 26.9465C2.97144 26.8791 2.98946 26.7083 3.16972 26.6049L11.8763 21.5931L12.3585 21.3144C12.4667 21.2515 12.6019 21.2425 12.7145 21.2964L12.7506 21.3189L13.2283 21.5931L13.7646 21.9032H13.7691L21.9349 26.6049H21.9439L21.9619 26.6228C22.1196 26.7217 22.1377 26.8836 22.1377 26.9465Z" fill="white"/>
<path d="M11.8859 33.991V44.4917C11.8859 44.6925 11.7511 44.7951 11.6881 44.8307C11.6342 44.8575 11.5038 44.92 11.3419 44.8575C11.3239 44.8486 11.3104 44.8397 11.2925 44.8307L2.12923 39.5804C2.00783 39.509 1.9314 39.3796 1.9314 39.2413V28.7406C1.9314 28.5354 2.07078 28.4328 2.12923 28.4016C2.1652 28.3792 2.23714 28.348 2.33156 28.348C2.37652 28.348 2.42148 28.3569 2.47094 28.3748L10.618 33.0363L11.7061 33.6609C11.814 33.7322 11.8859 33.8527 11.8859 33.991Z" fill="#5129F0"/>
<path d="M23.1777 28.7406V39.2413C23.1777 39.3796 23.1013 39.509 22.98 39.5804L22.5036 39.8525L13.8164 44.8307C13.8164 44.8307 13.7804 44.8486 13.7669 44.8575C13.6051 44.92 13.4748 44.8575 13.4209 44.8307C13.3625 44.7951 13.2231 44.6925 13.2231 44.4917V33.991C13.2231 33.8527 13.2951 33.7322 13.4074 33.6609L13.4209 33.6519L13.9018 33.3798L14.4905 33.0363L22.6339 28.3748C22.6833 28.3569 22.7328 28.348 22.7777 28.348C22.8676 28.348 22.944 28.3792 22.98 28.4016C23.0294 28.4283 23.1462 28.5086 23.1732 28.6692C23.1777 28.6915 23.1777 28.7138 23.1777 28.7406Z" fill="#5129F0"/>
<path d="M35.0543 6.19782L24.7774 0.29597C24.0935 -0.0971919 23.2452 -0.0971919 22.5568 0.29597L14.3539 5.00508H14.3495L12.4265 6.10947L12.2044 6.23758L11.5515 6.61307L11.0586 6.89579L9.93495 7.54075L1.1103 12.6077C0.426355 12.9964 0 13.7297 0 14.5205V39.1528C0 39.9347 0.426355 40.668 1.1103 41.0656L11.3917 46.9674C11.7247 47.1574 12.1067 47.259 12.4975 47.259C12.8883 47.259 13.2747 47.1574 13.6123 46.9674L34.9744 34.6999L35.0543 34.6513C35.7383 34.2537 36.1646 33.5204 36.1646 32.7385V8.11062C36.1646 7.31988 35.7383 6.58656 35.0543 6.19782ZM31.1727 7.02832C31.6169 7.28454 31.6169 7.92066 31.1727 8.17246L23.6804 12.4707H23.6494L16.1659 8.16805C15.7218 7.91183 15.7218 7.2757 16.1659 7.0239L23.334 2.91116C23.5383 2.79189 23.7915 2.79189 24.0002 2.91116L31.1727 7.02832ZM12.5153 31.7092H12.4798L4.99634 27.4109C4.55222 27.1547 4.55222 26.5186 4.99634 26.2668L12.1644 22.1496C12.3687 22.0303 12.6219 22.0303 12.8306 22.1496L20.0031 26.2668C20.4473 26.523 20.4473 27.1547 20.0031 27.4109L13.4524 31.1747C13.4213 31.1879 13.3902 31.2056 13.3636 31.2232L12.5153 31.7092ZM23.676 25.2949H23.6494L22.659 24.725L16.1704 20.9966C15.7263 20.7404 15.7263 20.1087 16.1704 19.8525L22.7167 16.0931C22.7611 16.071 22.8055 16.049 22.8055 16.0445L23.3385 15.7353C23.5428 15.616 23.7959 15.616 24.0046 15.7353L31.1772 19.8525C31.6213 20.1087 31.6213 20.7448 31.1772 20.9966L23.6849 25.2949H23.676ZM26.3363 14.0125L32.5051 10.4696C32.9492 10.2134 33.4999 10.5314 33.4999 11.0439V18.1296L26.3363 14.0169V14.0125ZM12.835 9.32103L20.0076 13.4382C20.4517 13.6944 20.4517 14.3305 20.0076 14.5823L13.4213 18.3593L12.5153 18.8806H12.4842L5.00078 14.5823C4.55666 14.3261 4.55666 13.69 5.00078 13.4382L12.1733 9.32103C12.3776 9.20175 12.6308 9.20175 12.8395 9.32103H12.835ZM9.8328 20.4268L2.66472 24.5395V17.4493C2.66472 16.9413 3.21986 16.6232 3.65954 16.875L9.8328 20.4223V20.4268ZM3.65954 29.7036L10.8321 33.8164C11.0364 33.9356 11.1652 34.1521 11.1652 34.3906V42.6294C11.1652 43.1374 10.61 43.4555 10.1703 43.2037L2.99781 39.0865C2.79351 38.9672 2.66472 38.7508 2.66472 38.5122V30.2735C2.66472 29.7655 3.21986 29.4474 3.65954 29.6992V29.7036ZM14.1585 33.8208L21.3355 29.7036C21.7796 29.4474 22.3303 29.7655 22.3303 30.2779V38.5166C22.3303 38.7508 22.2015 38.9716 21.9972 39.0909L14.8203 43.2081C14.3761 43.4643 13.8254 43.1462 13.8254 42.6338V34.3951C13.8254 34.1609 13.9542 33.94 14.1585 33.8208ZM25.3281 27.4065L32.5007 23.2893C32.9448 23.0331 33.4955 23.3512 33.4955 23.8636V32.0979C33.4955 32.3321 33.3667 32.5529 33.1624 32.6722L25.9899 36.7894C25.5457 37.0456 24.995 36.7275 24.995 36.2151V27.9808C24.995 27.7466 25.1238 27.5258 25.3281 27.4065Z" fill="#0B0E1B"/>
</g>
<defs>
<clipPath id="clip0_1083_1813">
<rect width="36.1646" height="47.259" fill="white"/>
</clipPath>
</defs>
</svg>
